<svg width="76" height="77" viewBox="0 0 76 77" fill="none" xmlns="http://www.w3.org/2000/svg">
<rect width="76" height="77" rx="17.6" fill="url(#paint0_linear_79_755)"/>
<g opacity="0.5" filter="url(#filter0_f_79_755)">
<path d="M26.8207 52.9013L24.3329 25H51.6672L49.1768 52.8974L37.9833 56L26.8207 52.9013Z" fill="#E44D26"/>
<path d="M38 53.6285L47.0443 51.1201L49.1729 27.2811H38V53.6285Z" fill="#F16529"/>
<path d="M37.9999 37.6298H33.4726L33.1587 34.1256H37.9999V30.7026H29.4193L29.5007 31.621L30.3416 41.0502H37.9999V37.6298ZM37.9999 46.5165L37.9844 46.5204L34.1739 45.4909L33.9298 42.7616H30.4953L30.9745 48.135L37.9844 50.0815L37.9999 50.0763V46.5165Z" fill="#EBEBEB"/>
<path d="M37.9883 37.6298V41.0515H42.203L41.8052 45.4896L37.9883 46.5191V50.0789L45.0033 48.135L45.055 47.5563L45.8597 38.5482L45.9424 37.6286H45.0201L37.9883 37.6298ZM37.9883 30.7026V34.1256H46.2537L46.3221 33.3557L46.4784 31.621L46.5598 30.7026H37.9883Z" fill="white"/>
<path d="M37.9993 55.9948L37.983 55.9998H37.9993V55.9948Z" fill="#DEDEDE"/>
<path d="M38 34.1256H33.1589L33.4715 37.6299H37.9871H38V34.1256ZM38 25H24.3329L26.8207 52.9013L37.9833 56L38 55.9948V50.0764L37.9845 50.0816L30.9747 48.135L30.4955 42.7617H33.93L34.1741 45.491L37.9845 46.5205L37.9884 46.5192L38 46.5166V41.0515H30.3417L29.5009 31.6224L29.4195 30.7027H37.9884H38V25Z" fill="#C64321"/>
<path d="M33.9298 42.7616H30.4953L30.9745 48.135L37.9844 50.0815L37.9999 50.0763L37.9882 50.0789V46.5191L37.9844 46.5204L34.1739 45.4909L33.9298 42.7616ZM37.9882 30.7026H29.4193L29.5007 31.621L30.3416 41.0502H37.9999H37.9882V37.6298H33.4726L33.1587 34.1256H37.9999H37.9882V30.7026Z" fill="#CDCDCD"/>
<path d="M37.9999 46.5165L37.9883 46.5191V50.0789L37.9999 50.0763V46.5165ZM37.9999 37.6298H37.9883V41.0515H37.9999V37.6298ZM37.9999 30.7026H37.9883V34.1256H37.9999V30.7026Z" fill="#DEDEDE"/>
</g>
<path d="M26.8207 52.9013L24.3329 25H51.6672L49.1768 52.8974L37.9833 56L26.8207 52.9013Z" fill="#E44D26"/>
<path d="M38 53.6285L47.0443 51.1201L49.1729 27.2811H38V53.6285Z" fill="#F16529"/>
<path d="M37.9999 37.6298H33.4726L33.1587 34.1256H37.9999V30.7026H29.4193L29.5007 31.621L30.3416 41.0502H37.9999V37.6298ZM37.9999 46.5165L37.9844 46.5204L34.1739 45.4909L33.9298 42.7616H30.4953L30.9745 48.135L37.9844 50.0815L37.9999 50.0763V46.5165Z" fill="#EBEBEB"/>
<path d="M37.9883 37.6298V41.0515H42.203L41.8052 45.4896L37.9883 46.5191V50.0789L45.0033 48.135L45.055 47.5563L45.8597 38.5482L45.9424 37.6286H45.0201L37.9883 37.6298ZM37.9883 30.7026V34.1256H46.2537L46.3221 33.3557L46.4784 31.621L46.5598 30.7026H37.9883Z" fill="white"/>
<path d="M37.9993 55.9948L37.983 55.9998H37.9993V55.9948Z" fill="#DEDEDE"/>
<path d="M38 34.1256H33.1589L33.4715 37.6299H37.9871H38V34.1256ZM38 25H24.3329L26.8207 52.9013L37.9833 56L38 55.9948V50.0764L37.9845 50.0816L30.9747 48.135L30.4955 42.7617H33.93L34.1741 45.491L37.9845 46.5205L37.9884 46.5192L38 46.5166V41.0515H30.3417L29.5009 31.6224L29.4195 30.7027H37.9884H38V25Z" fill="#C64321"/>
<path d="M33.9298 42.7616H30.4953L30.9745 48.135L37.9844 50.0815L37.9999 50.0763L37.9882 50.0789V46.5191L37.9844 46.5204L34.1739 45.4909L33.9298 42.7616ZM37.9882 30.7026H29.4193L29.5007 31.621L30.3416 41.0502H37.9999H37.9882V37.6298H33.4726L33.1587 34.1256H37.9999H37.9882V30.7026Z" fill="#CDCDCD"/>
<path d="M37.9999 46.5165L37.9883 46.5191V50.0789L37.9999 50.0763V46.5165ZM37.9999 37.6298H37.9883V41.0515H37.9999V37.6298ZM37.9999 30.7026H37.9883V34.1256H37.9999V30.7026Z" fill="#DEDEDE"/>
<defs>
<filter id="filter0_f_79_755" x="10.5" y="13" width="55" height="55" filterUnits="userSpaceOnUse" color-interpolation-filters="sRGB">
<feFlood flood-opacity="0" result="BackgroundImageFix"/>
<feBlend mode="normal" in="SourceGraphic" in2="BackgroundImageFix" result="shape"/>
<feGaussianBlur stdDeviation="6" result="effect1_foregroundBlur_79_755"/>
</filter>
<linearGradient id="paint0_linear_79_755" x1="38" y1="0" x2="38" y2="77" gradientUnits="userSpaceOnUse">
<stop stop-color="#FBFBFB"/>
<stop offset="1" stop-color="#E7E7E7"/>
</linearGradient>
</defs>
</svg>
