<svg width="76" height="77" viewBox="0 0 76 77" fill="none" xmlns="http://www.w3.org/2000/svg">
<rect width="76" height="77" rx="17.6" fill="url(#paint0_linear_79_724)"/>
<g opacity="0.3" clip-path="url(#clip0_79_724)" filter="url(#filter0_f_79_724)">
<path d="M32.1667 56C35.3867 56 38 53.3866 38 50.1666V44.3333H32.1667C28.9467 44.3333 26.3333 46.9466 26.3333 50.1666C26.3333 53.3866 28.9467 56 32.1667 56Z" fill="#0ACF83"/>
<path d="M26.3333 38.5C26.3333 35.28 28.9467 32.6667 32.1667 32.6667H38V44.3334H32.1667C28.9467 44.3334 26.3333 41.72 26.3333 38.5Z" fill="#A259FF"/>
<path d="M26.3333 26.8333C26.3333 23.6133 28.9467 21 32.1667 21H38V32.6667H32.1667C28.9467 32.6667 26.3333 30.0533 26.3333 26.8333Z" fill="#F24E1E"/>
<path d="M38 21H43.8333C47.0533 21 49.6667 23.6133 49.6667 26.8333C49.6667 30.0533 47.0533 32.6667 43.8333 32.6667H38V21Z" fill="#FF7262"/>
<path d="M49.6667 38.5C49.6667 41.72 47.0533 44.3334 43.8333 44.3334C40.6133 44.3334 38 41.72 38 38.5C38 35.28 40.6133 32.6667 43.8333 32.6667C47.0533 32.6667 49.6667 35.28 49.6667 38.5Z" fill="#1ABCFE"/>
</g>
<g clip-path="url(#clip1_79_724)">
<path d="M32.1667 56C35.3867 56 38 53.3866 38 50.1666V44.3333H32.1667C28.9467 44.3333 26.3333 46.9466 26.3333 50.1666C26.3333 53.3866 28.9467 56 32.1667 56Z" fill="#0ACF83"/>
<path d="M26.3333 38.5C26.3333 35.28 28.9467 32.6667 32.1667 32.6667H38V44.3334H32.1667C28.9467 44.3334 26.3333 41.72 26.3333 38.5Z" fill="#A259FF"/>
<path d="M26.3333 26.8333C26.3333 23.6133 28.9467 21 32.1667 21H38V32.6667H32.1667C28.9467 32.6667 26.3333 30.0533 26.3333 26.8333Z" fill="#F24E1E"/>
<path d="M38 21H43.8333C47.0533 21 49.6667 23.6133 49.6667 26.8333C49.6667 30.0533 47.0533 32.6667 43.8333 32.6667H38V21Z" fill="#FF7262"/>
<path d="M49.6667 38.5C49.6667 41.72 47.0533 44.3334 43.8333 44.3334C40.6133 44.3334 38 41.72 38 38.5C38 35.28 40.6133 32.6667 43.8333 32.6667C47.0533 32.6667 49.6667 35.28 49.6667 38.5Z" fill="#1ABCFE"/>
</g>
<defs>
<filter id="filter0_f_79_724" x="8.5" y="9" width="59" height="59" filterUnits="userSpaceOnUse" color-interpolation-filters="sRGB">
<feFlood flood-opacity="0" result="BackgroundImageFix"/>
<feBlend mode="normal" in="SourceGraphic" in2="BackgroundImageFix" result="shape"/>
<feGaussianBlur stdDeviation="6" result="effect1_foregroundBlur_79_724"/>
</filter>
<linearGradient id="paint0_linear_79_724" x1="38" y1="0" x2="38" y2="77" gradientUnits="userSpaceOnUse">
<stop stop-color="#FBFBFB"/>
<stop offset="1" stop-color="#E7E7E7"/>
</linearGradient>
<clipPath id="clip0_79_724">
<rect width="35" height="35" fill="white" transform="translate(20.5 21)"/>
</clipPath>
<clipPath id="clip1_79_724">
<rect width="35" height="35" fill="white" transform="translate(20.5 21)"/>
</clipPath>
</defs>
</svg>
