<svg width="42" height="42" viewBox="0 0 42 42" fill="none" xmlns="http://www.w3.org/2000/svg">
<g clip-path="url(#clip0_304_1311)">
<path fill-rule="evenodd" clip-rule="evenodd" d="M9.39844 28.5274V13.4848H16.7888C17.5887 13.4754 18.3817 13.634 19.1165 13.9503C19.6833 14.1822 20.1771 14.5627 20.5458 15.0517C20.9145 15.5408 21.1444 16.1202 21.2114 16.729C21.3247 17.4166 21.2647 18.1216 21.0368 18.7802C20.7843 19.4082 20.3144 19.9245 19.713 20.235L19.422 20.3951H19.5529C20.1008 20.5972 20.5843 20.9428 20.9528 21.3958C21.3214 21.8488 21.5614 22.3925 21.6478 22.97C21.853 23.9534 21.725 24.977 21.2841 25.8796C20.9899 26.514 20.5416 27.0647 19.98 27.4814C19.4184 27.8982 18.7615 28.1677 18.069 28.2655C17.4346 28.3729 16.7922 28.4264 16.1487 28.4255H9.39844V28.5274ZM12.8754 25.9087H16.1196C16.4421 25.9042 16.7635 25.8701 17.0798 25.8069C17.4362 25.7634 17.7695 25.6073 18.0311 25.3614C18.2927 25.1154 18.4691 24.7925 18.5346 24.4394C18.5732 24.1595 18.5732 23.8755 18.5346 23.5956C18.5228 23.2687 18.4103 22.9534 18.2124 22.6929C18.0144 22.4325 17.7408 22.2396 17.4289 22.1408C17.0785 22.0165 16.7096 21.9526 16.3378 21.9517H12.8754V25.9087ZM12.8754 19.4058H16.1487C16.6528 19.4232 17.1532 19.3132 17.6035 19.0857C17.758 19.0073 17.8939 18.8966 18.0018 18.7611C18.1098 18.6255 18.1873 18.4683 18.2291 18.3001C18.2886 18.0024 18.2886 17.6959 18.2291 17.3982C18.2084 17.1338 18.1042 16.8828 17.9317 16.6815C17.7591 16.4801 17.527 16.3388 17.2689 16.278C16.7942 16.1519 16.3052 16.0883 15.8141 16.0889H12.9045L12.8754 19.4058ZM33.5772 23.4647H25.7213V23.9302C25.7576 24.2323 25.841 24.5269 25.9686 24.8031C26.1307 25.1416 26.3732 25.4353 26.675 25.6584C26.9768 25.8816 27.3286 26.0275 27.6998 26.0833C28.1317 26.1723 28.5772 26.1723 29.0091 26.0833C29.3188 26.0245 29.6109 25.8956 29.863 25.7065C30.1152 25.5173 30.3207 25.273 30.4639 24.9922C30.476 24.9643 30.4965 24.9408 30.5226 24.9252C30.5487 24.9095 30.5791 24.9024 30.6094 24.9049H33.4608C33.4608 25.0504 33.4608 25.1959 33.359 25.3268C33.1848 25.8696 32.8915 26.3667 32.5006 26.7816C31.7167 27.6686 30.6351 28.2379 29.4601 28.3819C28.5246 28.5359 27.5669 28.4863 26.6523 28.2364C25.7028 27.985 24.8384 27.4824 24.1501 26.7816C23.6109 26.1957 23.2478 25.4696 23.1026 24.6867C22.7922 23.299 22.8524 21.854 23.2772 20.4969C23.5214 19.6121 24.0194 18.8182 24.7097 18.2132C25.4 17.6083 26.2523 17.2187 27.1615 17.0927C28.3581 16.8566 29.5977 16.9781 30.7258 17.4418C31.7517 17.8755 32.5808 18.6736 33.0534 19.6822C33.3659 20.3527 33.5344 21.0812 33.5481 21.8208V23.4356C33.5917 23.4065 33.5917 23.4356 33.5772 23.4647ZM30.6676 21.6025V21.297C30.6194 20.9094 30.4668 20.5421 30.2259 20.2346C29.985 19.927 29.6649 19.6908 29.3001 19.5513C28.8976 19.395 28.4641 19.3352 28.0344 19.3767C27.6233 19.3838 27.2234 19.5118 26.8845 19.7446C26.5456 19.9774 26.2827 20.3048 26.1286 20.686C26.036 20.9085 25.9582 21.137 25.8958 21.3698C25.8908 21.4618 25.8908 21.5541 25.8958 21.6462L30.6676 21.6025ZM25.183 15.8415V14.0958H31.2349V15.827L25.183 15.8415Z" fill="#4871F7"/>
</g>
<defs>
<clipPath id="clip0_304_1311">
<rect width="42" height="42" fill="white"/>
</clipPath>
</defs>
</svg>
