<svg width="42" height="42" viewBox="0 0 42 42" fill="none" xmlns="http://www.w3.org/2000/svg">
<g clip-path="url(#clip0_304_1309)">
<path d="M11.6376 17.4585H16.002V31.541H11.6376V17.4585ZM13.8634 10.4609C14.3635 10.4609 14.8523 10.609 15.2682 10.8866C15.6842 11.1641 16.0086 11.5586 16.2007 12.0203C16.3927 12.4819 16.4436 12.9902 16.3471 13.4808C16.2506 13.9714 16.011 14.4225 15.6584 14.7771C15.3059 15.1317 14.8562 15.3739 14.3661 15.4732C13.876 15.5725 13.3675 15.5245 12.9048 15.3351C12.442 15.1457 12.0456 14.8235 11.7657 14.4092C11.4858 13.9948 11.3349 13.5069 11.3321 13.0068C11.3302 12.6732 11.3942 12.3425 11.5206 12.0337C11.6469 11.7249 11.8331 11.4441 12.0683 11.2075C12.3036 10.9709 12.5833 10.7831 12.8913 10.655C13.1994 10.5269 13.5298 10.4609 13.8634 10.4609Z" fill="#4871F7"/>
<path d="M18.7958 17.4581H23.0002V19.3785C23.421 18.6602 24.029 18.0698 24.7592 17.6701C25.4895 17.2703 26.3145 17.0764 27.1463 17.109C31.5107 17.109 32.3982 20.0186 32.3982 23.8156V31.5406H28.0338V24.7321C28.0338 23.1028 28.0338 20.9933 25.7643 20.9933C23.4948 20.9933 23.1456 22.7681 23.1456 24.6012V31.5697H18.7812L18.7958 17.4581Z" fill="#4871F7"/>
</g>
<defs>
<clipPath id="clip0_304_1309">
<rect width="42" height="42" fill="white"/>
</clipPath>
</defs>
</svg>
