<svg width="38" height="38" viewBox="0 0 38 38" fill="none" xmlns="http://www.w3.org/2000/svg">
<g clip-path="url(#clip0_304_1310)">
<path d="M19.0003 6.93359C12.3373 6.93359 6.91797 12.3464 6.91797 18.9994C6.91797 25.6525 12.3373 31.0653 19.0003 31.0653C25.6616 31.0653 31.081 25.6525 31.081 18.9994C31.081 12.3464 25.6616 6.93359 19.0003 6.93359ZM26.9499 12.6273C28.3275 14.3356 29.166 16.4939 29.204 18.8439C28.7459 18.7497 26.8027 18.3875 24.4825 18.3875C23.7334 18.3875 22.9461 18.4257 22.1557 18.5231C22.0891 18.36 22.0213 18.1975 21.9523 18.0354C21.7472 17.554 21.5256 17.076 21.2974 16.6047C24.8695 15.1327 26.5926 13.0906 26.9499 12.6273ZM19.0003 8.82219C21.5735 8.82219 23.9268 9.77805 25.7245 11.3543C25.4401 11.7413 23.8971 13.671 20.4524 14.9723C18.8581 12.0571 17.1134 9.64391 16.6983 9.08515C17.4531 8.91 18.2254 8.82178 19.0003 8.82219ZM14.6162 9.81111C14.9667 10.2958 16.7147 12.735 18.3503 15.6255C13.9613 16.7783 10.0651 16.8546 9.1241 16.8546H9.02484C9.69957 13.7405 11.8032 11.1524 14.6162 9.81111ZM8.7935 19.016C8.7935 18.9316 8.7935 18.8475 8.79638 18.7644H9.06451C10.3313 18.7644 14.7286 18.6602 19.2599 17.3161C19.534 17.852 19.7937 18.3951 20.0388 18.9449C19.9243 18.9778 19.8124 19.0108 19.6998 19.0472C14.598 20.6945 11.7949 25.0572 11.3633 25.7699C9.76409 23.969 8.7935 21.604 8.7935 19.016ZM19.0003 29.2081C16.6586 29.2081 14.4988 28.4159 12.7739 27.0863C13.0667 26.5141 15.1818 22.7038 20.7731 20.7574C20.7771 20.757 20.781 20.7559 20.7846 20.754C22.1854 24.4039 22.7791 27.4667 22.9428 28.4159C21.729 28.9269 20.3977 29.2081 19.0003 29.2081ZM24.7818 27.412C24.6445 26.6265 24.0938 23.7557 22.8255 20.2546C23.5365 20.1438 24.2295 20.0991 24.8794 20.0991C27.0127 20.0991 28.6813 20.5672 29.0683 20.6846C28.6086 23.4662 27.0156 25.8707 24.7818 27.412Z" fill="#4871F7"/>
</g>
<defs>
<clipPath id="clip0_304_1310">
<rect width="38" height="38" fill="white"/>
</clipPath>
</defs>
</svg>
