<svg width="38" height="38" viewBox="0 0 38 38" fill="none" xmlns="http://www.w3.org/2000/svg">
<g clip-path="url(#clip0_304_1312)">
<path d="M13.1616 6.58203H25.0078C25.2711 6.71366 25.666 6.71366 25.9292 6.84528C27.0844 7.03249 28.1645 7.53818 29.048 8.30549C29.9316 9.07281 30.5837 10.0714 30.9309 11.1889C31.1253 11.8329 31.2576 12.494 31.3258 13.1633V24.7462C31.1376 26.2142 30.5956 27.6145 29.7463 28.8266C29.0177 29.6707 28.1043 30.3355 27.077 30.7692C26.0498 31.203 24.9363 31.394 23.8232 31.3274H13.9514C12.1897 31.4129 10.4575 30.8512 9.08128 29.7479C8.24441 29.0249 7.584 28.12 7.15054 27.1025C6.71708 26.0851 6.52207 24.9819 6.58041 23.8775V14.6638C6.55867 14.0029 6.60276 13.3415 6.71204 12.6894C6.84495 11.34 7.39979 10.0668 8.2977 9.0507C9.19562 8.03464 10.3909 7.32742 11.7138 7.02955L13.1616 6.58203ZM9.08128 19.0864V24.2197C9.02516 24.8734 9.11261 25.5315 9.33751 26.1478C9.56241 26.7642 9.91932 27.3239 10.3833 27.7878C10.8472 28.2518 11.4069 28.6087 12.0233 28.8336C12.6396 29.0585 13.2977 29.1459 13.9514 29.0898C17.3736 29.2215 20.7959 29.2215 24.2181 29.0898C27.2455 29.0898 28.9566 27.2471 29.0882 24.2197C29.2198 20.7975 29.2198 17.3752 29.0882 13.953C29.1223 13.3045 29.0197 12.656 28.787 12.0497C28.5543 11.4434 28.1968 10.8927 27.7376 10.4335C27.2784 9.97432 26.7277 9.61677 26.1214 9.38409C25.5151 9.15141 24.8666 9.04879 24.2181 9.0829C20.7959 8.95127 17.3736 8.95127 13.9514 9.0829C13.2977 9.02678 12.6396 9.11423 12.0233 9.33913C11.4069 9.56403 10.8472 9.92094 10.3833 10.3849C9.91932 10.8488 9.56241 11.4085 9.33751 12.0249C9.11261 12.6412 9.02516 13.2993 9.08128 13.953V19.0864Z" fill="#4871F7"/>
<path d="M12.6875 19.141C12.691 17.4315 13.3716 15.7931 14.5804 14.5843C15.7892 13.3755 17.4276 12.6949 19.1371 12.6914C20.8371 12.7251 22.4581 13.4154 23.6604 14.6177C24.8627 15.82 25.553 17.441 25.5867 19.141C25.5832 20.8505 24.9026 22.4889 23.6938 23.6977C22.485 24.9065 20.8466 25.5871 19.1371 25.5906C17.4371 25.5569 15.8161 24.8666 14.6138 23.6643C13.4115 22.462 12.7212 20.841 12.6875 19.141ZM19.1371 15.0606C18.3376 15.0476 17.5525 15.2737 16.8823 15.7097C16.2122 16.1458 15.6875 16.7721 15.3755 17.5083C15.0635 18.2444 14.9785 19.057 15.1313 19.8418C15.2841 20.6267 15.6677 21.348 16.2331 21.9134C16.7985 22.4788 17.5198 22.8624 18.3046 23.0152C19.0895 23.168 19.902 23.083 20.6382 22.771C21.3744 22.459 22.0007 21.9343 22.4367 21.2642C22.8728 20.594 23.0988 19.8088 23.0858 19.0094C23.0858 17.9621 22.6698 16.9577 21.9293 16.2172C21.1887 15.4767 20.1844 15.0606 19.1371 15.0606Z" fill="#4871F7"/>
<path d="M24.1377 12.4242C24.1303 12.2148 24.1661 12.0061 24.2429 11.8111C24.3197 11.6162 24.4358 11.4391 24.5839 11.291C24.7321 11.1428 24.9092 11.0267 25.1041 10.9499C25.2991 10.8732 25.5078 10.8373 25.7172 10.8447C26.1269 10.8724 26.5128 11.0477 26.8032 11.3381C27.0936 11.6286 27.2689 12.0144 27.2966 12.4242C27.2966 12.8431 27.1302 13.2448 26.834 13.5411C26.5378 13.8373 26.1361 14.0037 25.7172 14.0037C25.2982 14.0037 24.8965 13.8373 24.6003 13.5411C24.3041 13.2448 24.1377 12.8431 24.1377 12.4242Z" fill="#4871F7"/>
</g>
<defs>
<clipPath id="clip0_304_1312">
<rect width="38" height="38" fill="white"/>
</clipPath>
</defs>
</svg>
