<svg width="24" height="22" viewBox="0 0 24 22" fill="none" xmlns="http://www.w3.org/2000/svg">
<g clip-path="url(#clip0_304_1313)">
<path d="M20.8854 21.625C18.4259 21.625 15.996 21.0888 13.5955 20.0165C11.195 18.9442 9.011 17.4242 7.0434 15.4566C5.07581 13.489 3.55585 11.305 2.48351 8.90451C1.41117 6.50405 0.875 4.07407 0.875 1.61458C0.875 1.26042 0.993056 0.965278 1.22917 0.729167C1.46528 0.493056 1.76042 0.375 2.11458 0.375H6.89583C7.1713 0.375 7.41725 0.468461 7.63368 0.655382C7.85012 0.842303 7.97801 1.06366 8.01736 1.31944L8.78472 5.45139C8.82407 5.7662 8.81424 6.03183 8.75521 6.24826C8.69618 6.4647 8.58796 6.65162 8.43056 6.80903L5.56771 9.70139C5.96123 10.4294 6.42853 11.1328 6.96962 11.8116C7.51071 12.4905 8.1059 13.1447 8.75521 13.7743C9.36516 14.3843 10.0046 14.9499 10.6736 15.4714C11.3426 15.9928 12.0509 16.4699 12.7986 16.9028L15.5729 14.1285C15.75 13.9514 15.9812 13.8186 16.2665 13.73C16.5518 13.6415 16.8322 13.6169 17.1076 13.6563L21.1806 14.4826C21.456 14.5613 21.6823 14.704 21.8594 14.9106C22.0365 15.1172 22.125 15.3484 22.125 15.6042V20.3854C22.125 20.7396 22.0069 21.0347 21.7708 21.2708C21.5347 21.5069 21.2396 21.625 20.8854 21.625ZM16.8125 9.81944C16.478 9.81944 16.1976 9.70631 15.9714 9.48004C15.7451 9.25376 15.6319 8.97338 15.6319 8.63889C15.6319 8.3044 15.7451 8.02402 15.9714 7.79774C16.1976 7.57147 16.478 7.45833 16.8125 7.45833C17.147 7.45833 17.4274 7.57147 17.6536 7.79774C17.8799 8.02402 17.9931 8.3044 17.9931 8.63889C17.9931 8.97338 17.8799 9.25376 17.6536 9.48004C17.4274 9.70631 17.147 9.81944 16.8125 9.81944ZM16.8125 5.6875C16.3993 5.6875 16.0009 5.74653 15.6172 5.86458C15.2335 5.98264 14.8744 6.14988 14.5399 6.36632C14.3235 6.50405 14.0923 6.568 13.8464 6.55816C13.6004 6.54832 13.3987 6.4647 13.2413 6.30729C13.0642 6.13021 12.9806 5.92361 12.9905 5.6875C13.0003 5.45139 13.1036 5.25463 13.3003 5.09722C13.8119 4.7037 14.3678 4.40856 14.9679 4.21181C15.568 4.01505 16.1829 3.91667 16.8125 3.91667C17.4421 3.91667 18.057 4.01505 18.6571 4.21181C19.2572 4.40856 19.8131 4.7037 20.3247 5.09722C20.5214 5.25463 20.6247 5.45139 20.6346 5.6875C20.6444 5.92361 20.5608 6.13021 20.3837 6.30729C20.2263 6.4647 20.0246 6.54832 19.7786 6.55816C19.5327 6.568 19.3015 6.50405 19.0851 6.36632C18.7506 6.14988 18.3915 5.98264 18.0078 5.86458C17.6241 5.74653 17.2257 5.6875 16.8125 5.6875ZM16.8125 2.14583C15.9271 2.14583 15.0859 2.28848 14.2891 2.57378C13.4922 2.85909 12.7494 3.26736 12.0608 3.79861C11.8443 3.95602 11.6181 4.03472 11.3819 4.03472C11.1458 4.03472 10.9392 3.94618 10.7622 3.7691C10.5851 3.59201 10.4965 3.38542 10.4965 3.14931C10.4965 2.91319 10.5949 2.71644 10.7917 2.55903C11.6377 1.87037 12.5723 1.3342 13.5955 0.950521C14.6186 0.56684 15.691 0.375 16.8125 0.375C17.934 0.375 19.0064 0.56684 20.0295 0.950521C21.0527 1.3342 21.9873 1.87037 22.8333 2.55903C23.0301 2.71644 23.1285 2.91319 23.1285 3.14931C23.1285 3.38542 23.0399 3.59201 22.8628 3.7691C22.6858 3.94618 22.4742 4.0298 22.2283 4.01997C21.9823 4.01013 21.761 3.9265 21.5642 3.7691C20.8756 3.23785 20.1328 2.83449 19.3359 2.55903C18.5391 2.28356 17.6979 2.14583 16.8125 2.14583Z" fill="#4871F7"/>
</g>
<defs>
<clipPath id="clip0_304_1313">
<rect width="22.2535" height="21.25" fill="white" transform="translate(0.875 0.375)"/>
</clipPath>
</defs>
</svg>
