<svg width="137" height="132" viewBox="0 0 137 132" fill="none" xmlns="http://www.w3.org/2000/svg">
<g clip-path="url(#clip0_118_298)">
<path fill-rule="evenodd" clip-rule="evenodd" d="M132.396 196.735C135.632 196.579 134.331 190.914 134.098 188.834C131.536 181.235 132.139 172.945 131.131 164.981C130.503 157.546 129.697 150.134 129.018 142.705C127.686 127.625 118.118 96.9251 107.199 91.9878C105.823 85.9476 100.142 80.3091 92.9543 80.3091C88.0519 74.5012 82.1511 70.4138 74.5827 71.2391C71.4551 71.3815 68.422 74.7014 65.4251 75.3426C63.7471 75.5741 48.8557 74.9781 45.8727 76.7512C43.7949 77.8189 41.9192 79.7921 42.5301 82.3041C43.5049 85.3476 40.4756 82.0545 34.1562 85.3028C21.2701 93.0485 28.9703 103.411 29.3116 103.732C21.2701 114.929 14.2416 124.014 10.9895 137.7C8.88192 147.862 9.11917 158.352 7.35327 168.565C6.72976 172.106 5.77322 175.527 4.73816 178.966C3.61637 183.467 3.0709 194.684 2.45258 194.785C1.32626 195.065 3.10352 197.379 4.29698 197.381C37.3855 202.874 70.9953 197.609 104.262 196.748C113.637 196.422 123.022 196.347 132.396 196.735Z" fill="#FDFFFC"/>
<path fill-rule="evenodd" clip-rule="evenodd" d="M82.2456 104.72C82.261 104.568 82.4653 104.569 82.481 104.72L82.7146 106.977C82.9988 109.734 83.2725 112.485 83.4709 115.254C83.7182 118.708 83.8836 122.16 83.9633 125.621C84.2412 137.676 84.2965 149.737 84.3199 161.795C85.9492 161.682 87.5786 161.573 89.2089 161.468C90.315 161.396 91.4211 161.328 92.5273 161.26L95.3481 161.089V161.089L96.5094 161.018C97.2942 160.969 98.1858 160.771 98.7344 161.467C98.9541 161.746 99.0643 162.107 98.8595 162.438C98.3872 163.201 97.6617 163.174 96.8411 163.207C96.0669 163.238 95.2927 163.269 94.5185 163.299C92.8594 163.363 91.2005 163.424 89.5409 163.471C87.7993 163.52 86.0585 163.559 84.3176 163.589C84.2999 168.679 84.0895 173.763 83.862 178.848L83.759 181.136C83.4806 187.324 83.181 193.517 82.7556 199.696C82.7206 200.202 82.0055 200.201 81.9708 199.696C81.4917 192.737 81.1755 185.763 80.8621 178.795C80.6347 173.742 80.5025 168.689 80.4395 163.634C80.2093 163.636 79.9792 163.639 79.7492 163.64C73.2148 163.668 66.6822 163.697 60.1478 163.635C60.1587 163.648 60.1694 163.661 60.1766 163.678C60.6494 164.795 60.6945 166.221 60.6829 167.42C60.6697 168.795 60.4847 170.154 60.1682 171.491C59.0345 176.281 56.1102 180.572 52.7796 184.12L52.6708 184.235C51.8852 185.066 50.9839 185.9 50.5016 186.959C50.0089 188.039 49.8378 189.303 49.5947 190.464L49.5663 190.597L48.6156 194.992C48.3136 196.388 48.2279 198.424 47.1238 199.431C46.0938 200.371 44.7292 199.88 44.2445 198.67C43.8659 197.726 44.243 196.689 44.4672 195.745L46.2237 188.355C46.5123 187.15 46.8277 185.937 47.4506 184.854C48.0887 183.745 49.0242 182.942 49.9787 182.119C51.7861 180.562 53.4454 178.779 54.8486 176.848C56.2513 174.919 57.4502 172.791 58.2908 170.555C58.7117 169.435 59.0567 168.272 59.2946 167.099C59.5208 165.986 59.5188 164.834 59.7607 163.733C59.7773 163.657 59.8414 163.605 59.9149 163.581C59.8975 163.532 59.9241 163.466 59.9928 163.462L65.3368 163.118C70.0871 162.811 74.8372 162.497 79.5833 162.137L80.4219 162.077V162.077C80.3568 155.333 80.4121 148.587 80.5338 141.841C80.6453 135.654 80.6476 129.466 80.8315 123.281C80.9229 120.21 81.12 117.148 81.3393 114.084C81.5636 110.951 81.9228 107.844 82.2456 104.72ZM32.0677 140.591C32.0107 140.248 32.4426 140.035 32.6416 140.349C34.9172 143.939 36.0144 147.838 36.4768 152.039C36.8853 155.746 36.765 159.507 36.5615 163.225C36.3445 167.189 36.0914 171.153 35.8354 175.116L35.4421 181.192V181.192L34.4551 196.426C34.3844 197.516 34.1373 198.506 33.1998 199.013C33.0811 199.112 32.9574 199.201 32.8132 199.278C32.3068 199.549 31.635 199.412 31.3422 198.892L31.4596 198.97C31.5619 199.034 31.447 198.944 31.115 198.7L30.8332 198.335V198.335C30.6284 198.027 30.4977 197.724 30.4451 197.358C30.3634 196.789 30.4692 196.165 30.5064 195.593L31.1533 185.604V185.604C31.6565 177.838 32.244 170.075 32.6868 162.305C32.8931 158.684 33.0376 155.059 32.9398 151.431C32.8424 147.824 32.6587 144.155 32.0677 140.591ZM51.7533 73.7209L51.8796 73.6997C56.3994 72.9483 61.3142 73.0889 65.4449 75.2695C65.479 75.2874 65.4635 75.3442 65.4251 75.3426L64.0956 75.2894C59.8865 75.1245 55.6905 75.0268 51.5519 76.0165L51.1282 76.1187C49.6378 76.4826 48.0814 76.9279 46.8842 77.9131C45.74 78.8549 45.1702 80.3075 44.6224 81.6449L44.5491 81.8214C43.9933 83.1423 43.2898 84.395 42.0714 85.2209C40.4934 86.2905 38.5955 86.1595 36.7861 86.3048C33.6002 86.561 30.9955 88.8718 29.6996 91.6995C28.9148 93.4118 28.5801 95.3315 28.5138 97.2039C28.4798 98.1572 28.475 99.1478 28.6019 100.095C28.6424 100.398 29.0164 101.501 29.2072 101.474C29.6309 101.415 30.0184 101.637 30.1505 101.976C31.1972 100.963 32.2742 99.9804 33.3857 99.0328C36.1566 96.6712 39.141 94.5308 42.2841 92.6916C44.6829 91.2877 47.2131 89.8968 49.8332 88.8453C49.6256 88.8409 49.4208 88.8822 49.2228 88.9852C49.136 89.0306 49.0498 88.9217 49.1183 88.8497C49.9436 87.9806 50.9321 87.857 51.9286 88.0887C52.1413 88.021 52.3541 87.9555 52.5677 87.8933C52.674 87.8623 52.7269 88.009 52.6402 88.0656L52.3954 88.2221V88.2221C53.4826 88.5866 54.5499 89.3029 55.395 89.8683C57.8224 91.4919 59.959 93.4768 62.1249 95.4245L62.5187 95.7776C64.4251 97.4812 66.3802 99.1368 68.5462 100.504C69.6801 101.219 70.871 101.881 72.1202 102.373C73.1916 102.795 74.9361 103.061 75.4379 104.195C75.8839 104.737 75.6975 105.429 75.1752 105.794C74.2941 106.764 72.5317 106.137 71.482 105.733C70.2163 105.246 68.9902 104.66 67.8209 103.973C65.5507 102.639 63.4575 100.981 61.5076 99.2168C59.4711 97.3742 57.5501 95.4168 55.5694 93.5164C54.7112 92.6929 53.8728 91.8501 53.0133 91.0279L52.5816 90.6187C52.1429 90.207 51.5179 89.5652 50.8497 89.1768C49.5908 89.9283 48.3124 90.6489 47.0649 91.4199C45.3234 92.496 43.6332 93.6497 41.9691 94.8415C38.7655 97.1357 35.7296 99.7053 32.9112 102.459C27.7423 107.51 23.3385 113.278 19.4914 119.386L19.1993 119.851C17.0132 123.347 14.9458 126.955 13.48 130.818C11.8671 135.068 11.0827 139.538 10.6566 144.049C10.2336 148.529 10.091 153.031 9.61833 157.506C9.13361 162.096 8.17858 166.585 7.09229 171.065L6.83321 172.127C5.85028 176.14 4.83577 180.152 4.3305 184.259C4.06077 186.453 3.89853 188.677 3.9352 190.889C3.97203 193.113 4.32129 195.288 4.60308 197.489C4.71107 198.333 3.88195 199.036 3.14006 199.148C2.28683 199.276 1.55382 198.732 1.28861 197.938C0.461828 195.465 0.311642 192.732 0.337594 190.136C0.363713 187.501 0.699748 184.883 1.17257 182.294C2.10249 177.2 3.53755 172.212 4.73803 167.179C5.79603 162.743 6.50611 158.299 6.88886 153.755C7.28617 149.04 7.52409 144.309 8.2489 139.629C8.96434 135.008 10.3105 130.594 12.3406 126.38C14.189 122.544 16.4932 118.933 18.9089 115.433C21.8425 111.183 25.0644 107.138 28.6658 103.453C28.3424 103.439 28.0102 103.335 27.7051 103.144C26.7719 102.562 26.3372 101.422 26.2036 100.382C25.8908 97.9473 25.9663 95.4059 26.5919 93.0259C27.601 89.1865 30.2199 85.7751 34.0156 84.3911C34.9926 84.0348 36.0312 83.9048 37.0666 83.8792C38.049 83.8547 39.1221 83.9829 40.0701 83.6712C41.5791 83.1748 42.2259 81.3962 42.7924 80.0479L42.8185 79.986C43.545 78.2679 44.417 76.7952 45.9905 75.7225C47.6693 74.5777 49.7727 74.057 51.7533 73.7209V73.7209ZM94.6991 80.5156C96.0573 80.044 97.7554 80.472 99.0836 80.8839C100.563 81.343 101.931 82.1886 103.103 83.1929C104.34 84.2519 105.362 85.5596 106.084 87.0205L106.153 87.1613C106.813 88.5164 107.564 90.3768 107.231 91.8655C107.222 91.9078 107.211 91.9485 107.199 91.9879C109.893 93.3155 112.382 94.9785 114.549 97.0862C117.073 99.5403 119.21 102.333 121.018 105.35C128.2 117.332 129.464 131.723 130.312 145.389L130.524 148.854C130.984 156.335 131.523 163.8 132.923 171.178L133.025 171.711C134.522 179.436 136.664 187.221 136.447 195.146C136.382 197.52 132.876 197.504 132.774 195.146C132.391 186.269 130.322 177.699 128.92 168.961C126.454 153.587 127.69 137.739 124.195 122.519C122.824 116.547 120.7 110.753 117.666 105.422C116.168 102.788 114.454 100.243 112.446 97.9713C110.718 96.0163 108.922 94.1348 106.903 92.4912C106.258 93.1381 104.969 92.8084 104.632 91.8655C104.401 91.2175 104.468 90.4599 104.32 89.7811C104.182 89.1512 103.992 88.5267 103.739 87.9335C103.234 86.7512 102.493 85.616 101.638 84.6591C100.714 83.6249 99.6527 82.7656 98.4648 82.0561C97.2686 81.3417 95.9605 81.1284 94.6991 80.6064C94.6565 80.5888 94.6525 80.5318 94.6991 80.5156ZM99.9759 162.675C99.9779 162.613 100.051 162.583 100.097 162.625C100.573 163.063 100.861 163.693 101.211 164.232C101.615 164.854 102.04 165.464 102.485 166.057C103.376 167.246 104.369 168.367 105.37 169.465C106.3 170.486 107.292 171.464 108.321 172.386C109.436 173.385 110.685 174.277 111.698 175.383C113.811 177.692 114.153 180.86 114.598 183.835L114.647 184.157C114.919 185.922 115.163 187.692 115.382 189.465C115.489 190.327 115.596 191.191 115.683 192.055L115.709 192.329C115.787 193.175 115.808 194.034 115.322 194.773C114.802 195.565 113.621 195.842 112.918 195.083C111.71 193.78 111.937 191.465 111.78 189.789C111.65 188.402 111.503 187.018 111.338 185.635L111.254 184.944C111.06 183.371 110.902 181.767 110.543 180.222C110.226 178.861 109.622 177.833 108.631 176.847C107.633 175.854 106.596 174.927 105.674 173.857C104.697 172.723 103.815 171.506 103.021 170.237C102.342 169.151 101.797 167.969 101.298 166.789L101.216 166.592C100.733 165.441 99.9382 163.943 99.9759 162.675ZM117.408 113.234C117.418 113.073 117.655 113.071 117.659 113.234C117.689 114.615 117.717 115.996 117.746 117.376C117.977 128.504 117.835 139.657 118.95 150.746C119.476 155.974 120.445 161.126 121.566 166.256C122.139 168.881 122.741 171.5 123.313 174.125C123.87 176.683 124.468 179.255 124.91 181.837C125.344 184.375 125.733 186.933 125.908 189.503L125.929 189.839C126.004 191.084 126.363 192.916 125.678 194.019C124.936 195.215 123.514 195.237 122.719 194.095C121.972 193.024 122.158 191.117 122.026 189.839C121.892 188.536 121.75 187.233 121.589 185.933C121.274 183.398 120.86 180.869 120.43 178.352C119.533 173.109 118.232 167.932 117.272 162.697C116.287 157.333 115.588 151.931 115.558 146.47C115.529 140.962 116.112 135.466 116.406 129.97C116.704 124.389 117.044 118.811 117.408 113.234ZM64.8876 78.6248C65.1861 77.6189 66.2396 76.99 67.2673 77.2725C68.2091 77.5316 68.9866 78.6756 68.6185 79.6544C68.2166 80.7225 67.5144 81.6332 66.9224 82.604C66.3755 83.501 65.5779 84.2073 65.0208 85.0884L65.6347 85.7507C65.9418 86.0811 66.2498 86.4095 66.5612 86.7323L67.6319 87.8422C68.4657 88.7048 69.3048 89.5628 70.1675 90.3955C72.7045 92.8446 75.2816 95.2132 78.1227 97.3105C78.7695 97.7878 79.4213 98.2623 80.0914 98.7067L80.3412 98.8724C80.8009 99.1737 81.3138 99.4698 81.8692 99.4188C83.2186 99.2947 84.4378 97.8605 85.3651 96.9677L85.4137 96.9213C87.7117 94.733 89.8396 92.3404 91.6999 89.7678C92.113 89.1962 92.513 88.6149 92.9024 88.0268C92.003 86.9752 92.2178 84.9227 92.1682 83.6474C92.1332 82.7508 92.1305 81.8539 92.1257 80.9566L92.1232 80.7756C92.1123 80.1948 92.0861 79.6378 92.4627 79.1599C92.4847 79.1322 92.53 79.1331 92.558 79.1476C93.0738 79.4182 93.2328 79.8711 93.4528 80.3792L93.4758 80.4319C93.7437 81.0417 94.0002 81.6572 94.2598 82.2705C94.5315 82.9126 94.7806 83.5642 95.0331 84.214C95.1507 84.5163 95.2628 84.8198 95.3725 85.1249C95.4393 85.3198 95.5085 85.5137 95.5795 85.7072L95.5962 85.7221C95.69 85.8017 95.7695 85.8859 95.838 85.9727C96.1258 86.1168 96.3545 86.3794 96.4618 86.7651C96.6954 87.6048 96.212 88.2895 95.7809 88.9559C94.0295 91.6639 92.0331 94.2443 89.814 96.5851C88.7116 97.7481 87.5521 98.8587 86.3449 99.9123L86.1339 100.095C85.0495 101.028 83.8721 101.911 82.4239 102.13C80.729 102.385 79.3497 101.541 78.0523 100.57L77.9228 100.472C76.6928 99.5401 75.4877 98.5755 74.32 97.5666C71.9393 95.5095 69.6744 93.3007 67.6644 90.8775C65.7092 88.5204 63.7765 85.8849 62.5713 83.0487C62.4978 82.8759 62.691 82.6951 62.8424 82.8394C63.4311 83.4003 63.9975 83.9916 64.5572 84.5905C64.5728 83.7089 64.4102 82.8198 64.5006 81.9327C64.611 80.8544 64.5792 79.6631 64.8876 78.6248Z" fill="#262626"/>
<path fill-rule="evenodd" clip-rule="evenodd" d="M67.3194 5.61493C77.588 0.953099 89.2347 -0.814779 100.436 0.344815C105.965 0.916267 111.421 2.14228 116.613 4.1338L117.068 4.30983C118.35 4.80355 119.731 5.29362 120.705 6.29862C121.839 7.4666 122.157 9.2328 121.346 10.6756C120.717 11.7966 119.585 12.6008 118.378 13.03C118.803 13.3785 119.207 13.7673 119.585 14.2013C120.223 14.9285 120.272 15.9656 119.585 16.683C118.262 18.0655 116.546 19.0657 114.698 19.5451C114.905 20.5489 114.793 21.6599 114.348 22.6603C113.07 25.5319 109.47 25.8742 106.7 25.7037L106.616 25.6984L106.462 27.4629C106.38 28.403 105.817 29.1319 104.863 29.276C104.829 29.281 104.796 29.2844 104.762 29.2876C106.273 34.7539 107.185 40.3892 108.027 45.9912C108.467 48.9155 108.861 51.8466 109.238 54.7796L109.363 55.7573C109.765 58.9194 110.267 62.1133 110.442 65.2988C110.597 68.1894 110.046 70.9493 108.267 73.2819C106.669 75.3732 104.491 76.94 102.149 78.1029C96.8562 80.732 91.2858 82.6894 85.4324 83.5976L85.042 83.6577C82.7826 84.0029 80.4546 84.2938 78.2194 83.668C76.2556 83.1183 74.196 81.7007 74.6397 79.4234C74.7887 78.6542 75.8637 78.6207 76.232 79.2156L76.317 79.3519C76.7587 80.0533 77.2428 80.7052 78.0136 81.0671C78.9159 81.4929 79.9624 81.6117 80.9485 81.6236C83.7028 81.6554 86.5709 80.9684 89.223 80.2797C94.1756 78.9929 99.2622 76.8947 103.319 73.7159C105.045 72.3653 106.432 70.6762 106.921 68.5028C107.525 65.8233 106.969 62.8942 106.695 60.2013C106.129 54.6447 105.457 49.0985 104.747 43.5584L104.605 42.4505C104.007 37.8188 103.38 33.1854 103.081 28.527C102.957 28.3577 102.874 28.165 102.84 27.9539L102.794 27.6506C102.753 27.3908 102.746 27.1529 102.775 26.9334C102.777 26.0921 102.8 25.256 102.849 24.4146C102.857 24.2639 102.864 24.1131 102.869 23.964C101.995 24.1567 101.114 24.3125 100.23 24.4449C94.0149 25.3816 87.7027 25.6162 81.4374 25.1504C78.3115 24.9173 75.2092 24.517 72.1165 24.0159C70.5425 23.7612 68.9738 23.4797 67.41 23.1647C66.2799 22.9385 65.1731 22.6318 64.0614 22.3436C62.9145 24.0143 62.295 26.0704 62.4155 28.0896C62.5512 30.3937 64.0848 32.4833 63.6545 34.8377C63.2507 37.0411 61.3645 37.7243 59.5024 38.27L58.7103 38.499C58.101 38.677 57.6586 38.8488 57.5483 39.5816C57.3591 40.8401 57.5918 42.2561 57.6404 43.5212C57.699 45.0177 57.7758 46.5141 57.8112 48.0105C57.8296 48.7847 57.8596 49.5622 57.8581 50.3364C57.8564 50.886 57.7743 51.2614 57.5617 51.6164C57.7258 51.8227 57.873 52.0456 58.0037 52.2819C58.0456 52.359 57.9418 52.4409 57.88 52.3774C57.7141 52.2048 57.5381 52.0489 57.3524 51.9097C57.2587 52.0255 57.1498 52.1428 57.0224 52.2685L57.0125 52.2551C56.614 52.6522 55.9811 52.6907 55.4871 52.2685L55.3574 52.156C54.9958 51.8388 54.7473 51.5745 54.6467 51.0502C54.6417 51.0234 54.6365 50.9966 54.6333 50.9698C53.7141 50.9379 52.7799 51.1556 51.9527 51.6133C50.6418 52.3388 49.7192 53.3728 49.1735 54.6497C49.391 54.9044 49.6455 55.1323 49.9419 55.3233C49.9837 55.3518 49.9469 55.4138 49.9017 55.392C49.5987 55.2496 49.3274 55.0736 49.0846 54.8675C48.8887 55.3702 48.7515 55.9098 48.6677 56.4812C48.3731 58.4988 48.8988 60.9637 50.7204 62.1133C51.5091 62.611 52.4098 62.8808 53.3441 62.8841C53.7993 62.8856 54.193 62.8087 54.635 62.6998C54.9347 62.626 55.2327 62.5188 55.5458 62.5188C55.8137 62.5188 56.0615 62.5858 56.2909 62.7199L56.2273 62.7255C56.0727 62.74 56.1024 62.7465 56.3177 62.7465C56.9874 62.7752 57.3707 63.4555 57.0628 64.0471L57.0224 64.1384C57.0139 64.1569 57.0066 64.1722 57.001 64.1843L56.9766 64.3412C56.9742 64.3561 56.9717 64.3715 56.969 64.3872L56.9597 64.419C56.958 64.4241 56.9562 64.4291 56.9539 64.4341L57.9584 65.9671C59.1899 67.8425 60.4488 69.7106 61.8814 71.4235C62.886 72.625 63.9509 73.8031 65.076 74.8939C66.0873 75.8742 67.2995 76.3468 68.4448 77.1176C69.0561 77.5265 69.235 78.3828 68.6793 78.9341C67.0484 80.5545 64.7395 79.2676 63.4017 77.9504C62.1359 76.702 61.0426 75.2006 60.1 73.6975C58.4273 71.0247 57.0962 68.1827 56.5136 65.0977C56.2708 65.3206 55.9611 65.4597 55.648 65.5686C55.0201 65.7864 54.3286 65.8769 53.6656 65.9004C52.3948 65.9423 51.1223 65.634 49.9787 65.0877C45.3258 62.8674 44.6427 56.2181 47.4873 52.2969C47.1038 51.1837 46.8895 49.9757 46.6568 48.9457L46.5509 48.4852C45.3744 43.342 44.5848 37.9269 46.6703 32.8872C46.9382 32.237 47.2395 31.6036 47.5962 30.997C47.8825 30.5093 48.3747 29.9899 48.5104 29.4352C48.8117 28.217 46.9516 26.9367 46.4091 25.9698C45.7712 24.8354 45.6808 23.4965 46.5497 22.459C46.6602 22.3285 46.7806 22.2077 46.9114 22.1023C46.0876 20.6075 46.0491 18.7274 47.1341 17.2528C47.8473 16.2808 48.9356 15.6005 50.1244 15.3944C50.851 15.2687 51.725 15.3156 52.5237 15.5402C56.8968 11.4766 61.8865 8.08158 67.3194 5.61493ZM50.5261 56.4611C51.6933 55.4305 52.9825 54.891 54.5731 55.0267C56.1721 55.1639 58.0975 55.826 59.0367 57.1984C59.7786 58.2826 58.2666 59.8729 57.1783 59.0585C56.1871 58.3161 55.5256 57.4783 54.2952 57.0794C53.1899 56.7225 51.822 56.4929 50.6651 56.6974C50.5378 56.7192 50.4108 56.5617 50.5261 56.4611Z" fill="#262626"/>
<path fill-rule="evenodd" clip-rule="evenodd" d="M99.2535 39.377C103.183 39.377 105.426 40.2228 106.248 40.2887L106.273 40.2905C106.614 40.3123 106.921 40.3409 107.243 40.4654C108.426 40.9214 108.619 42.1632 107.928 42.9458C107.88 44.5652 108.093 46.4573 107.727 48.0819C107.277 54.9307 104.059 56.0864 102.23 56.5083C101.311 56.7201 100.223 56.8044 99.2471 56.5808C97.5829 56.5187 95.9376 55.9973 94.5299 55.0893C92.5694 53.8238 91.1133 51.8787 90.6407 49.5703C90.4168 48.47 90.3121 47.3247 90.434 46.2062L90.4521 46.0521C89.8148 45.747 89.0764 45.6893 88.3151 45.6624C87.9515 45.6494 87.5931 45.6378 87.2449 45.6533C86.9046 45.6913 86.5683 45.742 86.231 45.811C85.8627 45.9222 85.5148 46.1058 85.1936 46.3965L85.1715 46.8209C85.1112 47.8809 84.9721 48.9442 84.7576 49.9842C84.4409 51.5188 83.9315 52.9844 82.8474 54.0728C82.4804 54.6214 82.0263 55.111 81.475 55.5351C79.4725 57.0782 76.7518 57.6447 74.2548 57.4314C69.1855 56.9984 66.2553 52.9709 65.58 51.2494L65.5397 51.1451C65.0519 49.8653 64.6631 48.2047 63.1217 47.9297L62.7939 47.8708C62.0905 47.7387 61.4415 47.5547 61.029 46.8678C60.8482 46.568 60.7552 46.2326 60.7324 45.8907C60.4918 45.9092 60.2515 45.9269 60.0121 45.9441C58.102 46.3484 46.645 46.6912 45.7305 46.6912C45.7305 46.6912 43.9727 47.4317 43.2305 46.8579C42.7161 46.459 42.5468 45.9273 42.83 45.3249C43.2573 44.4185 45.2286 43.8734 46.1039 43.7008C46.1039 43.7008 60.2292 43.8182 61.2459 43.6252C61.8749 42.9761 63.0001 43.0649 63.9403 42.9623C64.7186 42.4069 65.8074 42.0348 66.6675 41.7858C66.8428 41.7193 67.0164 41.6551 67.1851 41.5945C68.7619 41.0325 70.4008 40.7348 72.0647 40.575C73.7806 40.4118 75.5014 40.4856 77.2072 40.7195C77.9261 40.8171 78.6382 40.9433 79.3453 41.1084C80.6115 41.2754 81.8702 41.5506 83.1369 41.877L83.3903 41.943C84.7241 42.2929 86.0947 42.5957 87.4755 42.3584C88.5995 42.1665 89.6805 41.7335 90.7169 41.2654L90.8519 41.2041C93.1307 40.1627 96.6896 39.377 99.2535 39.377ZM79.2083 43.1846C78.3674 42.9995 78.0083 44.297 78.8518 44.4825C79.4492 44.614 79.9554 44.9154 80.2974 45.4262L80.3334 45.4817C80.7924 46.2126 81.9529 45.5379 81.4908 44.8022C80.9708 43.9744 80.1629 43.3946 79.2083 43.1846ZM103.835 42.3801C103.539 42.1711 103.09 42.3263 102.918 42.6216C102.729 42.9467 102.853 43.3088 103.13 43.5215L103.159 43.5423C103.413 43.7219 103.661 44.0439 103.692 44.3738L103.695 44.4151C103.729 45.2784 105.069 45.2828 105.036 44.4151C105.003 43.5662 104.512 42.857 103.835 42.3801Z" fill="#262626"/>
<path fill-rule="evenodd" clip-rule="evenodd" d="M87.793 72.0422L88.1498 71.9471C89.4275 71.5982 90.7535 71.0443 91.9736 71.8034C92.4142 72.0775 92.4806 72.6604 92.1324 73.0377C91.144 74.108 89.6851 73.9003 88.3485 73.9111L88.2829 73.9118C86.9381 73.9304 85.6034 73.8632 84.2725 73.6699C84.0971 73.6444 84.0625 73.3522 84.2219 73.2821C85.3806 72.7729 86.5724 72.3714 87.793 72.0422V72.0422ZM89.9608 52.4734C91.2238 53.2429 93.1483 55.0373 91.7896 56.9451C90.1902 58.6272 87.8875 56.6985 86.7528 55.8263C85.7006 55.1503 84.5184 56.8889 85.4946 57.6783C93.6943 63.7633 97.0218 52.6746 90.5996 51.5686C89.8925 51.4467 89.6299 52.2353 89.9608 52.4734ZM98.7422 42.3536C100.78 42.291 100.782 45.5356 98.7422 45.5269C98.1334 45.5242 97.5246 45.524 96.9158 45.5227C97.2695 46.8155 97.0675 48.357 96.4285 49.4429C96.0071 50.1596 94.9983 50.2899 94.4091 49.7038C93.3918 48.6918 93.1913 47.212 93.5507 45.8701L93.4768 45.6945V45.6945C93.4527 45.637 93.4355 45.5789 93.4214 45.5203C91.4536 45.522 89.4857 45.5268 87.5179 45.53L84.5661 45.5331C82.6496 45.5338 80.7324 45.5494 78.8157 45.5314C78.8393 45.5671 78.8629 45.6027 78.8821 45.6434C79.0017 45.8957 79.0524 46.2143 79.0901 46.487C79.1543 46.9551 79.1466 47.4593 79.073 47.9255C79.0193 48.2662 78.9206 48.6719 78.7314 48.9929L78.7303 48.9996V48.9996C78.6411 49.3806 78.5286 49.7452 78.2347 50.02C78.1464 50.1023 78.0602 50.161 77.9693 50.2026C77.7975 50.3828 77.5764 50.502 77.2858 50.5057C77.1316 50.5075 76.9625 50.4624 76.7986 50.3984C76.5466 50.4195 76.2863 50.3052 76.0633 50.2039C75.8845 50.1226 75.7205 50.0146 75.5882 49.8738C75.5261 49.859 75.4636 49.8347 75.401 49.796C75.0176 49.5596 74.8711 49.0858 74.8512 48.658C74.8499 48.632 74.8509 48.6047 74.8501 48.5783C74.8358 48.5203 74.8231 48.462 74.8134 48.4033C74.686 47.643 74.8409 46.7868 75.0031 46.048C75.0439 45.863 75.0775 45.6483 75.1275 45.4405C74.745 45.4256 74.3628 45.4109 73.9803 45.3951C73.0223 45.3559 71.853 45.4845 70.9666 45.0786C70.9021 45.0492 70.9195 44.9631 70.9666 44.9294C71.7849 44.3431 73.0563 44.2482 74.0417 44.0551L74.1255 44.0383C75.3006 43.7967 76.4751 43.5935 77.6622 43.42C79.9471 43.086 82.2613 42.9063 84.5661 42.7769C89.2849 42.512 94.0185 42.4982 98.7422 42.3536Z" fill="#262626"/>
</g>
<defs>
<clipPath id="clip0_118_298">
<rect width="137" height="132" fill="white"/>
</clipPath>
</defs>
</svg>
