<svg width="137" height="133" viewBox="0 0 137 133" fill="none" xmlns="http://www.w3.org/2000/svg">
<g clip-path="url(#clip0_86_96)">
<path fill-rule="evenodd" clip-rule="evenodd" d="M132.513 197.094C135.755 196.937 134.451 191.262 134.218 189.178C131.651 181.566 132.255 173.261 131.245 165.282C130.617 157.834 129.809 150.408 129.129 142.966C127.794 127.858 118.208 97.102 107.269 92.1557C105.891 86.1044 100.2 80.4556 92.999 80.4556C88.0876 74.6372 82.1761 70.5423 74.5939 71.3691C71.4605 71.5118 68.4218 74.8378 65.4195 75.4801C63.7385 75.7121 48.8199 75.1149 45.8315 76.8912C43.7499 77.9609 41.8707 79.9377 42.4828 82.4543C43.4593 85.5033 40.4245 82.2042 34.0936 85.4585C21.184 93.2183 28.8982 103.599 29.2401 103.921C21.184 115.139 14.1426 124.24 10.8846 137.952C8.77315 148.132 9.01084 158.641 7.24171 168.873C6.61706 172.421 5.65878 175.847 4.62183 179.292C3.49799 183.801 2.95153 195.04 2.33208 195.14C1.20371 195.421 2.98421 197.739 4.17984 197.741C37.3287 203.244 70.9999 197.969 104.327 197.107C113.719 196.781 123.121 196.705 132.513 197.094Z" fill="#FDFFFC"/>
<path fill-rule="evenodd" clip-rule="evenodd" d="M82.2707 104.911C82.2862 104.759 82.4908 104.759 82.5066 104.911L82.7406 107.172C83.0254 109.934 83.2995 112.69 83.4982 115.464C83.746 118.924 83.9117 122.383 83.9916 125.851C84.27 137.927 84.3253 150.01 84.3488 162.09C85.9811 161.977 87.6135 161.868 89.2468 161.762C90.3548 161.691 91.463 161.622 92.5712 161.554L95.3972 161.383V161.383L96.5606 161.311C97.3468 161.263 98.24 161.065 98.7897 161.762C99.0097 162.041 99.1201 162.403 98.915 162.734C98.4418 163.498 97.715 163.472 96.8929 163.505C96.1173 163.536 95.3416 163.567 94.566 163.597C92.9039 163.661 91.242 163.722 89.5794 163.769C87.8346 163.818 86.0906 163.858 84.3465 163.888C84.3288 168.987 84.118 174.08 83.8901 179.174L83.7869 181.467C83.508 187.666 83.2079 193.87 82.7817 200.061C82.7466 200.568 82.0302 200.567 81.9955 200.061C81.5154 193.089 81.1987 186.102 80.8847 179.121C80.6569 174.059 80.5244 168.996 80.4614 163.933C80.2307 163.934 80.0002 163.937 79.7698 163.938C73.2235 163.967 66.6789 163.995 60.1326 163.934C60.1435 163.947 60.1543 163.96 60.1615 163.977C60.6352 165.096 60.6803 166.524 60.6687 167.726C60.6555 169.103 60.4701 170.464 60.1531 171.804C59.0173 176.603 56.0876 180.902 52.7509 184.455L52.642 184.571C51.855 185.403 50.952 186.24 50.4688 187.3C49.9752 188.382 49.8038 189.648 49.5603 190.811L49.5318 190.945L48.5794 195.348C48.2768 196.746 48.1909 198.786 47.0849 199.795C46.0529 200.736 44.6859 200.245 44.2003 199.033C43.821 198.087 44.1988 197.048 44.4234 196.102L46.1831 188.699C46.4723 187.491 46.7882 186.276 47.4123 185.192C48.0515 184.081 48.9887 183.275 49.9449 182.451C51.7557 180.891 53.4179 179.105 54.8237 177.171C56.229 175.238 57.43 173.107 58.2723 170.866C58.6939 169.744 59.0395 168.579 59.2778 167.404C59.5044 166.289 59.5024 165.134 59.7448 164.031C59.7614 163.955 59.8257 163.903 59.8993 163.88C59.8819 163.831 59.9085 163.764 59.9773 163.76L65.3311 163.416C70.0901 163.108 74.8488 162.793 79.6035 162.433L80.4437 162.372V162.372C80.3785 155.616 80.4338 148.859 80.5558 142.1C80.6675 135.902 80.6699 129.702 80.854 123.505C80.9456 120.43 81.143 117.361 81.3628 114.292C81.5875 111.153 81.9473 108.041 82.2707 104.911ZM32.0013 140.848C31.9442 140.504 32.3768 140.29 32.5763 140.605C34.856 144.201 35.9551 148.108 36.4184 152.316C36.8277 156.03 36.7071 159.798 36.5033 163.522C36.2859 167.494 36.0323 171.465 35.7758 175.435L35.3818 181.523V181.523L34.393 196.784C34.3222 197.876 34.0746 198.869 33.1355 199.376C33.0166 199.476 32.8926 199.565 32.7482 199.642C32.2408 199.913 31.5678 199.776 31.2744 199.255L31.3921 199.333C31.4945 199.397 31.3795 199.307 31.0468 199.062L30.7645 198.697V198.697C30.5594 198.388 30.4284 198.085 30.3757 197.718C30.2939 197.148 30.3999 196.523 30.4371 195.95L31.0852 185.943V185.943C31.5893 178.163 32.1779 170.385 32.6215 162.601C32.8282 158.973 32.973 155.342 32.875 151.708C32.7774 148.094 32.5934 144.418 32.0013 140.848ZM51.7227 73.8554L51.8492 73.8342C56.3773 73.0814 61.301 73.2223 65.4393 75.4069C65.4735 75.4248 65.4579 75.4817 65.4195 75.48L64.0875 75.4268C59.8708 75.2615 55.6671 75.1637 51.521 76.1552L51.0965 76.2576C49.6034 76.6221 48.0441 77.0683 46.8448 78.0553C45.6985 78.9988 45.1277 80.4541 44.5788 81.7939L44.5054 81.9707C43.9486 83.294 43.2437 84.5489 42.0232 85.3764C40.4423 86.448 38.541 86.3167 36.7282 86.4622C33.5365 86.7189 30.927 89.0339 29.6288 91.8669C28.8426 93.5822 28.5073 95.5054 28.4408 97.3813C28.4068 98.3363 28.4019 99.3287 28.5291 100.277C28.5697 100.581 28.9444 101.686 29.1354 101.659C29.56 101.6 29.9481 101.822 30.0805 102.162C31.1292 101.148 32.2081 100.163 33.3217 99.2135C36.0975 96.8476 39.0875 94.7033 42.2362 92.8607C44.6394 91.4542 47.1742 90.0608 49.7991 89.0074C49.5912 89.0031 49.386 89.0444 49.1876 89.1476C49.1007 89.1931 49.0143 89.084 49.0829 89.0118C49.9097 88.1412 50.9 88.0173 51.8984 88.2495C52.1114 88.1816 52.3246 88.116 52.5386 88.0537C52.6451 88.0227 52.6981 88.1695 52.6113 88.2263L52.366 88.3831V88.3831C53.4551 88.7482 54.5245 89.4659 55.371 90.0323C57.8029 91.6589 59.9434 93.6474 62.1132 95.5986L62.5077 95.9523C64.4177 97.6591 66.3763 99.3177 68.5463 100.687C69.6822 101.404 70.8753 102.067 72.1268 102.56C73.2001 102.983 74.9478 103.249 75.4505 104.385C75.8974 104.928 75.7107 105.621 75.1873 105.987C74.3047 106.959 72.5391 106.331 71.4874 105.926C70.2195 105.438 68.9911 104.851 67.8196 104.163C65.5453 102.827 63.4483 101.165 61.4948 99.3978C59.4546 97.5519 57.5302 95.5909 55.5458 93.687C54.686 92.862 53.8461 92.0177 52.985 91.194L52.5526 90.7841C52.1131 90.3716 51.4869 89.7286 50.8175 89.3395C49.5563 90.0924 48.2756 90.8143 47.0258 91.5867C45.2811 92.6648 43.5878 93.8206 41.9207 95.0146C38.7112 97.313 35.6698 99.8872 32.8463 102.646C27.6679 107.707 23.2561 113.485 19.402 119.603L19.1093 120.07C16.9192 123.572 14.8481 127.187 13.3796 131.056C11.7638 135.314 10.9779 139.792 10.551 144.312C10.1273 148.8 9.9844 153.31 9.51088 157.794C9.02528 162.392 8.0685 166.889 6.98023 171.377L6.72068 172.441C5.73596 176.461 4.71959 180.481 4.2134 184.595C3.94318 186.793 3.78064 189.021 3.81738 191.237C3.85428 193.465 4.20418 195.645 4.48648 197.85C4.59467 198.694 3.76404 199.4 3.02079 199.512C2.166 199.64 1.43165 199.094 1.16596 198.299C0.33767 195.822 0.18721 193.084 0.213209 190.483C0.239376 187.843 0.576024 185.221 1.04971 182.626C1.98133 177.523 3.419 172.526 4.62168 167.484C5.68161 163.04 6.39298 158.588 6.77643 154.035C7.17447 149.312 7.41282 144.573 8.13895 139.883C8.8557 135.254 10.2043 130.832 12.2381 126.611C14.0899 122.768 16.3983 119.15 18.8184 115.643C21.7574 111.386 24.9851 107.334 28.5932 103.642C28.2691 103.628 27.9363 103.523 27.6307 103.333C26.6957 102.749 26.2603 101.607 26.1264 100.565C25.8131 98.126 25.8887 95.58 26.5154 93.1956C27.5263 89.3492 30.1501 85.9316 33.9527 84.5451C34.9314 84.1882 35.9719 84.0579 37.0092 84.0322C37.9935 84.0077 39.0685 84.1361 40.0182 83.8239C41.5299 83.3266 42.1779 81.5447 42.7455 80.194L42.7716 80.1319C43.4994 78.4107 44.373 76.9354 45.9494 75.8606C47.6313 74.7137 49.7385 74.1922 51.7227 73.8554V73.8554ZM94.7469 80.6625C96.1076 80.1901 97.8088 80.6189 99.1395 81.0315C100.622 81.4915 101.992 82.3386 103.166 83.3447C104.405 84.4057 105.429 85.7158 106.153 87.1793L106.222 87.3203C106.883 88.6779 107.635 90.5417 107.302 92.0332C107.293 92.0755 107.282 92.1163 107.269 92.1557C109.969 93.4858 112.462 95.1518 114.634 97.2634C117.162 99.7219 119.302 102.52 121.114 105.542C128.309 117.547 129.575 131.964 130.425 145.654L130.637 149.125C131.098 156.621 131.638 164.099 133.041 171.491L133.143 172.024C134.642 179.764 136.789 187.562 136.571 195.502C136.506 197.881 132.993 197.865 132.892 195.502C132.508 186.609 130.435 178.023 129.03 169.269C126.56 153.868 127.798 137.99 124.297 122.743C122.923 116.759 120.795 110.955 117.756 105.614C116.255 102.976 114.538 100.426 112.526 98.1501C110.795 96.1915 108.996 94.3065 106.973 92.66C106.327 93.308 105.035 92.9778 104.698 92.0332C104.466 91.384 104.534 90.625 104.385 89.9449C104.247 89.3139 104.057 88.6882 103.803 88.0939C103.297 86.9095 102.555 85.7722 101.699 84.8136C100.773 83.7775 99.7096 82.9166 98.5195 82.2058C97.3212 81.4901 96.0107 81.2764 94.7469 80.7535C94.7043 80.7359 94.7003 80.6788 94.7469 80.6625ZM100.033 162.972C100.035 162.909 100.109 162.88 100.154 162.922C100.631 163.361 100.92 163.991 101.271 164.532C101.676 165.155 102.101 165.765 102.547 166.36C103.44 167.551 104.435 168.674 105.437 169.774C106.369 170.797 107.363 171.777 108.394 172.701C109.511 173.702 110.762 174.595 111.777 175.703C113.894 178.016 114.236 181.19 114.683 184.17L114.731 184.493C115.004 186.261 115.248 188.035 115.468 189.811C115.575 190.675 115.682 191.539 115.769 192.406L115.796 192.68C115.873 193.528 115.894 194.388 115.408 195.129C114.887 195.921 113.703 196.199 112.999 195.439C111.789 194.134 112.016 191.815 111.859 190.135C111.729 188.746 111.581 187.359 111.416 185.974L111.332 185.281C111.138 183.706 110.98 182.099 110.62 180.55C110.302 179.187 109.697 178.158 108.704 177.17C107.704 176.175 106.665 175.246 105.742 174.175C104.763 173.038 103.88 171.819 103.084 170.548C102.404 169.46 101.858 168.276 101.358 167.093L101.275 166.896C100.792 165.743 99.9956 164.242 100.033 162.972ZM117.497 113.441C117.507 113.28 117.745 113.277 117.748 113.441C117.778 114.824 117.807 116.207 117.836 117.591C118.067 128.738 117.925 139.912 119.042 151.021C119.569 156.259 120.54 161.42 121.663 166.559C122.237 169.189 122.84 171.812 123.413 174.443C123.971 177.006 124.57 179.582 125.013 182.169C125.448 184.712 125.838 187.274 126.012 189.849L126.034 190.185C126.109 191.433 126.469 193.268 125.782 194.373C125.039 195.571 123.615 195.593 122.818 194.449C122.07 193.376 122.256 191.466 122.123 190.185C121.989 188.88 121.847 187.574 121.686 186.273C121.371 183.733 120.956 181.199 120.525 178.677C119.626 173.425 118.323 168.238 117.361 162.994C116.375 157.62 115.674 152.208 115.644 146.737C115.615 141.22 116.199 135.713 116.493 130.207C116.792 124.616 117.133 119.028 117.497 113.441ZM64.881 78.7683C65.1801 77.7605 66.2355 77.1305 67.2651 77.4135C68.2086 77.6731 68.9876 78.8192 68.6187 79.7997C68.2162 80.8698 67.5127 81.7822 66.9195 82.7547C66.3717 83.6533 65.5726 84.361 65.0146 85.2436L65.6295 85.9072C65.9372 86.2382 66.2457 86.5672 66.5577 86.8905L67.6303 88.0025C68.4657 88.8667 69.3063 89.7263 70.1706 90.5605C72.7122 93.014 75.294 95.387 78.1403 97.4881C78.7883 97.9662 79.4413 98.4416 80.1126 98.8869L80.3629 99.0529C80.8234 99.3546 81.3373 99.6513 81.8936 99.6002C83.2455 99.4759 84.467 98.039 85.396 97.1447L85.4446 97.0981C87.7468 94.9058 89.8786 92.5089 91.7423 89.9316C92.1561 89.359 92.5568 88.7766 92.947 88.1874C92.0459 87.1339 92.2611 85.0776 92.2115 83.8001C92.1764 82.9018 92.1737 82.0033 92.1688 81.1043L92.1664 80.923C92.1554 80.3412 92.1292 79.7831 92.5065 79.3043C92.5285 79.2766 92.5739 79.2775 92.6019 79.2921C93.1187 79.5631 93.2779 80.0168 93.4984 80.5258L93.5215 80.5787C93.7899 81.1896 94.0468 81.8062 94.3068 82.4206C94.5791 83.0639 94.8287 83.7166 95.0816 84.3677C95.1994 84.6705 95.3117 84.9745 95.4216 85.2802C95.4885 85.4755 95.5578 85.6697 95.6289 85.8636L95.6457 85.8786C95.7396 85.9583 95.8193 86.0426 95.8879 86.1295C96.1763 86.2739 96.4054 86.537 96.5129 86.9234C96.7469 87.7647 96.2626 88.4506 95.8307 89.1183C94.0762 91.8311 92.0761 94.4163 89.8529 96.7614C88.7485 97.9264 87.5869 99.0391 86.3776 100.095L86.1661 100.278C85.0797 101.212 83.9002 102.097 82.4493 102.316C80.7514 102.572 79.3695 101.726 78.0698 100.753L77.94 100.655C76.7078 99.7217 75.5005 98.7554 74.3307 97.7446C71.9456 95.6838 69.6766 93.471 67.663 91.0433C65.7041 88.6819 63.7679 86.0416 62.5606 83.2002C62.4869 83.0272 62.6805 82.846 62.8321 82.9906C63.4219 83.5525 63.9893 84.1449 64.5501 84.7449C64.5657 83.8617 64.4028 82.9709 64.4934 82.0822C64.6039 81.0019 64.5721 79.8085 64.881 78.7683Z" fill="#262626"/>
<path fill-rule="evenodd" clip-rule="evenodd" d="M67.3173 5.62518C77.6046 0.954838 89.2725 -0.816266 100.494 0.345444C106.033 0.917939 111.499 2.14619 116.7 4.14135L117.156 4.3177C118.44 4.81232 119.825 5.30328 120.8 6.31012C121.936 7.48022 122.255 9.24965 121.443 10.6951C120.812 11.8182 119.678 12.6238 118.469 13.0537C118.895 13.4029 119.299 13.7924 119.678 14.2272C120.317 14.9558 120.366 15.9948 119.678 16.7135C118.353 18.0984 116.634 19.1005 114.782 19.5808C114.99 20.5864 114.878 21.6994 114.431 22.7016C113.151 25.5785 109.545 25.9214 106.769 25.7506L106.685 25.7453L106.531 27.513C106.449 28.4548 105.885 29.1851 104.929 29.3294C104.896 29.3345 104.862 29.3378 104.828 29.341C106.341 34.8173 107.256 40.4629 108.099 46.0752C108.54 49.0048 108.935 51.9412 109.313 54.8795L109.438 55.859C109.84 59.0269 110.344 62.2266 110.518 65.418C110.674 68.3139 110.122 71.0788 108.339 73.4156C106.739 75.5107 104.557 77.0804 102.21 78.2455C96.9079 80.8793 91.3273 82.8403 85.4632 83.7501L85.0722 83.8104C82.8086 84.1562 80.4764 84.4476 78.2371 83.8207C76.2697 83.27 74.2064 81.8498 74.6509 79.5683C74.8002 78.7978 75.877 78.7642 76.2461 79.3602L76.3313 79.4967C76.7738 80.1994 77.2587 80.8525 78.031 81.215C78.9349 81.6416 79.9833 81.7606 80.9712 81.7726C83.7305 81.8045 86.6038 81.1162 89.2608 80.4262C94.2225 79.1371 99.3183 77.0351 103.383 73.8504C105.112 72.4973 106.501 70.8051 106.991 68.6278C107.596 65.9434 107.039 63.0089 106.764 60.3111C106.198 54.7444 105.524 49.1881 104.813 43.6379L104.671 42.5279C104.072 37.8878 103.443 33.246 103.144 28.579C103.02 28.4095 102.936 28.2164 102.903 28.0049L102.856 27.701C102.816 27.4408 102.809 27.2024 102.837 26.9825C102.839 26.1398 102.863 25.3021 102.911 24.4591C102.919 24.3082 102.926 24.1571 102.931 24.0077C102.056 24.2008 101.173 24.3569 100.288 24.4895C94.0614 25.428 87.7377 25.663 81.461 25.1963C78.3294 24.9628 75.2214 24.5617 72.1231 24.0598C70.5462 23.8046 68.9747 23.5226 67.408 23.2069C66.2758 22.9803 65.167 22.6731 64.0533 22.3844C62.9043 24.0581 62.2836 26.1179 62.4044 28.1409C62.5403 30.4492 64.0767 32.5426 63.6457 34.9013C63.2411 37.1087 61.3515 37.7931 59.4859 38.3398L58.6924 38.5693C58.082 38.7476 57.6388 38.9197 57.5283 39.6539C57.3387 40.9146 57.5719 42.3332 57.6205 43.6007C57.6792 45.0998 57.7562 46.5989 57.7916 48.0981C57.8101 48.8737 57.8401 49.6526 57.8386 50.4282C57.8369 50.9789 57.7547 51.3549 57.5417 51.7106C57.7061 51.9173 57.8535 52.1406 57.9845 52.3773C58.0265 52.4545 57.9225 52.5366 57.8606 52.473C57.6943 52.3 57.5181 52.1439 57.332 52.0044C57.2381 52.1204 57.1291 52.2379 57.0014 52.3638L56.9915 52.3504C56.5923 52.7483 55.9583 52.7869 55.4633 52.3638L55.3334 52.2512C54.9711 51.9334 54.7222 51.6687 54.6214 51.1434C54.6164 51.1165 54.6112 51.0897 54.608 51.0628C53.6871 51.0309 52.7511 51.249 51.9225 51.7074C50.6091 52.4344 49.6849 53.4702 49.1382 54.7494C49.3561 55.0046 49.6111 55.2329 49.908 55.4242C49.9499 55.4528 49.913 55.5149 49.8677 55.4931C49.5641 55.3504 49.2924 55.1741 49.0492 54.9676C48.8529 55.4713 48.7154 56.0118 48.6315 56.5843C48.3363 58.6055 48.863 61.075 50.688 62.2266C51.478 62.7252 52.3804 62.9955 53.3164 62.9989C53.7725 63.0004 54.1668 62.9233 54.6097 62.8142C54.9099 62.7403 55.2085 62.6329 55.5222 62.6329C55.7905 62.6329 56.0388 62.7 56.2686 62.8343L56.2048 62.8399C56.05 62.8545 56.0798 62.861 56.2954 62.861C56.9664 62.8897 57.3503 63.5713 57.0418 64.1639L57.0014 64.2555C56.9929 64.274 56.9856 64.2893 56.98 64.3014L56.9556 64.4586C56.9531 64.4736 56.9506 64.4889 56.9479 64.5047L56.9386 64.5366C56.9369 64.5416 56.9351 64.5467 56.9328 64.5517L57.9391 66.0875C59.1728 67.9663 60.4341 69.8378 61.8693 71.5539C62.8757 72.7576 63.9426 73.9377 65.0697 75.0306C66.0829 76.0127 67.2973 76.4861 68.4446 77.2583C69.057 77.668 69.2363 78.5258 68.6796 79.0781C67.0457 80.7015 64.7326 79.4122 63.3924 78.0927C62.1243 76.842 61.029 75.3378 60.0846 73.832C58.4089 71.1543 57.0754 68.3071 56.4917 65.2165C56.2485 65.4398 55.9381 65.5791 55.6245 65.6882C54.9955 65.9065 54.3027 65.9971 53.6385 66.0206C52.3653 66.0626 51.0905 65.7537 49.9449 65.2064C45.2835 62.9821 44.5991 56.3207 47.449 52.3924C47.0647 51.2771 46.8501 50.0669 46.6169 49.035L46.5108 48.5737C45.3322 43.421 44.5411 37.9961 46.6304 32.9472C46.8988 32.2958 47.2007 31.6612 47.558 31.0535C47.8448 30.565 48.338 30.0446 48.4738 29.4889C48.7758 28.2684 46.9122 26.9859 46.3687 26.0172C45.7297 24.8807 45.6391 23.5393 46.5096 22.5C46.6203 22.3692 46.7409 22.2482 46.8719 22.1426C46.0467 20.6451 46.0081 18.7616 47.095 17.2842C47.8096 16.3106 48.8999 15.629 50.0908 15.4225C50.8188 15.2966 51.6944 15.3436 52.4945 15.5685C56.8756 11.4975 61.8744 8.09633 67.3173 5.62518ZM50.4933 56.5641C51.6626 55.5317 52.9542 54.9911 54.5477 55.1271C56.1496 55.2646 58.0785 55.9279 59.0194 57.3028C59.7626 58.389 58.248 59.9821 57.1577 59.1662C56.1647 58.4225 55.5019 57.5831 54.2692 57.1836C53.162 56.826 51.7916 56.596 50.6325 56.8008C50.505 56.8227 50.3777 56.6649 50.4933 56.5641Z" fill="#262626"/>
<path fill-rule="evenodd" clip-rule="evenodd" d="M106.235 47.5543C104.636 58.3806 93.4727 59.5779 91.4892 48.83C91.8076 48.6905 92.0365 48.4159 91.9887 47.8827C91.9775 45.5405 92.704 43.065 94.8151 41.7624C96.9967 40.4184 99.5498 40.2851 102.074 40.319C106.892 40.2042 106.791 44.2344 106.235 47.5543M89.7416 42.8459C88.2296 42.7821 86.3167 42.8355 84.9622 43.7575C84.5899 42.7539 83.6223 41.6823 82.6448 41.1094C86.2783 41.2158 90.0185 40.8579 93.6792 40.58C92.8029 41.1779 91.9877 42.076 91.4578 43.1143C90.9662 42.8519 90.2621 42.8764 89.7416 42.8459M83.077 48.7021C78.8844 63.1456 68.4192 56.8502 67.2782 54.9992C65.2202 51.9361 64.8331 44.4901 66.6257 42.4992C69.1918 40.6989 72.8244 41.1622 75.8558 41.1181C81.4248 41.1933 85.3801 42.8607 83.077 48.7021M111.186 42.059C110.047 41.91 108.83 41.8799 107.77 42.3819C107.444 40.9947 106.421 39.835 105.265 39.3247C105.125 39.1491 105.146 39.0547 104.668 39.0811C101.733 38.1984 98.4496 38.6654 95.6296 39.5706C91.1759 39.946 86.5032 40.2419 82.0121 40.7592C77.8049 38.8682 65.1084 38.591 64.3193 43.2518C63.3268 43.1032 61.6365 42.3214 60.8026 43.3819C54.685 42.3439 48.3638 43.7865 42.2198 44.429C40.6733 44.714 39.8767 47.7858 41.6322 47.7439C42.6192 47.4758 41.6019 45.8311 42.9308 45.7073C48.8588 45.0593 54.6572 44.14 60.6459 44.0324C60.4376 45.0674 64.6068 45.1347 64.6684 44.5304C64.6773 44.5349 64.6867 44.5379 64.6957 44.5419C63.6655 48.3846 64.5954 53.9149 66.4573 56.2977C69.066 59.4179 75.6153 60.313 78.5193 58.3055C82.2654 56.4527 86.1624 47.1519 85.0677 44.062C87.0544 43.4318 89.0185 43.621 91.0803 43.9419C90.6083 45.2764 89.7934 48.5614 90.9657 48.8463C90.7505 55.3683 96.6812 59.4378 102.148 56.7624C106.88 54.5392 108.535 47.5021 107.956 43.2308C108.545 44.37 113.492 43.1298 111.186 42.059" fill="#262626"/>
<path fill-rule="evenodd" clip-rule="evenodd" d="M90.2057 66.9824C88.9714 67.3408 87.6464 67.3728 86.3882 67.0027C85.2469 66.667 84.0751 65.9282 83.2352 64.9506C82.489 64.0822 82.0058 63.0269 82.0248 61.9003C82.0269 61.7717 82.0728 61.6643 82.1434 61.5809C82.2194 61.4912 82.3256 61.4296 82.4393 61.4028C82.5563 61.3753 82.6799 61.3851 82.7852 61.433C82.8805 61.4764 82.9622 61.5501 83.0132 61.6578C83.1423 61.8278 83.2709 61.9953 83.4 62.1581C84.4378 63.4427 85.443 64.4027 87.0036 64.747C87.8504 64.9339 88.6961 64.851 89.4721 64.5659C90.3027 64.2607 91.0536 63.7241 91.642 63.0375C91.9079 62.7272 92.2218 62.6005 92.5288 62.5984C92.8767 62.596 93.2205 62.758 93.4795 63.017C93.7342 63.2715 93.9046 63.6174 93.9201 63.9793C93.9337 64.2969 93.8303 64.6286 93.5553 64.9246C92.6496 65.8995 91.4758 66.6137 90.2057 66.9824ZM90.1676 50.8934C91.433 51.6643 93.3609 53.462 91.9997 55.3732C90.3975 57.0584 88.0905 55.1262 86.9537 54.2524C85.8996 53.5751 84.7153 55.3169 85.6933 56.1077C93.9079 62.2038 97.2415 51.0949 90.8076 49.9869C90.0992 49.8648 89.8361 50.6549 90.1676 50.8934ZM78.331 47.5011C77.9244 47.2404 77.446 47.1509 76.9158 47.3927C76.5014 47.5815 75.7747 48.2111 75.269 49.0388C74.923 49.605 74.6777 50.2693 74.7288 50.9612C74.7406 51.1219 74.6814 51.2403 74.588 51.3279C74.5142 51.3971 74.4076 51.448 74.2824 51.4639C74.1761 51.4774 74.0571 51.4652 73.9604 51.4349C73.7764 51.3774 73.679 51.2577 73.6423 51.16C73.2882 50.2174 73.4407 49.1655 73.8376 48.2166C74.3732 46.9359 75.3458 45.8631 75.983 45.5172C77.0735 44.9252 78.3599 44.8979 79.4519 45.5011C80.3814 46.0144 80.9627 46.8432 81.5408 47.6881C81.6636 47.8677 81.7856 48.0459 81.9117 48.2211C82.1643 48.572 82.1894 48.9201 82.0916 49.2185C81.9832 49.5492 81.7069 49.8282 81.3613 49.9743C81.0419 50.1092 80.6712 50.1282 80.3432 49.9895C80.0661 49.8724 79.8118 49.644 79.6508 49.2565C79.3798 48.6039 78.9283 47.8839 78.331 47.5011V47.5011ZM98.9859 48.953C98.7074 49.0984 98.4895 49.1423 98.1805 49.0495C98.0096 48.9981 97.8408 48.8995 97.7086 48.767C97.5775 48.6356 97.483 48.4723 97.4463 48.2911C97.3559 47.8439 97.1118 47.4254 96.764 47.1525C96.4667 46.9193 96.0914 46.7957 95.6752 46.8654C95.2261 46.9406 94.7981 47.2293 94.5034 47.5697C94.4049 47.6836 94.3277 47.813 94.2501 47.9415C94.1049 48.1818 93.9637 48.4051 93.7635 48.5816C93.6875 48.6487 93.5732 48.6952 93.4624 48.6952C93.4173 48.6952 93.3716 48.6879 93.3281 48.6743C92.881 48.2246 92.7951 47.8834 92.8095 47.545C92.8246 47.1901 92.9642 46.8308 93.1897 46.4956C93.7188 45.7092 94.7234 45.0645 95.4013 44.9184C96.3297 44.7184 97.2517 44.9585 97.9909 45.4782C98.7515 46.013 99.3151 46.8433 99.4908 47.7791C99.5331 48.0044 99.5151 48.2477 99.4295 48.4586C99.3459 48.6647 99.2 48.8412 98.9859 48.953ZM80.3786 39.117C79.8214 39.6611 79.162 39.7454 78.4949 39.8204C78.1242 39.8624 77.8283 39.8963 77.5371 39.9621C76.7368 40.1432 75.9457 40.416 75.2239 40.8088C74.4694 41.2194 73.6472 41.7146 73.0557 42.349C72.915 42.5 72.7824 42.6584 72.6497 42.8171C72.5286 42.9619 72.412 43.1012 72.289 43.2356C72.1479 43.39 72.0138 43.5517 71.8805 43.7131C71.798 43.8492 71.7818 43.8827 71.7652 43.9175C71.7402 43.9699 71.7111 44.0285 71.6779 44.0914C71.6324 44.1775 71.5792 44.2718 71.5234 44.3573C71.4306 44.5135 71.3809 44.5565 71.3378 44.5758C71.2664 44.6077 71.1987 44.6234 71.1331 44.6149C71.0715 44.6069 71.0135 44.5772 70.9562 44.5287C70.6701 44.2865 70.5858 43.8889 70.5944 43.4669C70.6075 42.8265 70.8432 42.1175 71.0604 41.6816C71.5655 40.6689 72.266 39.6161 73.1083 38.8602C74.0695 37.9974 75.121 37.3443 76.3288 36.8942C77.0794 36.6144 77.9484 36.3575 78.7661 36.39C79.3547 36.4133 79.9166 36.5887 80.3806 37.0267C80.6656 37.2955 80.8024 37.6779 80.8024 38.0601C80.8024 38.4498 80.6603 38.8419 80.3786 39.117ZM100.119 44.0995C100.084 44.1577 100.035 44.1978 99.98 44.2219C99.9228 44.2472 99.8589 44.2544 99.7976 44.2441C99.7366 44.2338 99.6786 44.2061 99.6326 44.1637C99.5885 44.1231 99.5549 44.0692 99.5399 44.0033C99.17 42.3748 98.4518 41.1632 96.9188 40.3819C96.1646 39.9976 95.2975 39.7534 94.4766 39.5587C94.238 39.5021 93.986 39.4654 93.7321 39.4283C92.9366 39.3118 92.1352 39.1785 91.6166 38.5339C91.3041 38.1456 91.1729 37.649 91.2471 37.1949C91.3169 36.7673 91.5662 36.3753 92.0193 36.1403C93.1474 35.5557 94.5493 36.1294 95.6886 36.6181C95.7731 36.6543 95.856 36.6899 95.9372 36.7243C97.0513 37.1956 98.0674 37.8178 98.9026 38.7076C99.5653 39.4135 100.179 40.4571 100.427 41.5306C100.632 42.4238 100.584 43.3355 100.119 44.0995Z" fill="#262626"/>
</g>
<defs>
<clipPath id="clip0_86_96">
<rect width="137" height="133" fill="white"/>
</clipPath>
</defs>
</svg>
