<svg width="252" height="245" viewBox="0 0 252 245" fill="none" xmlns="http://www.w3.org/2000/svg">
<g clip-path="url(#clip0_119_1088)">
<path fill-rule="evenodd" clip-rule="evenodd" d="M243.532 361.361C249.484 361.074 247.09 350.654 246.663 346.827C241.95 332.85 243.058 317.602 241.205 302.952C240.05 289.276 238.567 275.643 237.319 261.978C234.868 234.239 217.268 177.769 197.183 168.687C194.653 157.577 184.203 147.205 170.982 147.205C161.964 136.522 151.11 129.004 137.189 130.522C131.436 130.784 125.856 136.89 120.344 138.07C117.257 138.496 89.866 137.399 84.3791 140.661C80.5571 142.625 77.1068 146.254 78.2306 150.875C80.0237 156.473 74.4515 150.416 62.8275 156.391C39.1247 170.638 53.2885 189.698 53.9162 190.289C39.1247 210.886 26.1962 227.596 20.2144 252.772C16.3376 271.463 16.774 290.758 13.5257 309.545C12.3788 316.059 10.6194 322.35 8.71546 328.676C6.65201 336.955 5.64868 357.589 4.51132 357.774C2.43956 358.289 5.70868 362.546 7.90394 362.549C68.7675 372.654 130.59 362.968 191.781 361.385C209.025 360.785 226.288 360.647 243.532 361.361Z" fill="#FDFFFC"/>
<path fill-rule="evenodd" clip-rule="evenodd" d="M151.284 192.107C151.312 191.828 151.688 191.829 151.717 192.107L152.147 196.259C152.67 201.329 153.173 206.39 153.538 211.484C153.993 217.836 154.297 224.187 154.444 230.554C154.955 252.727 155.056 274.912 155.1 297.091C158.096 296.883 161.094 296.683 164.092 296.49C166.127 296.358 168.162 296.232 170.196 296.108L175.385 295.793V295.793L177.521 295.662C178.965 295.572 180.605 295.209 181.614 296.488C182.018 297.001 182.221 297.666 181.844 298.275C180.975 299.677 179.641 299.628 178.131 299.689C176.707 299.747 175.283 299.803 173.859 299.858C170.807 299.977 167.756 300.089 164.703 300.174C161.5 300.264 158.298 300.337 155.095 300.392C155.063 309.755 154.676 319.106 154.257 328.459L154.068 332.668C153.556 344.05 153.005 355.441 152.222 366.808C152.158 367.739 150.842 367.737 150.779 366.808C149.897 354.008 149.316 341.179 148.739 328.362C148.321 319.068 148.078 309.772 147.962 300.475C147.538 300.478 147.115 300.483 146.692 300.485C134.673 300.537 122.656 300.59 110.637 300.477C110.657 300.501 110.677 300.524 110.69 300.556C111.56 302.611 111.642 305.233 111.621 307.439C111.597 309.968 111.257 312.467 110.675 314.926C108.589 323.738 103.21 331.631 97.0837 338.156L96.8837 338.368C95.4386 339.896 93.7808 341.432 92.8935 343.378C91.9872 345.366 91.6726 347.69 91.2254 349.826L91.1732 350.071L89.4245 358.155C88.8689 360.723 88.7112 364.467 86.6804 366.32C84.7857 368.048 82.2757 367.146 81.3841 364.92C80.6878 363.183 81.3814 361.276 81.7937 359.54L85.0248 345.947C85.5557 343.73 86.1358 341.499 87.2816 339.507C88.4553 337.468 90.1759 335.989 91.9317 334.476C95.2563 331.612 98.3084 328.332 100.89 324.781C103.47 321.232 105.675 317.319 107.221 313.205C107.995 311.145 108.63 309.005 109.068 306.848C109.484 304.801 109.48 302.681 109.925 300.656C109.955 300.516 110.073 300.42 110.209 300.378C110.177 300.287 110.225 300.165 110.352 300.157L120.182 299.525C128.919 298.961 137.657 298.382 146.387 297.721L147.93 297.61V297.61C147.81 285.205 147.911 272.798 148.135 260.388C148.34 249.008 148.345 237.626 148.683 226.248C148.851 220.6 149.213 214.967 149.617 209.331C150.03 203.568 150.69 197.853 151.284 192.107ZM58.9859 258.089C58.8812 257.457 59.6755 257.066 60.0416 257.644C64.2274 264.247 66.2455 271.419 67.0962 279.146C67.8476 285.966 67.6262 292.884 67.252 299.721C66.8529 307.014 66.3872 314.305 65.9163 321.594L65.1928 332.771V332.771L63.3773 360.792C63.2474 362.797 62.7928 364.619 61.0684 365.551C60.8501 365.734 60.6225 365.897 60.3573 366.039C59.4257 366.538 58.1901 366.286 57.6514 365.329L57.8674 365.471C58.0555 365.59 57.8443 365.424 57.2335 364.975L56.7152 364.304V364.304C56.3385 363.737 56.098 363.18 56.0013 362.507C55.851 361.46 56.0457 360.312 56.114 359.261L57.304 340.886V340.886C58.2295 326.602 59.3102 312.321 60.1248 298.03C60.5042 291.369 60.77 284.701 60.5902 278.029C60.4109 271.393 60.0731 264.645 58.9859 258.089ZM95.1959 135.087L95.4281 135.048C103.742 133.666 112.782 133.924 120.38 137.935C120.443 137.968 120.415 138.073 120.344 138.07L117.898 137.972C110.156 137.669 102.438 137.489 94.8254 139.309L94.0461 139.497C91.3046 140.167 88.4417 140.986 86.2396 142.798C84.1349 144.53 83.0869 147.202 82.0792 149.662L81.9444 149.987C80.922 152.417 79.6279 154.721 77.3869 156.24C74.4842 158.208 70.9933 157.967 67.665 158.234C61.8048 158.705 57.0136 162.956 54.6299 168.157C53.1864 171.307 52.5707 174.838 52.4488 178.282C52.3863 180.035 52.3773 181.857 52.6108 183.599C52.6853 184.156 53.3733 186.185 53.7241 186.137C54.5036 186.028 55.2163 186.435 55.4593 187.059C57.3847 185.197 59.3656 183.389 61.4103 181.646C66.507 177.302 71.9967 173.365 77.778 169.982C82.1904 167.399 86.8445 164.841 91.664 162.907C91.2821 162.899 90.9055 162.975 90.5411 163.164C90.3816 163.248 90.223 163.047 90.349 162.915C91.867 161.316 93.6853 161.089 95.5184 161.515C95.9095 161.391 96.3009 161.27 96.6939 161.156C96.8895 161.099 96.9868 161.369 96.8273 161.473L96.377 161.761V161.761C98.3767 162.431 100.34 163.749 101.894 164.789C106.359 167.775 110.29 171.426 114.273 175.009L114.998 175.658C118.505 178.792 122.101 181.837 126.085 184.351C128.171 185.667 130.361 186.884 132.659 187.79C134.63 188.567 137.839 189.056 138.762 191.14C139.582 192.138 139.239 193.411 138.278 194.082C136.658 195.867 133.416 194.714 131.485 193.971C129.157 193.074 126.902 191.997 124.751 190.734C120.575 188.28 116.725 185.229 113.138 181.984C109.392 178.595 105.859 174.995 102.215 171.499C100.637 169.984 99.0945 168.434 97.5135 166.922L96.7195 166.169C95.9126 165.412 94.7629 164.231 93.5338 163.517C91.2181 164.899 88.8667 166.224 86.5719 167.643C83.3687 169.622 80.2597 171.744 77.1987 173.936C71.3059 178.156 65.7216 182.883 60.5375 187.949C51.0296 197.24 42.9292 207.849 35.8529 219.083L35.3155 219.939C31.2943 226.369 27.4916 233.006 24.7953 240.111C21.8285 247.93 20.3857 256.151 19.6019 264.45C18.8239 272.69 18.5615 280.971 17.6921 289.203C16.8005 297.646 15.0438 305.903 13.0457 314.143L12.5691 316.097C10.7611 323.478 8.89499 330.858 7.9656 338.413C7.46945 342.448 7.17102 346.539 7.23847 350.607C7.30623 354.699 7.94866 358.7 8.46699 362.748C8.66563 364.3 7.14053 365.594 5.77589 365.8C4.20644 366.035 2.85812 365.033 2.37029 363.574C0.849501 359.026 0.573247 353.997 0.620983 349.223C0.669027 344.376 1.28714 339.561 2.15686 334.798C3.86736 325.428 6.50703 316.252 8.71522 306.995C10.6613 298.835 11.9674 290.661 12.6715 282.302C13.4023 273.63 13.8399 264.928 15.1732 256.319C16.4892 247.819 18.9653 239.7 22.6995 231.949C26.0996 224.893 30.3379 218.251 34.7814 211.812C40.1775 203.995 46.1039 196.556 52.7284 189.777C52.1334 189.752 51.5224 189.559 50.9613 189.209C49.2446 188.137 48.4451 186.041 48.1993 184.127C47.624 179.649 47.7629 174.975 48.9135 170.597C50.7697 163.534 55.5871 157.259 62.5689 154.714C64.3659 154.058 66.2763 153.819 68.1808 153.772C69.988 153.727 71.9619 153.963 73.7056 153.39C76.4812 152.476 77.6709 149.205 78.713 146.725L78.761 146.611C80.0974 143.451 81.7013 140.742 84.5957 138.769C87.6836 136.663 91.5526 135.705 95.1959 135.087V135.087ZM174.191 147.585C176.689 146.718 179.813 147.505 182.256 148.263C184.978 149.107 187.493 150.662 189.65 152.51C191.925 154.458 193.805 156.863 195.133 159.55L195.26 159.809C196.473 162.302 197.855 165.724 197.243 168.462C197.226 168.54 197.206 168.615 197.183 168.687C202.14 171.129 206.718 174.188 210.704 178.065C215.346 182.579 219.276 187.716 222.602 193.266C235.813 215.307 238.138 241.778 239.698 266.914L240.087 273.287C240.934 287.049 241.926 300.779 244.501 314.351L244.689 315.331C247.442 329.542 251.383 343.86 250.983 358.438C250.864 362.806 244.414 362.776 244.227 358.438C243.523 342.11 239.716 326.345 237.138 310.272C232.602 281.995 234.874 252.842 228.447 224.847C225.925 213.861 222.017 203.205 216.438 193.398C213.682 188.554 210.528 183.873 206.834 179.693C203.656 176.097 200.353 172.636 196.639 169.613C195.453 170.803 193.081 170.197 192.462 168.462C192.036 167.27 192.16 165.877 191.887 164.628C191.634 163.47 191.284 162.321 190.818 161.23C189.89 159.055 188.528 156.967 186.955 155.207C185.256 153.304 183.303 151.724 181.118 150.419C178.918 149.105 176.511 148.712 174.191 147.752C174.113 147.72 174.105 147.615 174.191 147.585ZM183.897 298.71C183.901 298.596 184.036 298.541 184.119 298.618C184.995 299.425 185.525 300.583 186.169 301.575C186.913 302.719 187.693 303.84 188.512 304.931C190.152 307.119 191.978 309.18 193.819 311.2C195.531 313.078 197.355 314.877 199.248 316.573C201.298 318.411 203.596 320.051 205.459 322.086C209.346 326.332 209.974 332.16 210.794 337.632L210.884 338.224C211.384 341.472 211.832 344.728 212.236 347.989C212.433 349.575 212.629 351.162 212.789 352.753L212.838 353.256C212.981 354.813 213.019 356.393 212.126 357.753C211.17 359.208 208.996 359.718 207.703 358.323C205.482 355.926 205.899 351.668 205.61 348.584C205.371 346.034 205.1 343.487 204.797 340.944L204.643 339.672C204.286 336.779 203.996 333.829 203.334 330.986C202.751 328.482 201.64 326.593 199.818 324.779C197.982 322.952 196.074 321.247 194.379 319.279C192.581 317.193 190.96 314.955 189.499 312.62C188.249 310.623 187.247 308.449 186.33 306.278L186.178 305.916C185.291 303.799 183.828 301.043 183.897 298.71ZM215.961 207.768C215.981 207.472 216.417 207.468 216.423 207.768C216.479 210.308 216.532 212.847 216.584 215.388C217.008 235.855 216.747 256.371 218.799 276.768C219.766 286.385 221.548 295.861 223.61 305.297C224.665 310.125 225.772 314.942 226.824 319.771C227.849 324.478 228.948 329.207 229.761 333.957C230.56 338.626 231.275 343.331 231.597 348.059L231.636 348.676C231.775 350.967 232.435 354.336 231.174 356.366C229.809 358.565 227.194 358.605 225.731 356.505C224.357 354.534 224.699 351.028 224.456 348.676C224.209 346.28 223.949 343.882 223.652 341.492C223.074 336.829 222.313 332.177 221.52 327.546C219.871 317.902 217.478 308.38 215.711 298.751C213.901 288.885 212.614 278.948 212.56 268.903C212.506 258.772 213.578 248.661 214.119 238.553C214.668 228.286 215.293 218.027 215.961 207.768ZM119.355 144.107C119.904 142.257 121.842 141.1 123.733 141.62C125.465 142.096 126.895 144.201 126.218 146.001C125.479 147.966 124.187 149.641 123.098 151.426C122.092 153.076 120.625 154.376 119.601 155.996L120.73 157.215C121.295 157.822 121.861 158.426 122.434 159.02L124.403 161.062C125.937 162.648 127.48 164.227 129.067 165.758C133.734 170.263 138.474 174.62 143.7 178.478C144.89 179.356 146.089 180.229 147.321 181.046L147.781 181.351C148.627 181.905 149.57 182.45 150.592 182.356C153.074 182.128 155.316 179.49 157.022 177.847L157.111 177.762C161.338 173.737 165.252 169.336 168.674 164.604C169.434 163.552 170.17 162.483 170.886 161.401C169.232 159.467 169.627 155.692 169.536 153.346C169.471 151.697 169.466 150.047 169.458 148.396L169.453 148.063C169.433 146.995 169.385 145.97 170.078 145.091C170.118 145.041 170.201 145.042 170.253 145.069C171.202 145.566 171.494 146.4 171.899 147.334L171.941 147.431C172.434 148.553 172.906 149.685 173.383 150.813C173.883 151.994 174.341 153.193 174.806 154.388C175.022 154.944 175.228 155.502 175.43 156.064C175.553 156.422 175.68 156.779 175.811 157.135L175.841 157.162C176.014 157.309 176.16 157.463 176.286 157.623C176.815 157.888 177.236 158.371 177.434 159.081C177.863 160.625 176.974 161.885 176.181 163.11C172.96 168.091 169.287 172.838 165.205 177.144C163.178 179.283 161.045 181.326 158.824 183.264L158.436 183.6C156.441 185.316 154.276 186.941 151.612 187.342C148.494 187.812 145.957 186.26 143.571 184.473L143.333 184.293C141.07 182.579 138.853 180.805 136.706 178.949C132.326 175.165 128.16 171.102 124.463 166.645C120.867 162.309 117.312 157.461 115.095 152.245C114.96 151.927 115.315 151.594 115.593 151.86C116.676 152.891 117.718 153.979 118.748 155.081C118.776 153.459 118.477 151.823 118.644 150.192C118.847 148.208 118.788 146.017 119.355 144.107Z" fill="black"/>
<path fill-rule="evenodd" clip-rule="evenodd" d="M123.828 9.81164C142.717 1.23658 164.14 -2.01528 184.743 0.117696C194.913 1.16884 204.949 3.42398 214.499 7.08722L215.336 7.41102C217.694 8.31917 220.235 9.22062 222.027 11.0692C224.112 13.2176 224.697 16.4664 223.207 19.1203C222.049 21.1824 219.967 22.6616 217.746 23.451C218.528 24.0921 219.271 24.8072 219.967 25.6055C221.14 26.9432 221.229 28.8509 219.967 30.1705C217.534 32.7134 214.377 34.5532 210.977 35.4351C211.359 37.2814 211.152 39.325 210.333 41.1651C207.982 46.4473 201.36 47.0768 196.265 46.7632L196.111 46.7534L195.827 49.9991C195.677 51.7283 194.642 53.0691 192.886 53.3342C192.825 53.3434 192.763 53.3496 192.701 53.3555C195.479 63.4103 197.158 73.7759 198.707 84.0805C199.516 89.4595 200.241 94.8509 200.935 100.246L201.165 102.044C201.904 107.861 202.828 113.736 203.148 119.595C203.434 124.912 202.421 129.989 199.147 134.279C196.209 138.126 192.203 141.008 187.894 143.147C178.159 147.983 167.912 151.584 157.146 153.254L156.428 153.365C152.272 154 147.989 154.535 143.878 153.384C140.266 152.373 136.477 149.765 137.293 145.576C137.568 144.161 139.545 144.1 140.222 145.194L140.379 145.445C141.191 146.735 142.082 147.934 143.499 148.6C145.159 149.383 147.084 149.601 148.898 149.623C153.964 149.682 159.24 148.418 164.118 147.151C173.228 144.784 182.584 140.925 190.047 135.078C193.222 132.593 195.772 129.486 196.671 125.489C197.783 120.56 196.761 115.172 196.256 110.219C195.216 99.9978 193.979 89.796 192.674 79.6055L192.412 77.5675C191.313 69.0479 190.158 60.5253 189.609 51.9564C189.381 51.6451 189.227 51.2906 189.166 50.9022L189.08 50.3443C189.006 49.8666 188.993 49.4289 189.046 49.0251C189.049 47.4778 189.092 45.9397 189.181 44.392C189.196 44.1149 189.209 43.8375 189.218 43.5632C187.611 43.9177 185.991 44.2043 184.365 44.4478C172.932 46.1708 161.322 46.6024 149.797 45.7455C144.047 45.3167 138.341 44.5804 132.652 43.6587C129.757 43.1902 126.872 42.6724 123.995 42.0929C121.916 41.6768 119.88 41.1127 117.835 40.5826C115.726 43.6557 114.586 47.4377 114.808 51.1519C115.058 55.3901 117.879 59.2338 117.087 63.5645C116.344 67.6174 112.875 68.8741 109.45 69.8779L107.993 70.2991C106.872 70.6266 106.058 70.9426 105.855 72.2905C105.507 74.6054 105.935 77.2099 106.025 79.5371C106.132 82.2896 106.274 85.0422 106.339 87.7947C106.373 89.2187 106.428 90.6489 106.425 92.073C106.422 93.084 106.271 93.7744 105.88 94.4276C106.182 94.807 106.452 95.2169 106.693 95.6515C106.77 95.7933 106.579 95.9441 106.465 95.8272C106.16 95.5098 105.836 95.2231 105.495 94.967C105.322 95.18 105.122 95.3957 104.888 95.6269L104.87 95.6022C104.137 96.3327 102.973 96.4036 102.064 95.6269L101.825 95.4201C101.16 94.8365 100.703 94.3505 100.518 93.386C100.509 93.3367 100.499 93.2874 100.493 93.2381C98.8026 93.1795 97.084 93.5799 95.5626 94.4217C93.1512 95.7563 91.4542 97.6581 90.4505 100.007C90.8506 100.475 91.3187 100.895 91.8638 101.246C91.9408 101.298 91.8731 101.412 91.7899 101.372C91.2325 101.11 90.7336 100.787 90.287 100.408C89.9267 101.332 89.6741 102.325 89.5201 103.376C88.9781 107.087 89.9452 111.621 93.2959 113.736C94.7465 114.651 96.4034 115.147 98.1219 115.153C98.9593 115.156 99.6834 115.015 100.496 114.814C101.048 114.679 101.596 114.482 102.172 114.482C102.665 114.482 103.12 114.605 103.542 114.851L103.425 114.862C103.141 114.888 103.196 114.9 103.592 114.9C104.823 114.953 105.528 116.205 104.962 117.293L104.888 117.461C104.872 117.495 104.859 117.523 104.848 117.545L104.804 117.834C104.799 117.861 104.795 117.889 104.79 117.918L104.773 117.977C104.769 117.986 104.766 117.995 104.762 118.005L106.609 120.824C108.875 124.274 111.19 127.71 113.826 130.861C115.673 133.071 117.632 135.238 119.702 137.245C121.562 139.048 123.792 139.917 125.898 141.335C127.023 142.087 127.352 143.662 126.33 144.676C123.33 147.657 119.083 145.289 116.622 142.867C114.294 140.57 112.283 137.809 110.549 135.044C107.472 130.127 105.024 124.9 103.952 119.225C103.505 119.635 102.936 119.891 102.36 120.091C101.205 120.492 99.9328 120.659 98.7132 120.702C96.3757 120.779 94.0351 120.212 91.9316 119.207C83.3729 115.123 82.1164 102.892 87.3489 95.6793C86.6434 93.6315 86.2493 91.4096 85.8212 89.5149L85.6264 88.6679C83.4624 79.2073 82.0099 69.2468 85.846 59.9766C86.3387 58.7807 86.8931 57.6156 87.5491 56.4997C88.0757 55.6028 88.9812 54.6473 89.2306 53.627C89.785 51.3862 86.3634 49.0313 85.3655 47.2527C84.1922 45.166 84.0258 42.7032 85.6242 40.7949C85.8275 40.5548 86.0489 40.3326 86.2895 40.1387C84.7742 37.3893 84.7034 33.9309 86.6991 31.2184C88.0111 29.4307 90.0129 28.1793 92.1995 27.8001C93.5362 27.569 95.1438 27.6553 96.6128 28.0683C104.657 20.5936 113.835 14.3488 123.828 9.81164ZM92.9385 103.339C95.0854 101.443 97.4569 100.451 100.383 100.7C103.324 100.953 106.866 102.171 108.593 104.695C109.958 106.689 107.177 109.615 105.175 108.117C103.352 106.751 102.135 105.21 99.8714 104.476C97.8384 103.82 95.3223 103.397 93.1941 103.774C92.9601 103.814 92.7263 103.524 92.9385 103.339Z" fill="black"/>
<path fill-rule="evenodd" clip-rule="evenodd" d="M195.285 84.0271C192.349 103.905 171.851 106.103 168.21 86.3693C168.794 86.1132 169.215 85.6089 169.127 84.63C169.106 80.3295 170.44 75.7843 174.316 73.3927C178.322 70.925 183.009 70.6802 187.645 70.7425C196.491 70.5317 196.304 77.9314 195.285 84.0271M165.001 75.382C162.225 75.2649 158.713 75.3629 156.226 77.0557C155.542 75.2131 153.766 73.2457 151.971 72.1937C158.642 72.3891 165.509 71.7319 172.231 71.2218C170.622 72.3194 169.125 73.9685 168.152 75.8749C167.249 75.3931 165.956 75.4381 165.001 75.382M152.764 86.1344C145.066 112.654 125.852 101.095 123.757 97.6963C119.978 92.0722 119.267 78.4009 122.559 74.7455C127.27 71.44 133.94 72.2908 139.506 72.2097C149.731 72.3478 156.993 75.4092 152.764 86.1344M204.374 73.9374C202.283 73.6636 200.048 73.6085 198.103 74.5301C197.504 71.9832 195.625 69.8539 193.503 68.9168C193.246 68.5944 193.284 68.4212 192.407 68.4696C187.019 66.8489 180.989 67.7064 175.812 69.3684C167.634 70.0576 159.055 70.601 150.809 71.5507C143.084 68.0788 119.773 67.5699 118.324 76.1274C116.502 75.8546 113.398 74.4191 111.867 76.3662C100.635 74.4604 89.0286 77.1091 77.7477 78.2887C74.9082 78.8121 73.4456 84.4521 76.6689 84.3751C78.481 83.8828 76.6132 80.863 79.0533 80.6359C89.9375 79.4461 100.584 77.7582 111.579 77.5606C111.197 79.4609 118.852 79.5845 118.965 78.4749C118.981 78.4832 118.998 78.4887 119.015 78.4961C117.123 85.5516 118.831 95.7054 122.249 100.08C127.039 105.809 139.064 107.453 144.396 103.767C151.274 100.365 158.429 83.2882 156.419 77.6149C160.067 76.4578 163.673 76.8052 167.459 77.3945C166.592 79.8446 165.096 85.8762 167.248 86.3992C166.853 98.3741 177.742 105.846 187.781 100.934C196.469 96.8517 199.507 83.9312 198.444 76.0888C199.526 78.1805 208.608 75.9033 204.374 73.9374" fill="black"/>
<path fill-rule="evenodd" clip-rule="evenodd" d="M149.037 112.05C150.758 109.212 154.426 116.164 154.816 117.359C155.161 118.418 155.389 119.503 155.505 120.6C156.839 120.9 158.225 120.9 159.592 120.638C161.624 120.247 162.866 119.152 164.632 118.212C165.852 117.562 167.389 118.324 168.024 119.401C168.77 120.67 168.294 121.986 167.313 122.931C165.452 124.724 161.79 125.136 159.361 124.66C157.969 124.387 156.694 123.864 155.567 123.104C155.56 123.246 155.555 123.388 155.543 123.529L155.522 123.775C155.335 125.763 154.79 128.264 153.249 129.558C150.722 131.68 147.603 127.598 150.059 125.478L150.135 125.415C151.661 124.178 151.994 120.862 151.912 119.035C151.858 117.843 151.641 116.635 151.266 115.499L151.189 115.273C151.076 114.953 149.843 111.91 149.397 112.297L149.376 112.319C149.193 112.539 148.896 112.283 149.037 112.05ZM162.778 96.0373C165.101 97.4527 168.641 100.753 166.142 104.263C163.2 107.357 158.964 103.809 156.877 102.205C154.942 100.961 152.767 104.159 154.563 105.611C169.645 116.804 175.766 96.4074 163.953 94.373C162.652 94.1488 162.169 95.5994 162.778 96.0373ZM137.97 82.9535C140.24 82.5498 142.566 83.1157 144.445 84.4473L144.588 84.55C146.398 85.8769 148.423 88.2069 147.384 90.4941C146.967 91.4125 145.719 91.5565 144.927 91.1402C143.608 90.4469 143.369 88.7413 142.192 87.7973C141.227 87.0236 139.927 86.5542 138.684 86.6674C135.764 86.9332 133.968 89.82 133.061 92.3077C132.945 92.626 132.479 92.7496 132.297 92.4079C130.159 88.4014 133.944 83.6696 137.97 82.9535ZM174.338 81.4415C178.688 81.0822 183.778 85.6019 182.633 90.2036C182.084 92.4116 178.817 92.3484 178.236 90.2036C177.916 89.0234 177.948 87.9792 177.1 86.9992C176.401 86.19 175.407 85.72 174.338 85.7922C173.161 85.8717 172.074 86.4617 171.249 87.2909C170.503 88.0397 170.058 89.1354 169.285 89.7981C169.095 89.9609 168.841 89.9714 168.653 89.7981C167.324 88.5698 168.122 86.0127 168.964 84.7304C170.17 82.8955 172.134 81.6238 174.338 81.4415ZM129.688 74.7921C132.478 72.3164 137.548 69.9255 141.31 71.1439C143.473 71.8443 144.416 75.3379 142.001 76.4453C139.205 77.7276 135.981 77.2058 133.135 78.5349C131.94 79.0934 130.815 79.7913 129.983 80.8148C129.328 81.6215 128.661 82.683 127.712 83.148C127.463 83.2705 127.126 83.2736 126.926 83.0466C124.847 80.6899 127.873 76.4022 129.688 74.7921ZM169.543 71.021C171.267 70.5359 173.18 70.5458 174.932 70.8505C176.683 71.1552 178.461 71.8827 179.891 72.9438L180.057 73.068C181.617 74.2469 183.48 75.9622 183.38 78.0506C183.297 79.7945 181.467 80.9741 179.886 80.06C178.598 79.3147 177.992 77.8215 176.902 76.8273C176.002 76.0067 174.945 75.3597 173.817 74.9063C172.564 74.4028 171.309 74.1668 169.964 74.1443C168.929 74.1271 167.888 74.4675 166.872 74.5764C166.956 74.7485 166.153 74.6683 165.692 74.5156C165.351 74.3701 165.35 73.938 165.468 73.6577C166.054 72.2691 168.186 71.4022 169.543 71.021Z" fill="black"/>
</g>
<defs>
<clipPath id="clip0_119_1088">
<rect width="252" height="244.642" fill="white"/>
</clipPath>
</defs>
</svg>
