<svg width="137" height="133" viewBox="0 0 137 133" fill="none" xmlns="http://www.w3.org/2000/svg">
<g clip-path="url(#clip0_98_192)">
<path fill-rule="evenodd" clip-rule="evenodd" d="M132.396 196.735C135.632 196.578 134.331 190.914 134.098 188.833C131.536 181.235 132.139 172.945 131.131 164.981C130.503 157.546 129.697 150.134 129.018 142.705C127.686 127.625 118.118 96.9248 107.199 91.9875C105.823 85.9473 100.142 80.3088 92.9543 80.3088C88.0519 74.5009 82.1511 70.4135 74.5827 71.2388C71.4551 71.3812 68.422 74.7011 65.4251 75.3423C63.7471 75.5738 48.8557 74.9778 45.8727 76.7509C43.7949 77.8186 41.9192 79.7918 42.5301 82.3038C43.5049 85.3473 40.4756 82.0542 34.1562 85.3025C21.2701 93.0482 28.9703 103.41 29.3115 103.731C21.2701 114.929 14.2416 124.013 10.9895 137.7C8.88192 147.861 9.11917 158.351 7.35327 168.565C6.72976 172.106 5.77322 175.526 4.73816 178.966C3.61637 183.466 3.0709 194.684 2.45258 194.784C1.32626 195.064 3.10352 197.379 4.29698 197.381C37.3855 202.874 70.9953 197.608 104.262 196.748C113.637 196.422 123.022 196.347 132.396 196.735Z" fill="#FDFFFC"/>
<path fill-rule="evenodd" clip-rule="evenodd" d="M82.2457 104.72C82.2611 104.568 82.4653 104.568 82.4811 104.72L82.7147 106.977C82.9989 109.733 83.2725 112.484 83.4709 115.254C83.7182 118.707 83.8836 122.16 83.9633 125.621C84.2413 137.676 84.2965 149.737 84.32 161.794C85.9492 161.681 87.5787 161.573 89.209 161.467C90.315 161.396 91.4211 161.327 92.5274 161.26L95.3482 161.089V161.089L96.5095 161.017C97.2942 160.969 98.1858 160.771 98.7345 161.467C98.9541 161.745 99.0643 162.107 98.8595 162.438C98.3872 163.2 97.6617 163.174 96.8412 163.207C96.067 163.238 95.2928 163.269 94.5186 163.299C92.8595 163.363 91.2006 163.424 89.541 163.471C87.7994 163.519 86.0586 163.559 84.3176 163.589C84.3 168.679 84.0896 173.763 83.862 178.848L83.7591 181.136C83.4806 187.323 83.1811 193.517 82.7556 199.696C82.7207 200.202 82.0056 200.201 81.9709 199.696C81.4917 192.737 81.1756 185.763 80.8622 178.795C80.6348 173.742 80.5025 168.688 80.4396 163.634C80.2093 163.635 79.9793 163.639 79.7492 163.639C73.2149 163.668 66.6822 163.696 60.1479 163.635C60.1587 163.648 60.1695 163.661 60.1767 163.678C60.6495 164.795 60.6945 166.221 60.683 167.42C60.6697 168.795 60.4847 170.153 60.1683 171.49C59.0345 176.281 56.1102 180.572 52.7796 184.119L52.6709 184.235C51.8853 185.065 50.984 185.9 50.5016 186.958C50.0089 188.039 49.8379 189.303 49.5948 190.464L49.5664 190.597L48.6157 194.992C48.3136 196.388 48.2279 198.424 47.1239 199.431C46.0938 200.37 44.7293 199.88 44.2445 198.67C43.866 197.725 44.243 196.688 44.4672 195.745L46.2238 188.355C46.5124 187.15 46.8278 185.937 47.4507 184.854C48.0888 183.745 49.0242 182.941 49.9787 182.119C51.7862 180.561 53.4454 178.778 54.8487 176.848C56.2514 174.918 57.4502 172.791 58.2909 170.554C58.7118 169.435 59.0567 168.271 59.2946 167.099C59.5208 165.986 59.5188 164.833 59.7608 163.732C59.7773 163.656 59.8415 163.604 59.915 163.581C59.8976 163.532 59.9242 163.466 59.9928 163.461L65.3368 163.118C70.0872 162.811 74.8373 162.496 79.5833 162.137L80.422 162.076V162.076C80.3569 155.332 80.4121 148.587 80.5338 141.841C80.6453 135.654 80.6477 129.466 80.8315 123.28C80.9229 120.21 81.12 117.147 81.3393 114.084C81.5637 110.95 81.9228 107.844 82.2457 104.72ZM32.0677 140.591C32.0108 140.247 32.4426 140.035 32.6417 140.349C34.9173 143.938 36.0144 147.838 36.4769 152.038C36.8854 155.746 36.765 159.507 36.5616 163.224C36.3446 167.189 36.0914 171.153 35.8354 175.115L35.4421 181.192V181.192L34.4551 196.426C34.3845 197.515 34.1374 198.506 33.1999 199.013C33.0812 199.112 32.9575 199.201 32.8133 199.278C32.3068 199.549 31.6351 199.412 31.3423 198.892L31.4597 198.969C31.5619 199.034 31.4471 198.944 31.115 198.7L30.8333 198.335V198.335C30.6285 198.027 30.4977 197.724 30.4452 197.358C30.3634 196.789 30.4693 196.165 30.5064 195.593L31.1534 185.604V185.604C31.6565 177.838 32.244 170.074 32.6869 162.305C32.8932 158.683 33.0377 155.059 32.9399 151.431C32.8424 147.824 32.6588 144.155 32.0677 140.591ZM51.7533 73.7206L51.8796 73.6994C56.3994 72.948 61.3142 73.0886 65.4449 75.2692C65.479 75.2871 65.4634 75.3439 65.4251 75.3423L64.0955 75.2891C59.8865 75.1242 55.6905 75.0265 51.5519 76.0162L51.1282 76.1184C49.6378 76.4823 48.0814 76.9276 46.8842 77.9128C45.74 78.8546 45.1702 80.3072 44.6224 81.6446L44.5491 81.8211C43.9933 83.142 43.2897 84.3946 42.0714 85.2206C40.4934 86.2902 38.5955 86.1592 36.7861 86.3044C33.6002 86.5607 30.9955 88.8715 29.6996 91.6992C28.9148 93.4115 28.5801 95.3312 28.5138 97.2036C28.4798 98.1569 28.475 99.1474 28.6019 100.094C28.6424 100.397 29.0164 101.5 29.2071 101.474C29.6309 101.415 30.0184 101.636 30.1505 101.975C31.1972 100.963 32.2742 99.9801 33.3857 99.0325C36.1566 96.6709 39.141 94.5305 42.2841 92.6913C44.6828 91.2873 47.2131 89.8965 49.8332 88.845C49.6256 88.8406 49.4208 88.8819 49.2228 88.9849C49.136 89.0303 49.0498 88.9214 49.1183 88.8494C49.9435 87.9803 50.9321 87.8567 51.9286 88.0884C52.1413 88.0207 52.3541 87.9552 52.5677 87.893C52.674 87.862 52.7269 88.0086 52.6402 88.0653L52.3954 88.2218V88.2218C53.4825 88.5863 54.5499 89.3026 55.3949 89.868C57.8224 91.4916 59.959 93.4765 62.1249 95.4242L62.5187 95.7773C64.4251 97.4809 66.3802 99.1365 68.5462 100.503C69.68 101.219 70.871 101.88 72.1202 102.373C73.1916 102.795 74.936 103.061 75.4378 104.194C75.8839 104.736 75.6975 105.429 75.1751 105.793C74.2941 106.764 72.5317 106.137 71.4819 105.733C70.2163 105.246 68.9902 104.66 67.8209 103.973C65.5507 102.639 63.4574 100.981 61.5075 99.2165C59.4711 97.3739 57.5501 95.4165 55.5694 93.516C54.7112 92.6926 53.8728 91.8498 53.0133 91.0276L52.5816 90.6184C52.1429 90.2067 51.5179 89.5649 50.8497 89.1765C49.5908 89.928 48.3124 90.6486 47.0649 91.4196C45.3234 92.4957 43.6332 93.6494 41.9691 94.8412C38.7655 97.1354 35.7296 99.705 32.9112 102.459C27.7423 107.51 23.3385 113.278 19.4914 119.385L19.1993 119.851C17.0132 123.346 14.9458 126.955 13.48 130.817C11.8671 135.068 11.0827 139.537 10.6566 144.049C10.2336 148.529 10.091 153.031 9.61832 157.506C9.13361 162.096 8.17858 166.585 7.09228 171.065L6.83321 172.127C5.85028 176.139 4.83576 180.152 4.3305 184.259C4.06077 186.453 3.89853 188.677 3.9352 190.888C3.97203 193.113 4.32129 195.288 4.60308 197.489C4.71107 198.332 3.88195 199.036 3.14006 199.148C2.28683 199.276 1.55382 198.731 1.2886 197.938C0.461828 195.465 0.311642 192.732 0.337594 190.136C0.363713 187.501 0.699748 184.883 1.17257 182.293C2.10249 177.2 3.53755 172.211 4.73803 167.178C5.79603 162.742 6.50611 158.299 6.88886 153.754C7.28617 149.04 7.52409 144.309 8.2489 139.628C8.96434 135.007 10.3105 130.594 12.3406 126.38C14.189 122.544 16.4932 118.933 18.9089 115.433C21.8425 111.182 25.0644 107.138 28.6658 103.453C28.3424 103.439 28.0102 103.335 27.7051 103.144C26.7719 102.562 26.3372 101.422 26.2036 100.381C25.8908 97.947 25.9663 95.4056 26.5919 93.0256C27.601 89.1862 30.2199 85.7748 34.0156 84.3908C34.9926 84.0345 36.0312 83.9045 37.0665 83.8789C38.049 83.8544 39.1221 83.9826 40.0701 83.6709C41.5791 83.1745 42.2258 81.3958 42.7924 80.0476L42.8185 79.9857C43.545 78.2676 44.417 76.7949 45.9905 75.7221C47.6693 74.5774 49.7726 74.0567 51.7533 73.7206V73.7206ZM94.6991 80.5153C96.0573 80.0437 97.7554 80.4717 99.0836 80.8836C100.563 81.3428 101.931 82.1883 103.103 83.1926C104.34 84.2516 105.362 85.5594 106.084 87.0202L106.153 87.161C106.813 88.5161 107.564 90.3765 107.232 91.8652C107.222 91.9075 107.211 91.9482 107.199 91.9876C109.894 93.3152 112.382 94.9782 114.549 97.0859C117.073 99.54 119.21 102.333 121.018 105.35C128.2 117.332 129.464 131.723 130.312 145.388L130.524 148.853C130.984 156.335 131.523 163.799 132.923 171.178L133.025 171.711C134.522 179.436 136.664 187.221 136.447 195.146C136.382 197.52 132.876 197.504 132.774 195.146C132.391 186.269 130.322 177.698 128.92 168.96C126.454 153.587 127.69 137.738 124.195 122.519C122.824 116.546 120.7 110.753 117.667 105.422C116.168 102.788 114.454 100.243 112.446 97.971C110.718 96.016 108.922 94.1345 106.903 92.4909C106.258 93.1378 104.969 92.8082 104.632 91.8652C104.401 91.2172 104.468 90.4596 104.32 89.7808C104.182 89.1509 103.992 88.5264 103.739 87.9332C103.234 86.751 102.493 85.6157 101.638 84.6588C100.714 83.6246 99.6527 82.7653 98.4648 82.0558C97.2687 81.3414 95.9605 81.1281 94.6991 80.6061C94.6566 80.5885 94.6526 80.5315 94.6991 80.5153ZM99.9759 162.675C99.9779 162.612 100.051 162.583 100.097 162.625C100.573 163.063 100.861 163.692 101.211 164.232C101.615 164.854 102.04 165.463 102.485 166.057C103.376 167.246 104.369 168.367 105.37 169.465C106.3 170.486 107.292 171.464 108.321 172.386C109.436 173.385 110.685 174.276 111.698 175.383C113.811 177.691 114.153 180.86 114.598 183.835L114.647 184.156C114.919 185.922 115.163 187.692 115.382 189.465C115.489 190.327 115.596 191.19 115.683 192.055L115.709 192.329C115.787 193.175 115.808 194.034 115.322 194.773C114.802 195.564 113.621 195.842 112.918 195.083C111.711 193.78 111.937 191.465 111.78 189.788C111.65 188.402 111.503 187.017 111.338 185.635L111.254 184.944C111.06 183.371 110.902 181.767 110.543 180.221C110.226 178.86 109.622 177.833 108.631 176.847C107.633 175.854 106.596 174.927 105.674 173.857C104.697 172.723 103.815 171.506 103.021 170.237C102.342 169.151 101.797 167.969 101.298 166.789L101.216 166.592C100.733 165.441 99.9383 163.943 99.9759 162.675ZM117.408 113.234C117.418 113.073 117.655 113.071 117.659 113.234C117.689 114.614 117.718 115.995 117.746 117.376C117.977 128.503 117.835 139.657 118.95 150.746C119.476 155.974 120.445 161.125 121.566 166.255C122.139 168.88 122.741 171.499 123.313 174.125C123.87 176.683 124.468 179.254 124.91 181.837C125.344 184.375 125.733 186.932 125.908 189.503L125.929 189.839C126.004 191.084 126.363 192.915 125.678 194.019C124.936 195.215 123.514 195.236 122.719 194.095C121.972 193.023 122.158 191.117 122.026 189.839C121.892 188.536 121.75 187.232 121.589 185.933C121.274 183.398 120.86 180.869 120.43 178.351C119.533 173.108 118.232 167.931 117.272 162.697C116.287 157.333 115.588 151.931 115.558 146.47C115.529 140.962 116.112 135.465 116.406 129.97C116.704 124.388 117.044 118.811 117.408 113.234ZM64.8876 78.6245C65.1862 77.6186 66.2396 76.9897 67.2673 77.2722C68.2091 77.5313 68.9867 78.6753 68.6185 79.6541C68.2167 80.7222 67.5145 81.6329 66.9224 82.6037C66.3756 83.5007 65.5779 84.207 65.0209 85.0881L65.6347 85.7504C65.9419 86.0808 66.2499 86.4092 66.5613 86.732L67.6319 87.8419C68.4658 88.7045 69.3049 89.5625 70.1676 90.3952C72.7045 92.8443 75.2816 95.2129 78.1228 97.3102C78.7695 97.7875 79.4214 98.2621 80.0914 98.7064L80.3413 98.8722C80.801 99.1734 81.3139 99.4695 81.8692 99.4185C83.2186 99.2945 84.4379 97.8602 85.3652 96.9675L85.4137 96.921C87.7117 94.7327 89.8396 92.3401 91.7 89.7675C92.113 89.1959 92.513 88.6146 92.9024 88.0265C92.003 86.975 92.2178 84.9224 92.1683 83.6472C92.1333 82.7505 92.1306 81.8536 92.1257 80.9563L92.1233 80.7753C92.1123 80.1945 92.0862 79.6375 92.4628 79.1596C92.4847 79.1319 92.5301 79.1328 92.558 79.1474C93.0739 79.4179 93.2328 79.8708 93.4529 80.3789L93.4759 80.4316C93.7438 81.0414 94.0003 81.6569 94.2598 82.2702C94.5316 82.9124 94.7807 83.5639 95.0332 84.2137C95.1507 84.516 95.2629 84.8195 95.3726 85.1246C95.4394 85.3195 95.5085 85.5134 95.5795 85.7069L95.5963 85.7219C95.69 85.8014 95.7695 85.8856 95.838 85.9724C96.1258 86.1165 96.3546 86.3791 96.4619 86.7648C96.6954 87.6045 96.2121 88.2892 95.7809 88.9556C94.0296 91.6636 92.0331 94.244 89.814 96.5848C88.7116 97.7478 87.5522 98.8584 86.345 99.912L86.134 100.095C85.0495 101.028 83.8722 101.911 82.4239 102.129C80.7291 102.385 79.3497 101.541 78.0523 100.569L77.9228 100.472C76.6929 99.5398 75.4877 98.5752 74.3201 97.5663C71.9393 95.5092 69.6745 93.3004 67.6645 90.8772C65.7092 88.5201 63.7766 85.8846 62.5714 83.0484C62.4979 82.8757 62.6911 82.6948 62.8424 82.8391C63.4311 83.4 63.9976 83.9913 64.5573 84.5902C64.5729 83.7086 64.4103 82.8195 64.5007 81.9324C64.611 80.8541 64.5792 79.6628 64.8876 78.6245Z" fill="#262626"/>
<path fill-rule="evenodd" clip-rule="evenodd" d="M67.3192 5.61493C77.5878 0.953099 89.2345 -0.814779 100.436 0.344815C105.964 0.916267 111.42 2.14228 116.612 4.1338L117.068 4.30983C118.349 4.80355 119.731 5.29362 120.705 6.29862C121.839 7.4666 122.157 9.2328 121.346 10.6756C120.717 11.7966 119.585 12.6008 118.378 13.03C118.803 13.3785 119.206 13.7673 119.585 14.2013C120.223 14.9285 120.271 15.9656 119.585 16.683C118.262 18.0655 116.546 19.0657 114.697 19.5451C114.905 20.5489 114.793 21.6599 114.348 22.6603C113.07 25.5319 109.47 25.8742 106.699 25.7037L106.616 25.6984L106.462 27.4629C106.379 28.403 105.817 29.1319 104.863 29.276C104.829 29.281 104.795 29.2844 104.762 29.2876C106.272 34.7539 107.185 40.3892 108.027 45.9912C108.467 48.9155 108.861 51.8466 109.238 54.7796L109.363 55.7573C109.765 58.9194 110.267 62.1133 110.441 65.2988C110.597 68.1894 110.046 70.9493 108.266 73.2819C106.669 75.3732 104.491 76.94 102.148 78.1029C96.856 80.732 91.2855 82.6894 85.4321 83.5976L85.0418 83.6577C82.7823 84.0029 80.4543 84.2938 78.2192 83.668C76.2554 83.1183 74.1958 81.7007 74.6395 79.4234C74.7885 78.6542 75.8634 78.6207 76.2318 79.2156L76.3168 79.3519C76.7585 80.0533 77.2425 80.7052 78.0134 81.0671C78.9157 81.4929 79.9621 81.6117 80.9483 81.6236C83.7025 81.6554 86.5707 80.9684 89.2228 80.2797C94.1754 78.9929 99.262 76.8947 103.319 73.7159C105.045 72.3653 106.431 70.6762 106.92 68.5028C107.525 65.8233 106.969 62.8942 106.694 60.2013C106.129 54.6447 105.457 49.0985 104.747 43.5584L104.605 42.4505C104.007 37.8188 103.379 33.1854 103.081 28.527C102.957 28.3577 102.873 28.165 102.84 27.9539L102.793 27.6506C102.753 27.3908 102.746 27.1529 102.775 26.9334C102.776 26.0921 102.8 25.256 102.848 24.4146C102.857 24.2639 102.863 24.1131 102.868 23.964C101.994 24.1567 101.114 24.3125 100.23 24.4449C94.0147 25.3816 87.7025 25.6162 81.4372 25.1504C78.3113 24.9173 75.2089 24.517 72.1163 24.0159C70.5423 23.7612 68.9736 23.4797 67.4098 23.1647C66.2796 22.9385 65.1729 22.6318 64.0612 22.3436C62.9142 24.0143 62.2947 26.0704 62.4153 28.0896C62.5509 30.3937 64.0846 32.4833 63.6543 34.8377C63.2504 37.0411 61.3643 37.7243 59.5021 38.27L58.7101 38.499C58.1008 38.677 57.6584 38.8488 57.5481 39.5816C57.3589 40.8401 57.5916 42.2561 57.6401 43.5212C57.6988 45.0176 57.7756 46.5141 57.8109 48.0105C57.8293 48.7847 57.8593 49.5622 57.8578 50.3364C57.8561 50.886 57.7741 51.2614 57.5615 51.6164C57.7255 51.8227 57.8727 52.0456 58.0035 52.2819C58.0453 52.3589 57.9415 52.4409 57.8797 52.3774C57.7138 52.2048 57.5378 52.0489 57.3522 51.9097C57.2584 52.0255 57.1496 52.1428 57.0222 52.2685L57.0123 52.2551C56.6138 52.6522 55.9809 52.6907 55.4868 52.2685L55.3572 52.156C54.9955 51.8388 54.747 51.5745 54.6465 51.0502C54.6415 51.0234 54.6363 50.9966 54.6331 50.9698C53.7139 50.9379 52.7796 51.1556 51.9525 51.6133C50.6415 52.3388 49.719 53.3728 49.1733 54.6496C49.3908 54.9044 49.6453 55.1323 49.9416 55.3233C49.9835 55.3518 49.9467 55.4138 49.9015 55.392C49.5984 55.2496 49.3272 55.0736 49.0844 54.8675C48.8885 55.3702 48.7512 55.9098 48.6675 56.4812C48.3728 58.4988 48.8985 60.9637 50.7202 62.1133C51.5088 62.611 52.4096 62.8808 53.3439 62.8841C53.7991 62.8856 54.1927 62.8087 54.6348 62.6998C54.9345 62.626 55.2325 62.5188 55.5456 62.5188C55.8135 62.5188 56.0613 62.5858 56.2907 62.7199L56.227 62.7255C56.0724 62.74 56.1022 62.7465 56.3174 62.7465C56.9872 62.7752 57.3704 63.4555 57.0625 64.047L57.0221 64.1384C57.0136 64.1569 57.0064 64.1722 57.0007 64.1843L56.9764 64.3412C56.974 64.3561 56.9714 64.3715 56.9688 64.3872L56.9594 64.419C56.9578 64.4241 56.9559 64.4291 56.9537 64.4341L57.9581 65.9671C59.1896 67.8425 60.4486 69.7106 61.8812 71.4235C62.8858 72.625 63.9506 73.803 65.0758 74.8939C66.0871 75.8742 67.2993 76.3468 68.4445 77.1176C69.0558 77.5265 69.2348 78.3828 68.6791 78.9341C67.0481 80.5545 64.7392 79.2676 63.4015 77.9504C62.1357 76.702 61.0424 75.2006 60.0997 73.6975C58.4271 71.0247 57.096 68.1827 56.5133 65.0977C56.2706 65.3206 55.9608 65.4597 55.6477 65.5686C55.0198 65.7864 54.3284 65.8769 53.6653 65.9004C52.3945 65.9423 51.122 65.6339 49.9785 65.0877C45.3256 62.8673 44.6424 56.2181 47.4871 52.2969C47.1035 51.1837 46.8893 49.9757 46.6565 48.9456L46.5507 48.4852C45.3742 43.342 44.5845 37.9269 46.67 32.8872C46.9379 32.237 47.2393 31.6036 47.5959 30.997C47.8822 30.5093 48.3745 29.9899 48.5101 29.4352C48.8115 28.2169 46.9513 26.9367 46.4088 25.9698C45.7709 24.8354 45.6805 23.4965 46.5495 22.459C46.66 22.3285 46.7804 22.2077 46.9111 22.1023C46.0874 20.6075 46.0489 18.7274 47.1338 17.2528C47.8471 16.2808 48.9354 15.6005 50.1241 15.3944C50.8508 15.2687 51.7248 15.3156 52.5234 15.5402C56.8966 11.4766 61.8862 8.08158 67.3192 5.61493ZM50.5259 56.4611C51.6931 55.4305 52.9823 54.891 54.5729 55.0267C56.1719 55.1639 58.0973 55.826 59.0365 57.1984C59.7784 58.2826 58.2665 59.8728 57.1782 59.0585C56.187 58.3161 55.5254 57.4783 54.295 57.0794C53.1898 56.7225 51.8218 56.4929 50.6649 56.6974C50.5376 56.7192 50.4106 56.5616 50.5259 56.4611Z" fill="#262626"/>
<path fill-rule="evenodd" clip-rule="evenodd" d="M107.84 47.468C106.243 58.2745 95.1 59.4696 93.1202 48.7414C93.4379 48.6021 93.6665 48.328 93.6188 47.7958C93.6076 45.4578 94.3327 42.9868 96.44 41.6866C98.6176 40.3451 101.166 40.212 103.686 40.2459C108.495 40.1312 108.394 44.1541 107.84 47.468M91.3757 42.7681C89.8665 42.7045 87.9571 42.7578 86.6051 43.6781C86.2334 42.6763 85.2676 41.6067 84.2918 41.0348C87.9187 41.141 91.6521 40.7838 95.3061 40.5064C94.4315 41.1032 93.6178 41.9997 93.0888 43.0361C92.5981 42.7742 91.8952 42.7986 91.3757 42.7681M84.7233 48.6137C80.5383 63.0309 70.0921 56.7469 68.9533 54.8993C66.899 51.8418 66.5126 44.4093 68.3019 42.4221C70.8633 40.6251 74.4894 41.0876 77.5152 41.0435C83.0741 41.1186 87.0221 42.7829 84.7233 48.6137M112.781 41.9827C111.644 41.8339 110.429 41.8039 109.372 42.305C109.046 40.9203 108.024 39.7628 106.871 39.2533C106.731 39.0781 106.752 38.9839 106.275 39.0102C103.346 38.1291 100.068 38.5953 97.253 39.4988C92.8074 39.8735 88.1433 40.169 83.6603 40.6852C79.4608 38.7977 66.7874 38.5211 65.9998 43.1733C65.0091 43.025 63.3219 42.2447 62.4894 43.3032C56.383 42.2671 50.0733 43.7071 43.9405 44.3484C42.3968 44.6329 41.6016 47.6991 43.354 47.6572C44.3391 47.3896 43.3237 45.7479 44.6502 45.6244C50.5674 44.9776 56.3552 44.06 62.333 43.9525C62.1251 44.9856 66.2867 45.0528 66.3482 44.4496C66.3571 44.4541 66.3664 44.4571 66.3755 44.4611C65.3471 48.2968 66.2754 53.817 68.1338 56.1955C70.7377 59.31 77.2751 60.2034 80.1739 58.1996C83.9131 56.3501 87.803 47.0664 86.7104 43.982C88.6934 43.353 90.6539 43.5418 92.712 43.8622C92.2408 45.1943 91.4274 48.4733 92.5976 48.7577C92.3828 55.2678 98.3027 59.3299 103.76 56.6593C108.483 54.4402 110.135 47.4159 109.557 43.1524C110.145 44.2895 115.082 43.0515 112.781 41.9827" fill="#262626"/>
<path fill-rule="evenodd" clip-rule="evenodd" d="M85.9086 68.6619C84.7843 68.2021 83.7811 67.4352 83.0476 66.4555C82.7926 66.1149 82.7265 65.7553 82.78 65.4263C82.8401 65.0565 83.0585 64.7212 83.3562 64.4964C83.6548 64.2708 84.0284 64.1596 84.3895 64.2163C84.7034 64.2656 85.0158 64.4378 85.263 64.795L85.3147 64.8664C85.7507 65.4577 86.3189 65.9429 86.9663 66.2556C87.5904 66.557 88.2883 66.6977 89.0105 66.6159C90.386 66.4601 91.3341 65.7145 92.3417 64.7019C92.4666 64.5741 92.5916 64.4422 92.7172 64.3083C92.7965 64.1868 92.9066 64.1088 93.0288 64.0678C93.1645 64.0224 93.318 64.0249 93.4586 64.0741C93.5942 64.1215 93.7154 64.2114 93.7967 64.331C93.8739 64.4447 93.9177 64.5852 93.9035 64.7468C93.8113 65.7961 93.264 66.7326 92.4865 67.468C91.623 68.2847 90.4784 68.8497 89.4009 69.0479C88.2137 69.2662 87.004 69.1098 85.9086 68.6619ZM89.9609 52.4734C91.2239 53.2429 93.1484 55.0373 91.7897 56.9451C90.1903 58.6272 87.8876 56.6986 86.7529 55.8263C85.7007 55.1503 84.5185 56.8889 85.4947 57.6783C93.6944 63.7633 97.0219 52.6746 90.5997 51.5686C89.8926 51.4467 89.63 52.2353 89.9609 52.4734ZM75.2671 45.395C75.4067 43.6587 78.0448 43.2644 78.3072 44.9825C78.5422 46.5216 78.2656 47.9354 77.5739 49.3211C76.9131 50.6449 75.2521 50.0272 75.1265 48.8218C74.9582 47.206 75.1803 46.475 75.2671 45.395ZM95.3488 44.6263C95.7166 44.1435 96.2476 43.8139 96.8839 44.0001C98.8717 44.5824 98.2858 47.4112 97.5877 48.7881C97.2083 49.5358 95.9822 49.7255 95.428 49.0671C94.5249 47.9934 94.0923 45.8493 95.2406 44.7918C95.2717 44.7371 95.3063 44.682 95.3488 44.6263ZM77.5459 37.7976L77.8599 37.7425C78.8313 37.5741 80.0392 37.4123 80.7264 38.1951C81.0908 38.6102 81.2163 39.3818 80.7264 39.7791C79.8646 40.4782 78.9119 40.2073 77.8793 40.2665C77.0283 40.3154 76.2104 40.4566 75.3906 40.6915C73.5923 41.2067 72.1269 42.1472 70.591 43.18C70.3895 43.3154 70.1837 43.0571 70.2799 42.8681C71.1665 41.1274 72.8848 39.6975 74.6059 38.8258C75.5245 38.3606 76.5297 37.9747 77.5459 37.7976ZM93.5367 37.0179L93.777 37.0672C96.3925 37.6152 99.7906 38.7098 101.029 41.2849C101.076 41.649 101.026 41.727 100.986 41.778L100.972 41.795C100.939 41.8385 100.912 41.8985 100.755 41.9481C100.711 41.9377 100.667 41.9266 100.622 41.9149C100.055 41.7658 99.6055 41.5603 99.1707 41.3471L98.6992 41.1143C98.1521 40.8454 97.6003 40.5864 97.0154 40.3951C95.7673 39.9871 94.4836 39.6996 93.1799 39.5461C92.8973 39.5129 92.6252 39.4173 92.4106 39.2535C92.2068 39.098 92.0512 38.8827 91.9802 38.5965C91.8882 38.2261 91.9147 37.9458 92.1129 37.6116C92.262 37.3607 92.4753 37.1868 92.7202 37.0869C92.9699 36.9851 93.2541 36.9611 93.5367 37.0179Z" fill="#262626"/>
</g>
<defs>
<clipPath id="clip0_98_192">
<rect width="137" height="133" fill="white"/>
</clipPath>
</defs>
</svg>
