<svg width="28" height="28" viewBox="0 0 28 28" fill="none" xmlns="http://www.w3.org/2000/svg">
<path d="M23.1661 12.4975L23.1661 12.4975L23.1708 12.5009C23.435 12.6931 23.6312 12.9467 23.726 13.2615C23.8088 13.5364 23.8224 13.8187 23.7481 14.0963C23.6759 14.3656 23.5331 14.6006 23.3362 14.7992C23.1023 15.0352 22.8046 15.16 22.4794 15.1953L15.9696 16.0025C15.8354 16.0191 15.7137 16.0894 15.6322 16.1973L11.6783 21.4314C11.4851 21.6954 11.2282 21.8908 10.9068 21.9754C10.6364 22.0465 10.3615 22.0527 10.0922 21.9806C9.81458 21.9062 9.57687 21.7532 9.3802 21.5441C9.15495 21.3045 9.03345 21.0078 8.99909 20.6829L8.99906 20.6829L8.99852 20.6771L7.46645 4.38382C7.4276 4.0787 7.47438 3.77813 7.63205 3.50783C7.77128 3.26914 7.96324 3.07725 8.20251 2.93911C8.44178 2.80096 8.70394 2.73066 8.98027 2.72943C9.29319 2.72804 9.57689 2.83781 9.8217 3.02402L23.1661 12.4975Z" fill="#4166DE" stroke="black"/>
</svg>
