<svg width="137" height="133" viewBox="0 0 137 133" fill="none" xmlns="http://www.w3.org/2000/svg">
<g clip-path="url(#clip0_94_129)">
<path fill-rule="evenodd" clip-rule="evenodd" d="M132.396 196.454C135.632 196.298 134.331 190.633 134.098 188.553C131.536 180.954 132.139 172.664 131.131 164.7C130.503 157.265 129.697 149.853 129.018 142.424C127.686 127.344 118.118 96.6442 107.199 91.707C105.823 85.6667 100.142 80.0282 92.9543 80.0282C88.0519 74.2203 82.1511 70.1329 74.5827 70.9582C71.4551 71.1006 68.422 74.4205 65.4251 75.0617C63.7471 75.2933 48.8557 74.6972 45.8727 76.4703C43.7949 77.538 41.9192 79.5112 42.5301 82.0233C43.5049 85.0667 40.4756 81.7736 34.1562 85.0219C21.2701 92.7676 28.9703 103.13 29.3116 103.451C21.2701 114.648 14.2416 123.733 10.9895 137.419C8.88192 147.581 9.11917 158.071 7.35327 168.284C6.72976 171.826 5.77322 175.246 4.73816 178.685C3.61637 183.186 3.0709 194.404 2.45258 194.504C1.32626 194.784 3.10352 197.098 4.29698 197.1C37.3855 202.593 70.9953 197.328 104.262 196.467C113.637 196.141 123.022 196.066 132.396 196.454Z" fill="#FDFFFC"/>
<path fill-rule="evenodd" clip-rule="evenodd" d="M82.2456 104.439C82.261 104.287 82.4653 104.288 82.481 104.439L82.7146 106.696C82.9989 109.453 83.2725 112.204 83.4709 114.973C83.7182 118.427 83.8836 121.879 83.9633 125.341C84.2412 137.395 84.2965 149.456 84.3199 161.514C85.9492 161.401 87.5786 161.292 89.2089 161.187C90.315 161.115 91.4211 161.047 92.5274 160.979L95.3481 160.808V160.808L96.5094 160.737C97.2942 160.688 98.1858 160.49 98.7344 161.186C98.9541 161.465 99.0643 161.827 98.8595 162.157C98.3872 162.92 97.6617 162.893 96.8411 162.926C96.0669 162.958 95.2927 162.988 94.5185 163.018C92.8594 163.083 91.2005 163.143 89.5409 163.19C87.7993 163.239 86.0585 163.279 84.3176 163.308C84.3 168.398 84.0895 173.482 83.862 178.567L83.759 180.855C83.4806 187.043 83.1811 193.236 82.7556 199.416C82.7206 199.921 82.0055 199.92 81.9709 199.416C81.4917 192.456 81.1756 185.482 80.8621 178.514C80.6348 173.462 80.5025 168.408 80.4395 163.353C80.2093 163.355 79.9793 163.358 79.7492 163.359C73.2149 163.387 66.6822 163.416 60.1478 163.355C60.1587 163.367 60.1694 163.38 60.1766 163.397C60.6495 164.515 60.6945 165.94 60.6829 167.139C60.6697 168.514 60.4847 169.873 60.1683 171.21C59.0345 176 56.1102 180.291 52.7796 183.839L52.6708 183.954C51.8853 184.785 50.984 185.62 50.5016 186.678C50.0089 187.758 49.8379 189.022 49.5947 190.183L49.5663 190.317L48.6156 194.711C48.3136 196.107 48.2279 198.143 47.1238 199.15C46.0938 200.09 44.7292 199.599 44.2445 198.389C43.8659 197.445 44.243 196.408 44.4672 195.464L46.2237 188.074C46.5124 186.869 46.8277 185.656 47.4507 184.573C48.0887 183.465 49.0242 182.661 49.9787 181.838C51.7861 180.281 53.4454 178.498 54.8486 176.568C56.2514 174.638 57.4502 172.511 58.2908 170.274C58.7118 169.154 59.0567 167.991 59.2946 166.818C59.5208 165.705 59.5188 164.553 59.7607 163.452C59.7773 163.376 59.8414 163.324 59.9149 163.301C59.8975 163.251 59.9241 163.185 59.9928 163.181L65.3368 162.837C70.0871 162.53 74.8372 162.216 79.5833 161.856L80.422 161.796V161.796C80.3568 155.052 80.4121 148.307 80.5338 141.56C80.6453 135.374 80.6477 129.185 80.8315 123C80.9229 119.93 81.12 116.867 81.3393 113.803C81.5637 110.67 81.9228 107.563 82.2456 104.439ZM32.0677 140.31C32.0108 139.967 32.4426 139.754 32.6417 140.068C34.9172 143.658 36.0144 147.557 36.4768 151.758C36.8854 155.465 36.765 159.226 36.5616 162.944C36.3446 166.908 36.0914 170.872 35.8354 174.835L35.4421 180.911V180.911L34.4551 196.145C34.3845 197.235 34.1373 198.226 33.1999 198.732C33.0812 198.831 32.9574 198.92 32.8133 198.997C32.3068 199.268 31.6351 199.132 31.3422 198.611L31.4596 198.689C31.5619 198.753 31.4471 198.663 31.115 198.419L30.8332 198.054V198.054C30.6285 197.746 30.4977 197.443 30.4451 197.077C30.3634 196.508 30.4692 195.884 30.5064 195.312L31.1534 185.323V185.323C31.6565 177.557 32.244 169.794 32.6869 162.024C32.8931 158.403 33.0376 154.778 32.9399 151.15C32.8424 147.543 32.6587 143.874 32.0677 140.31ZM51.7533 73.44L51.8796 73.4188C56.3994 72.6674 61.3142 72.808 65.4449 74.9886C65.479 75.0066 65.4635 75.0634 65.4251 75.0617L64.0956 75.0085C59.8865 74.8436 55.6905 74.7459 51.5519 75.7357L51.1282 75.8378C49.6378 76.2017 48.0814 76.6471 46.8842 77.6322C45.74 78.574 45.1702 80.0267 44.6224 81.364L44.5491 81.5405C43.9933 82.8614 43.2898 84.1141 42.0714 84.94C40.4934 86.0096 38.5955 85.8786 36.7861 86.0239C33.6002 86.2801 30.9955 88.5909 29.6996 91.4187C28.9148 93.1309 28.5801 95.0506 28.5138 96.923C28.4798 97.8764 28.475 98.8669 28.6019 99.8138C28.6424 100.117 29.0164 101.22 29.2072 101.193C29.6309 101.134 30.0184 101.356 30.1505 101.695C31.1972 100.683 32.2742 99.6995 33.3857 98.7519C36.1566 96.3903 39.141 94.2499 42.2841 92.4107C44.6829 91.0068 47.2131 89.6159 49.8332 88.5644C49.6256 88.5601 49.4208 88.6013 49.2228 88.7043C49.136 88.7498 49.0498 88.6408 49.1183 88.5688C49.9436 87.6997 50.9321 87.5761 51.9286 87.8078C52.1413 87.7401 52.3541 87.6746 52.5677 87.6124C52.674 87.5814 52.7269 87.7281 52.6402 87.7847L52.3954 87.9412V87.9412C53.4826 88.3057 54.5499 89.0221 55.395 89.5874C57.8224 91.211 59.959 93.1959 62.1249 95.1436L62.5187 95.4967C64.4251 97.2004 66.3802 98.8559 68.5462 100.223C69.6801 100.938 70.871 101.6 72.1202 102.092C73.1916 102.514 74.9361 102.78 75.4379 103.914C75.8839 104.456 75.6975 105.148 75.1752 105.513C74.2941 106.483 72.5317 105.856 71.482 105.452C70.2163 104.965 68.9902 104.379 67.8209 103.692C65.5507 102.359 63.4575 100.7 61.5076 98.9359C59.4711 97.0933 57.5501 95.1359 55.5694 93.2355C54.7112 92.412 53.8728 91.5692 53.0133 90.747L52.5816 90.3378C52.1429 89.9261 51.5179 89.2843 50.8497 88.8959C49.5908 89.6474 48.3124 90.368 47.0649 91.139C45.3234 92.2151 43.6332 93.3689 41.9691 94.5606C38.7655 96.8548 35.7296 99.4244 32.9112 102.179C27.7423 107.23 23.3385 112.997 19.4914 119.105L19.1993 119.57C17.0132 123.066 14.9458 126.674 13.48 130.537C11.8671 134.787 11.0827 139.257 10.6566 143.769C10.2336 148.248 10.091 152.75 9.61833 157.226C9.13361 161.816 8.17858 166.304 7.09229 170.784L6.83321 171.846C5.85028 175.859 4.83577 179.871 4.3305 183.978C4.06077 186.172 3.89853 188.396 3.9352 190.608C3.97203 192.832 4.32129 195.007 4.60308 197.208C4.71107 198.052 3.88195 198.755 3.14006 198.867C2.28683 198.995 1.55382 198.451 1.28861 197.657C0.461828 195.185 0.311642 192.451 0.337594 189.855C0.363713 187.22 0.699748 184.603 1.17257 182.013C2.10249 176.919 3.53755 171.931 4.73803 166.898C5.79603 162.462 6.50611 158.018 6.88886 153.474C7.28617 148.759 7.52409 144.029 8.2489 139.348C8.96434 134.727 10.3105 130.313 12.3406 126.099C14.189 122.263 16.4932 118.652 18.9089 115.152C21.8425 110.902 25.0644 106.858 28.6658 103.173C28.3424 103.159 28.0102 103.054 27.7051 102.864C26.7719 102.281 26.3372 101.141 26.2036 100.101C25.8908 97.6664 25.9663 95.125 26.5919 92.745C27.601 88.9056 30.2199 85.4942 34.0156 84.1102C34.9926 83.7539 36.0312 83.6239 37.0666 83.5983C38.049 83.5738 39.1221 83.702 40.0701 83.3903C41.5791 82.8939 42.2259 81.1153 42.7924 79.767L42.8185 79.7051C43.545 77.987 44.417 76.5144 45.9905 75.4416C47.6693 74.2968 49.7727 73.7762 51.7533 73.44V73.44ZM94.6991 80.2347C96.0573 79.7632 97.7554 80.1911 99.0836 80.603C100.563 81.0622 101.931 81.9077 103.103 82.912C104.34 83.9711 105.362 85.2788 106.084 86.7397L106.153 86.8804C106.813 88.2355 107.564 90.0959 107.232 91.5847C107.222 91.6269 107.211 91.6676 107.199 91.707C109.894 93.0347 112.382 94.6976 114.549 96.8053C117.073 99.2594 119.21 102.052 121.018 105.069C128.2 117.052 129.464 131.443 130.312 145.108L130.524 148.573C130.984 156.055 131.523 163.519 132.923 170.897L133.025 171.43C134.522 179.155 136.664 186.94 136.447 194.865C136.382 197.24 132.876 197.223 132.774 194.865C132.391 185.988 130.322 177.418 128.92 168.68C126.454 153.307 127.69 137.458 124.195 122.238C122.824 116.266 120.7 110.472 117.667 105.141C116.168 102.507 114.454 99.9626 112.446 97.6905C110.718 95.7354 108.922 93.8539 106.903 92.2104C106.258 92.8572 104.969 92.5276 104.632 91.5847C104.401 90.9367 104.468 90.1791 104.32 89.5002C104.182 88.8703 103.992 88.2458 103.739 87.6526C103.234 86.4704 102.493 85.3351 101.638 84.3783C100.714 83.344 99.6527 82.4847 98.4648 81.7752C97.2687 81.0608 95.9605 80.8475 94.6991 80.3255C94.6566 80.3079 94.6525 80.251 94.6991 80.2347ZM99.9759 162.394C99.9779 162.332 100.051 162.302 100.097 162.344C100.573 162.783 100.861 163.412 101.211 163.951C101.615 164.573 102.04 165.183 102.485 165.776C103.376 166.965 104.369 168.086 105.37 169.184C106.3 170.205 107.292 171.183 108.321 172.105C109.436 173.105 110.685 173.996 111.698 175.102C113.811 177.411 114.153 180.579 114.598 183.554L114.647 183.876C114.919 185.641 115.163 187.411 115.382 189.184C115.489 190.047 115.596 190.91 115.683 191.774L115.709 192.048C115.787 192.894 115.808 193.753 115.322 194.493C114.802 195.284 113.621 195.561 112.918 194.802C111.711 193.499 111.937 191.184 111.78 189.508C111.65 188.121 111.503 186.737 111.338 185.354L111.254 184.663C111.06 183.09 110.902 181.486 110.543 179.941C110.226 178.58 109.622 177.552 108.631 176.566C107.633 175.573 106.596 174.646 105.674 173.576C104.697 172.442 103.815 171.226 103.021 169.956C102.342 168.87 101.797 167.689 101.298 166.508L101.216 166.312C100.733 165.161 99.9382 163.662 99.9759 162.394ZM117.408 112.953C117.418 112.793 117.655 112.79 117.659 112.953C117.689 114.334 117.718 115.715 117.746 117.096C117.977 128.223 117.835 139.376 118.95 150.465C119.476 155.693 120.445 160.845 121.566 165.975C122.139 168.6 122.741 171.219 123.313 173.844C123.87 176.403 124.468 178.974 124.91 181.556C125.344 184.094 125.733 186.652 125.908 189.223L125.929 189.558C126.004 190.803 126.363 192.635 125.678 193.739C124.936 194.934 123.514 194.956 122.719 193.814C121.972 192.743 122.158 190.836 122.026 189.558C121.892 188.255 121.75 186.952 121.589 185.652C121.274 183.118 120.86 180.588 120.43 178.071C119.533 172.828 118.232 167.651 117.272 162.416C116.287 157.052 115.588 151.65 115.558 146.189C115.529 140.682 116.112 135.185 116.406 129.689C116.704 124.108 117.044 118.531 117.408 112.953ZM64.8876 78.344C65.1861 77.338 66.2396 76.7091 67.2673 76.9917C68.2091 77.2507 68.9867 78.3947 68.6185 79.3735C68.2166 80.4416 67.5144 81.3524 66.9224 82.3231C66.3756 83.2201 65.5779 83.9264 65.0209 84.8075L65.6347 85.4698C65.9418 85.8002 66.2498 86.1286 66.5613 86.4514L67.6319 87.5614C68.4657 88.424 69.3048 89.282 70.1676 90.1147C72.7045 92.5637 75.2816 94.9323 78.1227 97.0297C78.7695 97.5069 79.4213 97.9815 80.0914 98.4259L80.3412 98.5916C80.801 98.8928 81.3139 99.1889 81.8692 99.1379C83.2186 99.0139 84.4379 97.5796 85.3652 96.6869L85.4137 96.6404C87.7117 94.4521 89.8396 92.0595 91.6999 89.4869C92.113 88.9154 92.513 88.3341 92.9024 87.7459C92.003 86.6944 92.2178 84.6418 92.1682 83.3666C92.1332 82.4699 92.1306 81.5731 92.1257 80.6757L92.1233 80.4948C92.1123 79.914 92.0861 79.3569 92.4628 78.879C92.4847 78.8514 92.5301 78.8522 92.558 78.8668C93.0738 79.1373 93.2328 79.5902 93.4529 80.0983L93.4759 80.151C93.7438 80.7608 94.0003 81.3763 94.2598 81.9896C94.5315 82.6318 94.7807 83.2833 95.0332 83.9331C95.1507 84.2354 95.2629 84.5389 95.3725 84.844C95.4394 85.0389 95.5085 85.2328 95.5795 85.4264L95.5962 85.4413C95.69 85.5209 95.7695 85.605 95.838 85.6918C96.1258 85.8359 96.3545 86.0985 96.4619 86.4842C96.6954 87.3239 96.212 88.0086 95.7809 88.6751C94.0296 91.383 92.0331 93.9634 89.814 96.3043C88.7116 97.4672 87.5522 98.5779 86.345 99.6314L86.1339 99.8143C85.0495 100.747 83.8722 101.63 82.4239 101.849C80.729 102.104 79.3497 101.26 78.0523 100.289L77.9228 100.191C76.6929 99.2592 75.4877 98.2947 74.32 97.2857C71.9393 95.2286 69.6745 93.0199 67.6645 90.5966C65.7092 88.2395 63.7765 85.604 62.5714 82.7678C62.4979 82.5951 62.6911 82.4143 62.8424 82.5585C63.4311 83.1194 63.9975 83.7108 64.5573 84.3097C64.5728 83.4281 64.4103 82.5389 64.5007 81.6518C64.611 80.5735 64.5792 79.3822 64.8876 78.344Z" fill="#262626"/>
<path fill-rule="evenodd" clip-rule="evenodd" d="M67.3194 5.33411C77.588 0.672276 89.2347 -1.0956 100.436 0.063992C105.965 0.635444 111.421 1.86145 116.613 3.85298L117.068 4.02901C118.35 4.52273 119.731 5.0128 120.705 6.0178C121.839 7.18577 122.157 8.95197 121.346 10.3948C120.717 11.5158 119.585 12.32 118.378 12.7491C118.803 13.0977 119.207 13.4865 119.585 13.9205C120.223 14.6477 120.272 15.6848 119.585 16.4022C118.262 17.7847 116.546 18.7849 114.698 19.2643C114.905 20.2681 114.793 21.3791 114.348 22.3795C113.07 25.2511 109.47 25.5934 106.7 25.4229L106.616 25.4175L106.462 27.1821C106.38 28.1221 105.817 28.8511 104.863 28.9952C104.829 29.0002 104.796 29.0036 104.762 29.0067C106.273 34.4731 107.185 40.1083 108.027 45.7104C108.467 48.6347 108.861 51.5658 109.238 54.4988L109.363 55.4765C109.765 58.6385 110.267 61.8325 110.442 65.018C110.597 67.9086 110.046 70.6685 108.267 73.0011C106.669 75.0924 104.491 76.6592 102.149 77.8221C96.8562 80.4511 91.2858 82.4085 85.4324 83.3168L85.042 83.3769C82.7826 83.722 80.4546 84.013 78.2194 83.3872C76.2556 82.8375 74.196 81.4199 74.6397 79.1426C74.7887 78.3734 75.8637 78.3399 76.232 78.9348L76.317 79.0711C76.7587 79.7725 77.2428 80.4244 78.0136 80.7863C78.9159 81.2121 79.9624 81.3309 80.9485 81.3428C83.7028 81.3746 86.5709 80.6876 89.223 79.9989C94.1756 78.7121 99.2622 76.6139 103.319 73.4351C105.045 72.0845 106.432 70.3954 106.921 68.222C107.525 65.5425 106.969 62.6133 106.695 59.9205C106.129 54.3639 105.457 48.8177 104.747 43.2776L104.605 42.1696C104.007 37.538 103.38 32.9046 103.081 28.2461C102.957 28.0769 102.874 27.8842 102.84 27.673L102.794 27.3697C102.753 27.11 102.746 26.8721 102.775 26.6525C102.777 25.8113 102.8 24.9751 102.849 24.1338C102.857 23.9831 102.864 23.8323 102.869 23.6832C101.995 23.8759 101.114 24.0317 100.23 24.1641C94.0149 25.1008 87.7027 25.3354 81.4374 24.8696C78.3115 24.6365 75.2092 24.2362 72.1165 23.7351C70.5425 23.4804 68.9738 23.1989 67.41 22.8839C66.2799 22.6576 65.1731 22.351 64.0614 22.0628C62.9145 23.7334 62.295 25.7895 62.4155 27.8088C62.5512 30.1129 64.0848 32.2025 63.6545 34.5569C63.2507 36.7603 61.3645 37.4435 59.5024 37.9892L58.7103 38.2182C58.101 38.3962 57.6586 38.568 57.5483 39.3008C57.3591 40.5593 57.5918 41.9753 57.6404 43.2404C57.699 44.7368 57.7758 46.2332 57.8112 47.7297C57.8296 48.5038 57.8596 49.2814 57.8581 50.0555C57.8564 50.6052 57.7743 50.9805 57.5617 51.3356C57.7258 51.5419 57.873 51.7648 58.0037 52.001C58.0456 52.0781 57.9418 52.1601 57.88 52.0966C57.7141 51.924 57.5381 51.7681 57.3524 51.6289C57.2587 51.7447 57.1498 51.862 57.0224 51.9876L57.0125 51.9742C56.614 52.3714 55.9811 52.4099 55.4871 51.9876L55.3574 51.8752C54.9958 51.558 54.7473 51.2937 54.6467 50.7694C54.6417 50.7426 54.6365 50.7158 54.6333 50.689C53.7141 50.6571 52.7799 50.8748 51.9527 51.3324C50.6418 52.058 49.7192 53.0919 49.1735 54.3688C49.391 54.6235 49.6455 54.8514 49.9419 55.0425C49.9837 55.071 49.9469 55.133 49.9017 55.1112C49.5987 54.9687 49.3274 54.7928 49.0846 54.5867C48.8887 55.0894 48.7515 55.629 48.6677 56.2004C48.3731 58.2179 48.8988 60.6829 50.7204 61.8325C51.5091 62.3301 52.4098 62.5999 53.3441 62.6033C53.7993 62.6048 54.193 62.5279 54.635 62.419C54.9347 62.3452 55.2327 62.238 55.5458 62.238C55.8137 62.238 56.0615 62.305 56.2909 62.4391L56.2273 62.4446C56.0727 62.4592 56.1024 62.4657 56.3177 62.4657C56.9874 62.4944 57.3707 63.1747 57.0628 63.7662L57.0224 63.8576C57.0139 63.8761 57.0066 63.8913 57.001 63.9035L56.9766 64.0604C56.9742 64.0753 56.9717 64.0906 56.969 64.1064L56.9597 64.1382C56.958 64.1433 56.9562 64.1483 56.9539 64.1533L57.9584 65.6863C59.1899 67.5617 60.4488 69.4298 61.8814 71.1427C62.886 72.3442 63.9509 73.5222 65.076 74.6131C66.0873 75.5934 67.2995 76.066 68.4448 76.8368C69.0561 77.2457 69.235 78.102 68.6793 78.6533C67.0484 80.2737 64.7395 78.9867 63.4017 77.6696C62.1359 76.4212 61.0426 74.9198 60.1 73.4167C58.4273 70.7439 57.0962 67.9019 56.5136 64.8169C56.2708 65.0398 55.9611 65.1789 55.648 65.2878C55.0201 65.5056 54.3286 65.5961 53.6656 65.6196C52.3948 65.6615 51.1223 65.3531 49.9787 64.8068C45.3258 62.5865 44.6427 55.9373 47.4873 52.0161C47.1038 50.9028 46.8895 49.6949 46.6568 48.6648L46.5509 48.2044C45.3744 43.0611 44.5848 37.6461 46.6703 32.6063C46.9382 31.9562 47.2395 31.3227 47.5962 30.7161C47.8825 30.2285 48.3747 29.709 48.5104 29.1544C48.8117 27.9361 46.9516 26.6559 46.4091 25.689C45.7712 24.5545 45.6808 23.2156 46.5497 22.1782C46.6602 22.0477 46.7806 21.9269 46.9114 21.8215C46.0876 20.3267 46.0491 18.4466 47.1341 16.9719C47.8473 16 48.9356 15.3197 50.1244 15.1136C50.851 14.9879 51.725 15.0348 52.5237 15.2594C56.8968 11.1958 61.8865 7.80076 67.3194 5.33411ZM50.5261 56.1803C51.6933 55.1497 52.9825 54.6101 54.5731 54.7459C56.1721 54.8831 58.0976 55.5452 59.0367 56.9176C59.7786 58.0018 58.2667 59.592 57.1784 58.7776C56.1872 58.0353 55.5257 57.1974 54.2952 56.7986C53.19 56.4417 51.8221 56.2121 50.6651 56.4166C50.5379 56.4383 50.4108 56.2808 50.5261 56.1803Z" fill="#262626"/>
<path fill-rule="evenodd" clip-rule="evenodd" d="M106.84 49.1868C105.243 59.9933 94.1 61.1885 92.1202 50.4602C92.438 50.321 92.6665 50.0468 92.6188 49.5146C92.6076 47.1766 93.3327 44.7056 95.44 43.4055C97.6176 42.0639 100.166 41.9308 102.686 41.9647C107.495 41.8501 107.394 45.8729 106.84 49.1868M90.3757 44.487C88.8665 44.4233 86.9571 44.4766 85.6051 45.3969C85.2334 44.3951 84.2676 43.3255 83.2918 42.7536C86.9187 42.8598 90.6521 42.5026 94.3062 42.2253C93.4315 42.822 92.6178 43.7185 92.0889 44.7549C91.5981 44.493 90.8952 44.5175 90.3757 44.487M83.7233 50.3325C79.5383 64.7497 69.0921 58.4658 67.9533 56.6181C65.899 53.5606 65.5126 46.1282 67.3019 44.1409C69.8633 42.3439 73.4894 42.8064 76.5152 42.7623C82.0741 42.8374 86.0221 44.5017 83.7233 50.3325M111.781 43.7016C110.644 43.5528 109.429 43.5228 108.372 44.0238C108.046 42.6392 107.024 41.4816 105.871 40.9722C105.731 40.7969 105.752 40.7027 105.275 40.729C102.346 39.8479 99.0679 40.3141 96.253 41.2176C91.8074 41.5923 87.1433 41.8878 82.6603 42.4041C78.4608 40.5165 65.7874 40.2399 64.9998 44.8922C64.0091 44.7439 62.3219 43.9635 61.4894 45.022C55.383 43.9859 49.0733 45.4259 42.9405 46.0672C41.3968 46.3517 40.6016 49.4179 42.354 49.376C43.3391 49.1084 42.3237 47.4667 43.6502 47.3432C49.5674 46.6964 55.3552 45.7788 61.333 45.6714C61.1251 46.7044 65.2867 46.7716 65.3482 46.1684C65.3571 46.1729 65.3664 46.1759 65.3755 46.1799C64.3471 50.0156 65.2754 55.5358 67.1339 57.9143C69.7377 61.0288 76.2751 61.9223 79.1739 59.9184C82.9131 58.069 86.803 48.7852 85.7104 45.7009C87.6934 45.0718 89.6539 45.2606 91.712 45.581C91.2408 46.9131 90.4274 50.1921 91.5976 50.4765C91.3828 56.9866 97.3027 61.0487 102.76 58.3781C107.483 56.159 109.135 49.1347 108.557 44.8712C109.145 46.0083 114.083 44.7703 111.781 43.7016" fill="#262626"/>
<path fill-rule="evenodd" clip-rule="evenodd" d="M94.6286 63.5166L94.7667 63.5094C95.7085 63.4558 96.6231 63.3178 97.4643 63.8467C98.5826 64.5497 98.5876 66.1484 97.4643 66.85C96.5805 67.4025 95.6201 67.2211 94.6286 67.1952C93.8121 67.1739 92.9954 67.1592 92.1786 67.1505C90.5464 67.1334 88.9151 67.1294 87.2827 67.1376C85.8099 67.1449 84.3359 67.1276 82.8635 67.092L82.2326 67.0757C80.7224 67.0341 79.1412 67.0864 77.6536 66.7917L77.5897 66.7806L77.5915 66.7775V66.7775C77.3338 66.6906 77.1975 66.2787 77.5056 66.1355C78.9816 65.4496 80.6691 65.1621 82.2542 64.8359C83.8592 64.5059 85.4918 64.2675 87.1196 64.0808C88.7452 63.8947 90.3826 63.7632 92.0156 63.6588C92.886 63.6028 93.7572 63.5567 94.6286 63.5166ZM89.6889 42.4391L89.7966 42.3668C90.9788 41.5844 92.6776 40.831 94.0398 41.425C94.1168 41.4585 94.1818 41.5023 94.2384 41.5526C94.5727 41.5591 94.9092 41.5869 95.2468 41.6379C97.9134 42.0408 100.377 43.7949 101.582 46.21C102.952 48.9549 102.301 51.8476 99.878 53.7146C98.6874 54.6318 97.2883 55.2922 95.7822 55.4411C95.2898 55.4897 94.7679 55.4993 94.2952 55.3497C94.519 55.8272 94.6893 56.3263 94.7769 56.8527C95.0768 58.655 94.3637 60.1411 92.6889 60.9193C91.2172 61.6035 89.1803 61.8657 87.7248 61.0021C86.4945 60.2725 86.8974 57.857 88.5163 58.0734C89.6092 58.2194 90.5943 58.5851 91.6743 58.118C92.5546 57.7376 92.0205 56.4535 91.7553 55.7781C91.3115 54.6492 90.6584 53.5865 90.1288 52.4904L90.031 52.2845C89.698 51.5698 89.2844 50.8147 88.9677 50.0445C88.7934 50.9492 88.4808 51.8369 88.1125 52.6587C87.2384 54.6089 85.5465 55.802 83.5305 56.3608C81.4578 56.935 79.0254 57.0683 76.8885 56.9977C74.7151 56.9262 72.4271 56.3553 70.8369 54.7763C67.924 51.8838 68.7606 46.8231 71.8259 44.4053C73.8088 42.8413 76.6027 41.7695 79.1684 42.0471C80.4536 41.7573 81.891 41.9219 83.1769 42.2139C84.9167 42.6091 86.5778 43.4549 87.7151 44.802C87.7994 44.5901 87.8968 44.3871 88.0082 44.1933C87.958 44.1701 87.9269 44.0957 87.9764 44.0511C88.067 43.9694 88.1602 43.8911 88.2534 43.8127C88.6238 43.292 89.1024 42.8385 89.6889 42.4391ZM68.6114 55.9958C68.5067 55.847 68.7114 55.6538 68.8583 55.7485C70.0615 56.5263 71.3211 57.2333 72.7009 57.6454C74.0486 58.0479 75.4497 58.0063 76.8035 58.3504C77.3123 58.4796 77.2316 59.1427 76.8035 59.3051C75.3136 59.8711 73.6325 59.3962 72.217 58.7955C70.7809 58.1862 69.5168 57.2801 68.6114 55.9958ZM76.687 43.5718L76.7229 43.5283V43.5283L76.6354 43.5575V43.5575C74.9491 44.1265 73.5606 45.0647 72.4319 46.4343C70.5084 48.7682 70.4855 52.4792 73.3617 54.0564C74.9123 54.9066 76.7428 54.9467 78.4646 54.8566L78.8128 54.838C80.3243 54.7544 81.8667 54.6305 83.3253 54.2207C84.9161 53.7738 86.0213 52.8101 86.63 51.2571L86.6805 51.1262C87.2876 49.5277 87.6038 47.7501 86.4766 46.3033C84.5672 43.8528 80.1551 43.3632 77.4281 44.5346C76.7749 44.8151 76.2507 44.1306 76.687 43.5718ZM94.1875 42.9142C94.1422 42.9585 94.0937 42.9989 94.0398 43.0316C93.4924 43.3607 92.8767 43.364 92.2699 43.5149C91.7109 43.6539 91.1638 43.8236 90.6493 44.086C89.8412 44.4976 89.0077 44.9899 88.2437 45.5269C88.4074 45.7891 88.5539 46.0659 88.6795 46.359C89.0264 47.1689 89.1434 48.0218 89.1069 48.8782C89.6393 49.3399 90.0843 49.9141 90.5555 50.433L90.9711 50.8912C91.4558 51.4272 91.9373 51.9691 92.3883 52.5316C92.6564 52.8659 92.9286 53.2083 93.19 53.5607C93.2243 53.4556 93.2726 53.3526 93.3404 53.2549C93.5951 52.8867 93.9883 52.7008 94.4377 52.8073C94.8311 52.9008 95.0941 53.0792 95.505 53.0819C96.0083 53.0852 96.4934 52.9766 96.9697 52.8208C97.906 52.5147 98.8236 51.9646 99.5084 51.2521C101.054 49.6435 100.238 47.3767 99.0328 45.8443C97.8117 44.292 96.058 43.2841 94.1875 42.9142ZM80.4235 46.778C80.9196 46.6345 81.6577 46.8608 81.876 47.3705L82.0325 47.7415C82.0277 47.7304 82.0238 47.7219 82.0193 47.7118C82.0747 47.8433 82.1277 47.9702 82.1702 48.105L82.3169 48.219V48.219C82.4421 48.3583 82.558 48.5053 82.6644 48.6604C82.916 49.0913 82.9889 49.643 82.8601 50.1259C82.6475 50.9237 81.9166 51.4359 81.1057 51.4408C78.7322 51.4548 78.1505 47.4359 80.4235 46.778ZM94.7425 46.0559C95.8392 46.0067 96.5696 46.9776 96.6571 47.975C96.7069 48.5426 96.5924 49.1633 96.43 49.7062C96.1878 50.5161 95.4177 51.0236 94.5874 50.9119C93.9266 50.8229 93.3429 50.3193 93.1781 49.672C92.961 49.1381 92.8384 48.5509 92.8279 47.975C92.8078 46.8996 93.721 46.1016 94.7425 46.0559ZM80.2699 37.0815C81.3822 36.9018 82.4448 37.4436 82.6065 38.6418C82.7694 39.8504 81.8814 40.6491 80.7677 40.7678C78.6679 40.9915 76.524 41.0446 74.4142 41.137C73.5342 41.1754 72.6532 41.1917 71.7723 41.1995L71.332 41.2027C70.5127 41.2076 69.4445 41.3697 68.7042 40.9655C68.656 40.9393 68.6578 40.8798 68.6884 40.8423C69.2086 40.2002 70.2842 39.9266 71.0531 39.6438L71.1182 39.6196C72.0915 39.2516 73.0756 38.907 74.0728 38.6088L74.5795 38.4581C76.4426 37.9081 78.3597 37.3907 80.2699 37.0815ZM87.3303 36.4936C88.0178 36.2346 88.6962 36.3961 89.1637 36.8341C90.7271 37.2704 92.336 37.6047 93.9096 37.9867L94.3378 38.0922C96.3104 38.5856 98.4781 38.9658 100.313 39.8703C100.507 39.9664 100.385 40.2155 100.214 40.2365C98.17 40.4853 95.9684 40.0898 93.9367 39.8517C91.8552 39.6078 89.7631 39.2054 87.6754 39.0478C86.1769 38.9347 85.9592 37.0105 87.3303 36.4936Z" fill="#262626"/>
</g>
<defs>
<clipPath id="clip0_94_129">
<rect width="137" height="133" fill="white"/>
</clipPath>
</defs>
</svg>
