<svg width="252" height="245" viewBox="0 0 252 245" fill="none" xmlns="http://www.w3.org/2000/svg">
<g clip-path="url(#clip0_119_1179)">
<path fill-rule="evenodd" clip-rule="evenodd" d="M243.532 361.682C249.484 361.395 247.09 350.975 246.663 347.148C241.95 333.172 243.058 317.923 241.205 303.273C240.05 289.597 238.567 275.964 237.319 262.299C234.868 234.56 217.268 178.09 197.183 169.008C194.653 157.898 184.203 147.526 170.982 147.526C161.964 136.843 151.11 129.325 137.189 130.843C131.436 131.105 125.856 137.212 120.344 138.391C117.257 138.817 89.866 137.72 84.3791 140.982C80.5571 142.946 77.1068 146.575 78.2306 151.196C80.0237 156.794 74.4515 150.737 62.8275 156.712C39.1247 170.959 53.2885 190.02 53.9162 190.61C39.1247 211.207 26.1962 227.917 20.2144 253.093C16.3376 271.784 16.774 291.079 13.5257 309.866C12.3788 316.38 10.6194 322.671 8.71546 328.997C6.65201 337.276 5.64868 357.91 4.51132 358.095C2.43956 358.61 5.70868 362.867 7.90394 362.87C68.7675 372.975 130.59 363.289 191.781 361.707C209.025 361.106 226.288 360.968 243.532 361.682Z" fill="#FDFFFC"/>
<path fill-rule="evenodd" clip-rule="evenodd" d="M151.284 192.428C151.312 192.149 151.688 192.15 151.717 192.428L152.147 196.58C152.67 201.65 153.173 206.711 153.538 211.805C153.993 218.157 154.297 224.508 154.444 230.875C154.955 253.048 155.056 275.233 155.1 297.412C158.096 297.204 161.094 297.004 164.092 296.811C166.127 296.679 168.162 296.553 170.196 296.429L175.385 296.114V296.114L177.521 295.983C178.965 295.893 180.605 295.53 181.614 296.81C182.018 297.322 182.221 297.988 181.844 298.596C180.975 299.999 179.641 299.95 178.131 300.01C176.707 300.068 175.283 300.124 173.859 300.179C170.807 300.298 167.756 300.41 164.703 300.495C161.5 300.585 158.298 300.658 155.095 300.713C155.063 310.076 154.676 319.427 154.257 328.78L154.068 332.989C153.556 344.371 153.005 355.763 152.222 367.129C152.158 368.06 150.842 368.058 150.779 367.129C149.897 354.329 149.316 341.501 148.739 328.683C148.321 319.389 148.078 310.093 147.962 300.796C147.538 300.799 147.115 300.805 146.692 300.806C134.673 300.858 122.656 300.911 110.637 300.798C110.657 300.822 110.677 300.846 110.69 300.877C111.56 302.932 111.642 305.554 111.621 307.76C111.597 310.289 111.257 312.788 110.675 315.247C108.589 324.059 103.21 331.952 97.0837 338.477L96.8837 338.689C95.4386 340.217 93.7808 341.753 92.8935 343.699C91.9872 345.687 91.6726 348.011 91.2254 350.147L91.1732 350.393L89.4245 358.476C88.8689 361.044 88.7112 364.789 86.6804 366.641C84.7857 368.37 82.2757 367.467 81.3841 365.241C80.6878 363.504 81.3814 361.597 81.7937 359.861L85.0248 346.268C85.5557 344.051 86.1358 341.82 87.2816 339.828C88.4553 337.789 90.1759 336.31 91.9317 334.797C95.2563 331.933 98.3084 328.653 100.89 325.102C103.47 321.553 105.675 317.64 107.221 313.526C107.995 311.466 108.63 309.326 109.068 307.169C109.484 305.122 109.48 303.002 109.925 300.977C109.955 300.837 110.073 300.741 110.209 300.699C110.177 300.609 110.225 300.486 110.352 300.478L120.182 299.846C128.919 299.282 137.657 298.704 146.387 298.042L147.93 297.931V297.931C147.81 285.526 147.911 273.119 148.135 260.709C148.34 249.33 148.345 237.947 148.683 226.569C148.851 220.922 149.213 215.288 149.617 209.652C150.03 203.889 150.69 198.174 151.284 192.428ZM58.9859 258.41C58.8812 257.778 59.6755 257.387 60.0416 257.965C64.2274 264.568 66.2455 271.74 67.0962 279.467C67.8476 286.287 67.6262 293.205 67.252 300.042C66.8529 307.335 66.3872 314.626 65.9163 321.915L65.1928 333.092V333.092L63.3773 361.114C63.2474 363.118 62.7928 364.941 61.0684 365.872C60.8501 366.055 60.6225 366.218 60.3573 366.36C59.4257 366.859 58.1901 366.607 57.6514 365.65L57.8674 365.792C58.0555 365.911 57.8443 365.745 57.2335 365.296L56.7152 364.625V364.625C56.3385 364.058 56.098 363.501 56.0013 362.828C55.851 361.781 56.0457 360.634 56.114 359.582L57.304 341.208V341.208C58.2295 326.923 59.3102 312.643 60.1248 298.351C60.5042 291.69 60.77 285.022 60.5902 278.35C60.4109 271.714 60.0731 264.966 58.9859 258.41ZM95.1959 135.408L95.4281 135.369C103.742 133.987 112.782 134.245 120.38 138.256C120.443 138.289 120.415 138.394 120.344 138.391L117.898 138.293C110.156 137.99 102.438 137.81 94.8254 139.631L94.0461 139.818C91.3046 140.488 88.4417 141.307 86.2396 143.119C84.1349 144.851 83.0869 147.524 82.0792 149.984L81.9444 150.308C80.922 152.738 79.6279 155.042 77.3869 156.561C74.4842 158.529 70.9933 158.288 67.665 158.555C61.8048 159.026 57.0136 163.277 54.6299 168.478C53.1864 171.628 52.5707 175.159 52.4488 178.603C52.3863 180.357 52.3773 182.179 52.6108 183.92C52.6853 184.477 53.3733 186.506 53.7241 186.458C54.5036 186.35 55.2163 186.756 55.4593 187.38C57.3847 185.518 59.3656 183.71 61.4103 181.967C66.507 177.623 71.9967 173.686 77.778 170.303C82.1904 167.721 86.8445 165.162 91.664 163.228C91.2821 163.22 90.9055 163.296 90.5411 163.485C90.3816 163.569 90.223 163.369 90.349 163.236C91.867 161.638 93.6853 161.41 95.5184 161.836C95.9095 161.712 96.3009 161.591 96.6939 161.477C96.8895 161.42 96.9868 161.69 96.8273 161.794L96.377 162.082V162.082C98.3767 162.752 100.34 164.07 101.894 165.11C106.359 168.096 110.29 171.747 114.273 175.33L114.998 175.979C118.505 179.113 122.101 182.158 126.085 184.672C128.171 185.988 130.361 187.205 132.659 188.111C134.63 188.888 137.839 189.377 138.762 191.462C139.582 192.459 139.239 193.732 138.278 194.403C136.658 196.188 133.416 195.035 131.485 194.292C129.157 193.395 126.902 192.318 124.751 191.055C120.575 188.601 116.725 185.551 113.138 182.306C109.392 178.916 105.859 175.316 102.215 171.82C100.637 170.305 99.0945 168.755 97.5135 167.243L96.7195 166.49C95.9126 165.733 94.7629 164.552 93.5338 163.838C91.2181 165.22 88.8667 166.546 86.5719 167.964C83.3687 169.943 80.2597 172.065 77.1987 174.258C71.3059 178.478 65.7216 183.204 60.5375 188.27C51.0296 197.561 42.9292 208.17 35.8529 219.404L35.3155 220.26C31.2943 226.69 27.4916 233.328 24.7953 240.432C21.8285 248.251 20.3857 256.472 19.6019 264.771C18.8239 273.011 18.5615 281.293 17.6921 289.524C16.8005 297.967 15.0438 306.224 13.0457 314.465L12.5691 316.418C10.7611 323.799 8.89499 331.179 7.9656 338.734C7.46945 342.769 7.17102 346.86 7.23847 350.928C7.30623 355.02 7.94866 359.021 8.46699 363.07C8.66563 364.621 7.14053 365.915 5.77589 366.121C4.20644 366.357 2.85812 365.355 2.37029 363.895C0.849501 359.347 0.573247 354.319 0.620983 349.544C0.669027 344.697 1.28714 339.882 2.15686 335.119C3.86736 325.749 6.50703 316.573 8.71522 307.316C10.6613 299.156 11.9674 290.982 12.6715 282.623C13.4023 273.951 13.8399 265.25 15.1732 256.64C16.4892 248.14 18.9653 240.021 22.6995 232.27C26.0996 225.214 30.3379 218.572 34.7814 212.134C40.1775 204.316 46.1039 196.877 52.7284 190.099C52.1334 190.073 51.5224 189.88 50.9613 189.53C49.2446 188.458 48.4451 186.362 48.1993 184.448C47.624 179.97 47.7629 175.296 48.9135 170.918C50.7697 163.856 55.5871 157.581 62.5689 155.035C64.3659 154.38 66.2763 154.14 68.1808 154.093C69.988 154.048 71.9619 154.284 73.7056 153.711C76.4812 152.798 77.6709 149.526 78.713 147.046L78.761 146.932C80.0974 143.772 81.7013 141.063 84.5957 139.09C87.6836 136.984 91.5526 136.026 95.1959 135.408V135.408ZM174.191 147.906C176.689 147.039 179.813 147.826 182.256 148.584C184.978 149.428 187.493 150.984 189.65 152.831C191.925 154.779 193.805 157.184 195.133 159.872L195.26 160.13C196.473 162.623 197.855 166.045 197.243 168.783C197.226 168.861 197.206 168.936 197.183 169.008C202.14 171.451 206.718 174.51 210.704 178.386C215.346 182.901 219.276 188.037 222.602 193.587C235.813 215.628 238.138 242.099 239.698 267.235L240.087 273.608C240.934 287.37 241.926 301.1 244.501 314.672L244.689 315.652C247.442 329.863 251.383 344.182 250.983 358.759C250.864 363.127 244.414 363.097 244.227 358.759C243.523 342.431 239.716 326.666 237.138 310.593C232.602 282.316 234.874 253.163 228.447 225.169C225.925 214.183 222.017 203.526 216.438 193.72C213.682 188.875 210.528 184.194 206.834 180.015C203.656 176.418 200.353 172.958 196.639 169.934C195.453 171.124 193.081 170.518 192.462 168.783C192.036 167.592 192.16 166.198 191.887 164.949C191.634 163.791 191.284 162.642 190.818 161.551C189.89 159.376 188.528 157.288 186.955 155.528C185.256 153.625 183.303 152.045 181.118 150.74C178.918 149.426 176.511 149.033 174.191 148.073C174.113 148.041 174.105 147.936 174.191 147.906ZM183.897 299.031C183.901 298.917 184.036 298.863 184.119 298.939C184.995 299.746 185.525 300.904 186.169 301.896C186.913 303.04 187.693 304.161 188.512 305.253C190.152 307.44 191.978 309.501 193.819 311.521C195.531 313.399 197.355 315.199 199.248 316.895C201.298 318.733 203.596 320.372 205.459 322.407C209.346 326.653 209.974 332.481 210.794 337.953L210.884 338.545C211.384 341.793 211.832 345.049 212.236 348.31C212.433 349.896 212.629 351.484 212.789 353.074L212.838 353.578C212.981 355.134 213.019 356.714 212.126 358.074C211.17 359.529 208.996 360.039 207.703 358.644C205.482 356.247 205.899 351.989 205.61 348.905C205.371 346.355 205.1 343.808 204.797 341.265L204.643 339.994C204.286 337.1 203.996 334.15 203.334 331.307C202.751 328.803 201.64 326.914 199.818 325.1C197.982 323.273 196.074 321.568 194.379 319.601C192.581 317.514 190.96 315.276 189.499 312.941C188.249 310.944 187.247 308.77 186.33 306.599L186.178 306.237C185.291 304.12 183.828 301.364 183.897 299.031ZM215.961 208.089C215.981 207.794 216.417 207.789 216.423 208.089C216.479 210.629 216.532 213.169 216.584 215.709C217.008 236.176 216.747 256.692 218.799 277.089C219.766 286.706 221.548 296.182 223.61 305.618C224.665 310.446 225.772 315.263 226.824 320.093C227.849 324.799 228.948 329.528 229.761 334.278C230.56 338.947 231.275 343.652 231.597 348.38L231.636 348.997C231.775 351.288 232.435 354.657 231.174 356.687C229.809 358.887 227.194 358.926 225.731 356.826C224.357 354.855 224.699 351.349 224.456 348.997C224.209 346.601 223.949 344.204 223.652 341.813C223.074 337.151 222.313 332.498 221.52 327.867C219.871 318.223 217.478 308.701 215.711 299.072C213.901 289.206 212.614 279.269 212.56 269.224C212.506 259.093 213.578 248.982 214.119 238.874C214.668 228.607 215.293 218.348 215.961 208.089ZM119.355 144.428C119.904 142.578 121.842 141.421 123.733 141.941C125.465 142.417 126.895 144.522 126.218 146.322C125.479 148.287 124.187 149.962 123.098 151.748C122.092 153.398 120.625 154.697 119.601 156.317L120.73 157.536C121.295 158.144 121.861 158.748 122.434 159.341L124.403 161.383C125.937 162.97 127.48 164.548 129.067 166.08C133.734 170.584 138.474 174.941 143.7 178.799C144.89 179.677 146.089 180.55 147.321 181.367L147.781 181.672C148.627 182.226 149.57 182.771 150.592 182.677C153.074 182.449 155.316 179.811 157.022 178.169L157.111 178.083C161.338 174.058 165.252 169.657 168.674 164.925C169.434 163.874 170.17 162.804 170.886 161.722C169.232 159.788 169.627 156.013 169.536 153.667C169.471 152.018 169.466 150.368 169.458 148.717L169.453 148.385C169.433 147.316 169.385 146.292 170.078 145.412C170.118 145.362 170.201 145.363 170.253 145.39C171.202 145.888 171.494 146.721 171.899 147.655L171.941 147.752C172.434 148.874 172.906 150.006 173.383 151.134C173.883 152.315 174.341 153.514 174.806 154.709C175.022 155.265 175.228 155.823 175.43 156.385C175.553 156.743 175.68 157.1 175.811 157.456L175.841 157.483C176.014 157.63 176.16 157.784 176.286 157.944C176.815 158.209 177.236 158.692 177.434 159.402C177.863 160.946 176.974 162.206 176.181 163.432C172.96 168.413 169.287 173.159 165.205 177.465C163.178 179.604 161.045 181.647 158.824 183.585L158.436 183.921C156.441 185.637 154.276 187.262 151.612 187.663C148.494 188.133 145.957 186.581 143.571 184.794L143.333 184.614C141.07 182.9 138.853 181.126 136.706 179.27C132.326 175.486 128.16 171.423 124.463 166.966C120.867 162.63 117.312 157.783 115.095 152.566C114.96 152.248 115.315 151.915 115.593 152.181C116.676 153.212 117.718 154.3 118.748 155.402C118.776 153.78 118.477 152.145 118.644 150.513C118.847 148.529 118.788 146.338 119.355 144.428Z" fill="#262626"/>
<path fill-rule="evenodd" clip-rule="evenodd" d="M123.828 10.1327C142.717 1.55764 164.14 -1.69422 184.743 0.438757C194.913 1.4899 204.949 3.74504 214.499 7.40828L215.336 7.73208C217.694 8.64023 220.235 9.54168 222.027 11.3903C224.112 13.5387 224.697 16.7875 223.207 19.4413C222.049 21.5034 219.967 22.9826 217.746 23.772C218.528 24.4131 219.271 25.1282 219.967 25.9266C221.14 27.2643 221.229 29.172 219.967 30.4915C217.534 33.0344 214.377 34.8743 210.977 35.7561C211.359 37.6025 211.152 39.646 210.333 41.4862C207.982 46.7684 201.36 47.3979 196.265 47.0843L196.111 47.0745L195.827 50.3202C195.677 52.0494 194.642 53.3902 192.886 53.6552C192.825 53.6645 192.763 53.6707 192.702 53.6765C195.479 63.7314 197.158 74.097 198.707 84.4015C199.516 89.7805 200.241 95.172 200.935 100.567L201.165 102.365C201.904 108.182 202.828 114.057 203.148 119.916C203.434 125.233 202.421 130.31 199.147 134.6C196.209 138.447 192.203 141.329 187.894 143.468C178.159 148.304 167.912 151.905 157.146 153.575L156.428 153.686C152.272 154.321 147.989 154.856 143.878 153.705C140.266 152.694 136.477 150.086 137.293 145.897C137.568 144.482 139.545 144.421 140.222 145.515L140.379 145.766C141.191 147.056 142.082 148.255 143.5 148.921C145.159 149.704 147.084 149.922 148.898 149.944C153.964 150.003 159.24 148.739 164.118 147.472C173.228 145.105 182.584 141.246 190.047 135.399C193.222 132.914 195.772 129.807 196.671 125.81C197.783 120.881 196.761 115.493 196.256 110.54C195.216 100.319 193.979 90.117 192.674 79.9265L192.412 77.8886C191.313 69.369 190.158 60.8463 189.609 52.2774C189.382 51.9661 189.228 51.6117 189.166 51.2233L189.08 50.6654C189.006 50.1876 188.993 49.7499 189.046 49.3461C189.049 47.7988 189.092 46.2607 189.181 44.7131C189.196 44.436 189.209 44.1586 189.218 43.8843C187.611 44.2387 185.991 44.5254 184.365 44.7689C172.932 46.4919 161.322 46.9234 149.797 46.0665C144.047 45.6378 138.341 44.9014 132.652 43.9798C129.757 43.5113 126.872 42.9935 123.995 42.414C121.916 41.9979 119.88 41.4338 117.836 40.9036C115.726 43.9767 114.586 47.7587 114.808 51.473C115.058 55.7112 117.879 59.5548 117.087 63.8855C116.344 67.9385 112.875 69.1951 109.45 70.1989L107.993 70.6202C106.872 70.9477 106.058 71.2636 105.855 72.6116C105.507 74.9264 105.935 77.531 106.025 79.8582C106.132 82.6107 106.274 85.3632 106.339 88.1157C106.373 89.5398 106.428 90.97 106.425 92.394C106.422 93.405 106.271 94.0955 105.88 94.7486C106.182 95.1281 106.452 95.538 106.693 95.9726C106.77 96.1144 106.579 96.2651 106.465 96.1483C106.16 95.8308 105.836 95.5442 105.495 95.288C105.322 95.501 105.122 95.7168 104.888 95.948L104.87 95.9233C104.137 96.6538 102.973 96.7247 102.064 95.948L101.825 95.7412C101.16 95.1576 100.703 94.6716 100.518 93.7071C100.509 93.6578 100.499 93.6085 100.493 93.5591C98.8026 93.5006 97.0841 93.901 95.5627 94.7428C93.1512 96.0774 91.4543 97.9792 90.4506 100.328C90.8506 100.796 91.3188 101.216 91.8639 101.567C91.9409 101.619 91.8731 101.733 91.79 101.693C91.2325 101.431 90.7336 101.108 90.287 100.729C89.9267 101.653 89.6742 102.646 89.5202 103.697C88.9781 107.408 89.9452 111.942 93.296 114.057C94.7465 114.972 96.4034 115.468 98.122 115.475C98.9593 115.477 99.6834 115.336 100.496 115.135C101.048 115 101.596 114.803 102.172 114.803C102.665 114.803 103.12 114.926 103.542 115.172L103.425 115.183C103.141 115.209 103.196 115.221 103.592 115.221C104.824 115.274 105.528 116.526 104.962 117.614L104.888 117.782C104.872 117.816 104.859 117.844 104.848 117.866L104.804 118.155C104.799 118.182 104.795 118.21 104.79 118.239L104.773 118.298C104.769 118.307 104.766 118.316 104.762 118.326L106.609 121.146C108.875 124.595 111.19 128.031 113.826 131.182C115.674 133.392 117.632 135.559 119.702 137.566C121.562 139.369 123.792 140.238 125.898 141.656C127.023 142.408 127.352 143.983 126.33 144.997C123.33 147.978 119.083 145.611 116.622 143.188C114.294 140.891 112.283 138.13 110.549 135.365C107.472 130.449 105.024 125.221 103.952 119.546C103.505 119.956 102.936 120.212 102.36 120.412C101.205 120.813 99.9329 120.98 98.7133 121.023C96.3757 121.1 94.0351 120.533 91.9316 119.528C83.373 115.444 82.1164 103.213 87.3489 96.0003C86.6434 93.9526 86.2493 91.7306 85.8212 89.8359L85.6264 88.9889C83.4624 79.5284 82.0099 69.5679 85.846 60.2977C86.3388 59.1017 86.8931 57.9366 87.5491 56.8208C88.0758 55.9238 88.9812 54.9683 89.2307 53.9481C89.785 51.7072 86.3634 49.3523 85.3656 47.5738C84.1922 45.4871 84.0259 43.0243 85.6243 41.116C85.8275 40.8759 86.049 40.6537 86.2895 40.4598C84.7743 37.7103 84.7034 34.252 86.6991 31.5395C88.0111 29.7518 90.0129 28.5003 92.1996 28.1212C93.5362 27.89 95.1438 27.9763 96.6129 28.3894C104.657 20.9147 113.835 14.6699 123.828 10.1327ZM92.9386 103.66C95.0855 101.764 97.4569 100.772 100.383 101.022C103.324 101.274 106.866 102.492 108.593 105.016C109.958 107.01 107.177 109.936 105.175 108.438C103.352 107.072 102.135 105.531 99.8714 104.797C97.8385 104.141 95.3223 103.719 93.1942 104.095C92.9601 104.135 92.7264 103.845 92.9386 103.66Z" fill="#262626"/>
<path fill-rule="evenodd" clip-rule="evenodd" d="M182.568 72.2351C189.797 72.2351 193.923 73.791 195.434 73.9122L195.48 73.9154C196.108 73.9557 196.672 74.0083 197.264 74.2373C199.44 75.0761 199.795 77.3602 198.525 78.7997C198.436 81.7784 198.827 85.2588 198.156 88.2471C197.327 100.845 191.407 102.971 188.043 103.747C186.353 104.136 184.351 104.292 182.557 103.88C179.495 103.766 176.469 102.807 173.88 101.137C170.274 98.8089 167.595 95.2311 166.726 90.985C166.314 88.961 166.122 86.8543 166.346 84.797L166.379 84.5135C165.207 83.9524 163.849 83.8462 162.448 83.7967C161.779 83.7729 161.12 83.7515 160.48 83.78C159.854 83.8499 159.235 83.9431 158.615 84.07C157.937 84.2746 157.297 84.6122 156.706 85.1471L156.666 85.9276C156.555 87.8775 156.299 89.8333 155.905 91.7463C155.322 94.569 154.385 97.2648 152.391 99.267C151.716 100.276 150.881 101.177 149.867 101.957C146.183 104.795 141.178 105.837 136.585 105.445C127.261 104.648 121.871 97.2401 120.629 94.0735L120.555 93.8817C119.657 91.5275 118.942 88.4731 116.107 87.9673L115.504 87.8588C114.21 87.6158 113.016 87.2774 112.258 86.014C111.925 85.4625 111.754 84.8456 111.712 84.2167C111.27 84.2507 110.828 84.2832 110.387 84.3148C106.874 85.0585 85.7996 85.689 84.1175 85.689C84.1175 85.689 80.8841 87.0511 79.5189 85.9957C78.5727 85.2619 78.2614 84.2839 78.7822 83.1758C79.5682 81.5087 83.1942 80.5059 84.8042 80.1884C84.8042 80.1884 110.787 80.4044 112.657 80.0495C113.814 78.8555 115.883 79.0189 117.613 78.8301C119.044 77.8084 121.047 77.1241 122.629 76.666C122.952 76.5438 123.271 76.4255 123.581 76.3141C126.482 75.2804 129.496 74.7328 132.557 74.4388C135.713 74.1386 138.879 74.2745 142.016 74.7047C143.338 74.8842 144.648 75.1163 145.949 75.4199C148.278 75.7272 150.593 76.2334 152.923 76.8338L153.389 76.9551C155.843 77.5989 158.364 78.1557 160.904 77.7193C162.971 77.3663 164.96 76.5699 166.866 75.7087L167.114 75.5961C171.306 73.6805 177.852 72.2351 182.568 72.2351ZM145.697 79.2389C144.15 78.8985 143.49 81.2851 145.041 81.6265C146.14 81.8682 147.071 82.4227 147.7 83.3622L147.767 83.4643C148.611 84.8088 150.746 83.5677 149.895 82.2145C148.939 80.6917 147.453 79.6252 145.697 79.2389ZM190.996 77.7592C190.451 77.3748 189.626 77.6601 189.309 78.2033C188.961 78.8015 189.189 79.4674 189.7 79.8587L189.752 79.8969C190.22 80.2273 190.676 80.8196 190.734 81.4264L190.739 81.5023C190.8 83.0904 193.266 83.0985 193.204 81.5023C193.144 79.9409 192.241 78.6363 190.996 77.7592Z" fill="#262626"/>
<path fill-rule="evenodd" clip-rule="evenodd" d="M171.477 114.535C171.569 114.636 171.366 114.772 171.265 114.698C170.093 113.847 168.247 114.33 167.116 114.715C167.116 114.715 166.702 128.073 167.16 128.389C167.617 128.706 174.065 128.518 174.065 129.311C174.065 131.901 170.187 132.874 168.083 132.72C164.769 132.478 161.354 132.004 158.044 132.388C154.735 132.771 147.705 134.888 144.107 131.963C139.815 128.474 140.395 122.74 143.966 118.996C146.217 116.637 149.53 115.221 152.796 114.172C157.575 112.637 168.839 111.646 171.477 114.535ZM162.662 124.342C160.928 125.018 152.313 127.87 150.266 128.389C152.658 128.217 160.828 128.027 162.662 127.138C162.867 126.305 162.999 124.21 162.662 124.342ZM163.977 115.082C159.287 115.845 149.16 119.288 147.705 121.121C149.916 120.772 162.251 119.288 163.642 119.288C163.844 118.21 163.71 116.318 163.977 115.082ZM165.475 94.1664C167.799 95.5818 171.339 98.8825 168.839 102.392C165.897 105.486 161.662 101.938 159.575 100.334C157.639 99.0902 155.465 102.288 157.26 103.74C172.343 114.933 178.464 94.5365 166.651 92.5021C165.35 92.2779 164.867 93.7285 165.475 94.1664ZM170.626 73.5118C171.99 73.5005 172.787 74.3877 173.809 75.1778C174.863 75.9916 176.132 76.6408 177.363 77.1379C178.647 77.6557 180.019 78.0668 181.37 78.36C182.771 78.6635 184.06 78.5213 185.45 78.7782C189.137 79.4594 188.264 85.6206 184.568 85.3159C181.241 85.0418 177.669 82.9929 175.146 80.8684C173.94 79.8534 172.922 78.6901 171.932 77.4744L171.747 77.2458C170.867 76.1585 170.046 75.0455 170.487 73.618C170.506 73.5563 170.561 73.5125 170.626 73.5118ZM139.879 91.4931C139.883 89.5266 141.026 85.0367 143.85 85.0367C145.615 85.0367 146.686 88.0924 146.871 91.2424L146.878 91.3708C146.96 93.3292 146.423 97.6099 143.85 97.6099C141.25 97.6099 139.906 93.5556 139.879 91.5626L139.879 91.4931ZM181.461 91.4931C181.457 89.5266 180.314 85.0367 177.49 85.0367C175.77 85.0367 174.708 87.9415 174.484 91.0064L174.469 91.2424C174.357 93.1347 174.859 97.6099 177.49 97.6099C180.09 97.6099 181.434 93.5556 181.461 91.5626L181.461 91.4931ZM149.122 73.8052C150.883 73.0432 152.901 73.2597 153.962 75.0773C154.966 76.7974 154.282 78.8707 152.693 79.9291C151.131 80.9687 149.035 81.534 147.24 82.1286L147.041 82.1948C145.301 82.7816 143.56 83.2615 141.763 83.6365C140.083 83.9869 138.391 84.2463 136.689 84.4533L136.178 84.5138C134.851 84.6674 132.999 85.1845 131.804 84.4272C131.698 84.3602 131.657 84.2218 131.721 84.1108C132.416 82.9034 134.263 82.4224 135.448 81.8108C136.969 81.0251 138.469 80.1884 139.955 79.3376C141.457 78.4772 142.955 77.6026 144.441 76.7145C145.985 75.7921 147.48 74.5151 149.122 73.8052Z" fill="#262626"/>
</g>
<defs>
<clipPath id="clip0_119_1179">
<rect width="252" height="244.642" fill="white" transform="translate(0 0.321167)"/>
</clipPath>
</defs>
</svg>
