<svg width="137" height="133" viewBox="0 0 137 133" fill="none" xmlns="http://www.w3.org/2000/svg">
<g clip-path="url(#clip0_108_193)">
<path fill-rule="evenodd" clip-rule="evenodd" d="M132.396 197.454C135.632 197.298 134.331 191.633 134.098 189.553C131.536 181.954 132.139 173.664 131.131 165.7C130.503 158.265 129.697 150.853 129.018 143.424C127.686 128.344 118.118 97.6442 107.199 92.707C105.823 86.6667 100.142 81.0282 92.9544 81.0282C88.052 75.2203 82.1512 71.1329 74.5828 71.9582C71.4552 72.1006 68.422 75.4205 65.4252 76.0617C63.7472 76.2933 48.8558 75.6972 45.8728 77.4703C43.795 78.538 41.9192 80.5112 42.5302 83.0233C43.505 86.0667 40.4756 82.7736 34.1563 86.0219C21.2702 93.7676 28.9704 104.13 29.3116 104.451C21.2702 115.648 14.2416 124.733 10.9896 138.419C8.88198 148.581 9.11923 159.071 7.35333 169.284C6.72982 172.826 5.77328 176.246 4.73822 179.685C3.61643 184.186 3.07096 195.404 2.45264 195.504C1.32632 195.784 3.10358 198.098 4.29704 198.1C37.3855 203.593 70.9954 198.328 104.262 197.467C113.637 197.141 123.022 197.066 132.396 197.454Z" fill="#FDFFFC"/>
<path fill-rule="evenodd" clip-rule="evenodd" d="M82.2457 105.439C82.2611 105.287 82.4653 105.288 82.4811 105.439L82.7147 107.696C82.9989 110.453 83.2725 113.204 83.4709 115.973C83.7182 119.427 83.8836 122.879 83.9633 126.341C84.2413 138.395 84.2965 150.456 84.32 162.514C85.9492 162.401 87.5787 162.292 89.209 162.187C90.315 162.115 91.4212 162.047 92.5274 161.979L95.3482 161.808V161.808L96.5095 161.737C97.2942 161.688 98.1858 161.49 98.7345 162.186C98.9542 162.465 99.0643 162.827 98.8596 163.157C98.3872 163.92 97.6618 163.893 96.8412 163.926C96.067 163.958 95.2928 163.988 94.5186 164.018C92.8595 164.083 91.2006 164.143 89.541 164.19C87.7994 164.239 86.0586 164.279 84.3176 164.308C84.3 169.398 84.0896 174.482 83.862 179.567L83.7591 181.855C83.4806 188.043 83.1811 194.236 82.7557 200.416C82.7207 200.921 82.0056 200.92 81.9709 200.416C81.4917 193.456 81.1756 186.482 80.8622 179.514C80.6348 174.462 80.5025 169.408 80.4396 164.353C80.2094 164.355 79.9793 164.358 79.7493 164.359C73.2149 164.387 66.6822 164.416 60.1479 164.355C60.1588 164.367 60.1695 164.38 60.1767 164.397C60.6495 165.515 60.6945 166.94 60.683 168.139C60.6698 169.514 60.4847 170.873 60.1683 172.21C59.0346 177 56.1102 181.291 52.7796 184.839L52.6709 184.954C51.8853 185.785 50.984 186.62 50.5016 187.678C50.0089 188.758 49.8379 190.022 49.5948 191.183L49.5664 191.317L48.6157 195.711C48.3136 197.107 48.2279 199.143 47.1239 200.15C46.0938 201.09 44.7293 200.599 44.2445 199.389C43.866 198.445 44.243 197.408 44.4672 196.464L46.2238 189.074C46.5124 187.869 46.8278 186.656 47.4507 185.573C48.0888 184.465 49.0242 183.661 49.9787 182.838C51.7862 181.281 53.4454 179.498 54.8487 177.568C56.2514 175.638 57.4502 173.511 58.2909 171.274C58.7118 170.154 59.0567 168.991 59.2946 167.818C59.5208 166.705 59.5188 165.553 59.7608 164.452C59.7773 164.376 59.8415 164.324 59.915 164.301C59.8976 164.251 59.9242 164.185 59.9928 164.181L65.3368 163.837C70.0872 163.53 74.8373 163.216 79.5833 162.856L80.422 162.796V162.796C80.3569 156.052 80.4121 149.307 80.5338 142.56C80.6453 136.374 80.6477 130.185 80.8315 124C80.9229 120.93 81.12 117.867 81.3393 114.803C81.5637 111.67 81.9229 108.563 82.2457 105.439ZM32.0677 141.31C32.0108 140.967 32.4426 140.754 32.6417 141.068C34.9173 144.658 36.0144 148.557 36.4769 152.758C36.8854 156.465 36.765 160.226 36.5616 163.944C36.3446 167.908 36.0915 171.872 35.8354 175.835L35.4421 181.911V181.911L34.4551 197.145C34.3845 198.235 34.1374 199.226 33.1999 199.732C33.0812 199.831 32.9575 199.92 32.8133 199.997C32.3068 200.268 31.6351 200.132 31.3423 199.611L31.4597 199.689C31.5619 199.753 31.4471 199.663 31.115 199.419L30.8333 199.054V199.054C30.6285 198.746 30.4977 198.443 30.4452 198.077C30.3634 197.508 30.4693 196.884 30.5064 196.312L31.1534 186.323V186.323C31.6565 178.557 32.244 170.794 32.6869 163.024C32.8932 159.403 33.0377 155.778 32.9399 152.15C32.8424 148.543 32.6588 144.874 32.0677 141.31ZM51.7534 74.44L51.8796 74.4188C56.3994 73.6674 61.3142 73.808 65.4449 75.9886C65.4791 76.0066 65.4635 76.0634 65.4252 76.0617L64.0956 76.0085C59.8866 75.8436 55.6906 75.7459 51.552 76.7357L51.1283 76.8378C49.6379 77.2017 48.0814 77.6471 46.8843 78.6322C45.7401 79.574 45.1703 81.0267 44.6225 82.364L44.5492 82.5405C43.9934 83.8614 43.2898 85.1141 42.0715 85.94C40.4934 87.0096 38.5956 86.8786 36.7862 87.0239C33.6003 87.2801 30.9955 89.5909 29.6996 92.4187C28.9149 94.1309 28.5802 96.0506 28.5139 97.923C28.4799 98.8764 28.475 99.8669 28.6019 100.814C28.6425 101.117 29.0165 102.22 29.2072 102.193C29.631 102.134 30.0184 102.356 30.1505 102.695C31.1973 101.683 32.2742 100.7 33.3858 99.7519C36.1566 97.3903 39.1411 95.2499 42.2841 93.4107C44.6829 92.0068 47.2131 90.6159 49.8333 89.5644C49.6257 89.5601 49.4209 89.6013 49.2228 89.7043C49.1361 89.7498 49.0499 89.6408 49.1183 89.5688C49.9436 88.6997 50.9321 88.5761 51.9287 88.8078C52.1413 88.7401 52.3541 88.6746 52.5678 88.6124C52.6741 88.5814 52.727 88.7281 52.6403 88.7847L52.3955 88.9412V88.9412C53.4826 89.3057 54.55 90.0221 55.395 90.5874C57.8224 92.211 59.959 94.1959 62.1249 96.1436L62.5187 96.4967C64.4252 98.2004 66.3802 99.8559 68.5463 101.223C69.6801 101.938 70.8711 102.6 72.1203 103.092C73.1917 103.514 74.9361 103.78 75.4379 104.914C75.884 105.456 75.6976 106.148 75.1752 106.513C74.2942 107.483 72.5318 106.856 71.482 106.452C70.2164 105.965 68.9903 105.379 67.821 104.692C65.5507 103.359 63.4575 101.7 61.5076 99.9359C59.4711 98.0933 57.5502 96.1359 55.5695 94.2355C54.7113 93.412 53.8729 92.5692 53.0134 91.747L52.5817 91.3378C52.143 90.9261 51.518 90.2843 50.8498 89.8959C49.5908 90.6474 48.3125 91.368 47.065 92.139C45.3235 93.2151 43.6333 94.3689 41.9692 95.5606C38.7655 97.8548 35.7297 100.424 32.9113 103.179C27.7424 108.23 23.3386 113.997 19.4915 120.105L19.1993 120.57C17.0132 124.066 14.9459 127.674 13.48 131.537C11.8672 135.787 11.0827 140.257 10.6566 144.769C10.2337 149.248 10.091 153.75 9.61839 158.226C9.13367 162.816 8.17864 167.304 7.09235 171.784L6.83327 172.846C5.85034 176.859 4.83583 180.871 4.33056 184.978C4.06083 187.172 3.89859 189.396 3.93526 191.608C3.97209 193.832 4.32135 196.007 4.60314 198.208C4.71113 199.052 3.88201 199.755 3.14012 199.867C2.28689 199.995 1.55388 199.451 1.28867 198.657C0.461889 196.185 0.311703 193.451 0.337655 190.855C0.363774 188.22 0.699809 185.603 1.17264 183.013C2.10255 177.919 3.53761 172.931 4.73809 167.898C5.79609 163.462 6.50617 159.018 6.88892 154.474C7.28623 149.759 7.52415 145.029 8.24896 140.348C8.9644 135.727 10.3105 131.313 12.3407 127.099C14.1891 123.263 16.4933 119.652 18.909 116.152C21.8426 111.902 25.0645 107.858 28.6659 104.173C28.3424 104.159 28.0102 104.054 27.7052 103.864C26.7719 103.281 26.3373 102.141 26.2037 101.101C25.8909 98.6664 25.9664 96.125 26.5919 93.745C27.601 89.9056 30.22 86.4942 34.0157 85.1102C34.9926 84.7539 36.0312 84.6239 37.0666 84.5983C38.0491 84.5738 39.1222 84.702 40.0702 84.3903C41.5791 83.8939 42.2259 82.1153 42.7925 80.767L42.8186 80.7051C43.545 78.987 44.417 77.5144 45.9906 76.4416C47.6693 75.2968 49.7727 74.7762 51.7534 74.44V74.44ZM94.6991 81.2347C96.0573 80.7632 97.7554 81.1911 99.0837 81.603C100.563 82.0622 101.931 82.9077 103.103 83.912C104.34 84.9711 105.362 86.2788 106.084 87.7397L106.153 87.8804C106.813 89.2355 107.564 91.0959 107.232 92.5847C107.222 92.6269 107.211 92.6676 107.199 92.707C109.894 94.0347 112.382 95.6976 114.549 97.8053C117.073 100.259 119.21 103.052 121.018 106.069C128.2 118.052 129.464 132.443 130.312 146.108L130.524 149.573C130.984 157.055 131.523 164.519 132.923 171.897L133.025 172.43C134.522 180.155 136.664 187.94 136.447 195.865C136.382 198.24 132.876 198.223 132.774 195.865C132.391 186.988 130.322 178.418 128.92 169.68C126.454 154.307 127.69 138.458 124.195 123.238C122.824 117.266 120.7 111.472 117.667 106.141C116.168 103.507 114.454 100.963 112.446 98.6905C110.718 96.7354 108.922 94.8539 106.903 93.2104C106.258 93.8572 104.969 93.5276 104.632 92.5847C104.401 91.9367 104.468 91.1791 104.32 90.5002C104.182 89.8703 103.992 89.2458 103.739 88.6526C103.234 87.4704 102.493 86.3351 101.638 85.3783C100.714 84.344 99.6528 83.4847 98.4648 82.7752C97.2687 82.0608 95.9606 81.8475 94.6991 81.3255C94.6566 81.3079 94.6526 81.251 94.6991 81.2347ZM99.9759 163.394C99.9779 163.332 100.051 163.302 100.097 163.344C100.573 163.783 100.861 164.412 101.211 164.951C101.615 165.573 102.04 166.183 102.485 166.776C103.376 167.965 104.369 169.086 105.37 170.184C106.3 171.205 107.292 172.183 108.321 173.105C109.436 174.105 110.685 174.996 111.698 176.102C113.811 178.411 114.153 181.579 114.598 184.554L114.647 184.876C114.919 186.641 115.163 188.411 115.382 190.184C115.489 191.047 115.596 191.91 115.683 192.774L115.709 193.048C115.787 193.894 115.808 194.753 115.322 195.493C114.803 196.284 113.621 196.561 112.918 195.802C111.711 194.499 111.937 192.184 111.78 190.508C111.65 189.121 111.503 187.737 111.338 186.354L111.254 185.663C111.06 184.09 110.902 182.486 110.543 180.941C110.226 179.58 109.622 178.552 108.631 177.566C107.633 176.573 106.596 175.646 105.674 174.576C104.697 173.442 103.815 172.226 103.021 170.956C102.342 169.87 101.797 168.689 101.298 167.508L101.216 167.312C100.733 166.161 99.9383 164.662 99.9759 163.394ZM117.408 113.953C117.418 113.793 117.655 113.79 117.659 113.953C117.689 115.334 117.718 116.715 117.746 118.096C117.977 129.223 117.835 140.376 118.95 151.465C119.476 156.693 120.445 161.845 121.566 166.975C122.139 169.6 122.741 172.219 123.313 174.844C123.87 177.403 124.468 179.974 124.91 182.556C125.344 185.094 125.733 187.652 125.908 190.223L125.929 190.558C126.004 191.803 126.363 193.635 125.678 194.739C124.936 195.934 123.514 195.956 122.719 194.814C121.972 193.743 122.158 191.836 122.026 190.558C121.892 189.255 121.75 187.952 121.589 186.652C121.274 184.118 120.86 181.588 120.43 179.071C119.533 173.828 118.232 168.651 117.272 163.416C116.288 158.052 115.588 152.65 115.559 147.189C115.529 141.682 116.112 136.185 116.406 130.689C116.704 125.108 117.044 119.531 117.408 113.953ZM64.8876 79.344C65.1862 78.338 66.2396 77.7091 67.2673 77.9917C68.2091 78.2507 68.9867 79.3947 68.6185 80.3735C68.2167 81.4416 67.5145 82.3524 66.9224 83.3231C66.3756 84.2201 65.578 84.9264 65.0209 85.8075L65.6348 86.4698C65.9419 86.8002 66.2499 87.1286 66.5613 87.4514L67.6319 88.5614C68.4658 89.424 69.3049 90.282 70.1676 91.1147C72.7045 93.5637 75.2816 95.9323 78.1228 98.0297C78.7696 98.5069 79.4214 98.9815 80.0914 99.4259L80.3413 99.5916C80.801 99.8928 81.3139 100.189 81.8692 100.138C83.2187 100.014 84.4379 98.5796 85.3652 97.6869L85.4137 97.6404C87.7117 95.4521 89.8396 93.0595 91.7 90.4869C92.113 89.9154 92.513 89.3341 92.9025 88.7459C92.003 87.6944 92.2178 85.6418 92.1683 84.3666C92.1333 83.4699 92.1306 82.5731 92.1257 81.6757L92.1233 81.4948C92.1123 80.914 92.0862 80.3569 92.4628 79.879C92.4847 79.8514 92.5301 79.8522 92.5581 79.8668C93.0739 80.1373 93.2328 80.5902 93.4529 81.0983L93.4759 81.151C93.7438 81.7608 94.0003 82.3763 94.2598 82.9896C94.5316 83.6318 94.7807 84.2833 95.0332 84.9331C95.1507 85.2354 95.2629 85.5389 95.3726 85.844C95.4394 86.0389 95.5085 86.2328 95.5795 86.4264L95.5963 86.4413C95.69 86.5209 95.7696 86.605 95.838 86.6918C96.1259 86.8359 96.3546 87.0985 96.4619 87.4842C96.6955 88.3239 96.2121 89.0086 95.7809 89.6751C94.0296 92.383 92.0332 94.9634 89.814 97.3043C88.7116 98.4672 87.5522 99.5779 86.345 100.631L86.134 100.814C85.0495 101.747 83.8722 102.63 82.4239 102.849C80.7291 103.104 79.3497 102.26 78.0523 101.289L77.9229 101.191C76.6929 100.259 75.4877 99.2947 74.3201 98.2857C71.9394 96.2286 69.6745 94.0199 67.6645 91.5966C65.7092 89.2395 63.7766 86.604 62.5714 83.7678C62.4979 83.5951 62.6911 83.4143 62.8425 83.5585C63.4311 84.1194 63.9976 84.7108 64.5573 85.3097C64.5729 84.4281 64.4103 83.5389 64.5007 82.6518C64.611 81.5735 64.5792 80.3822 64.8876 79.344Z" fill="#262626"/>
<path fill-rule="evenodd" clip-rule="evenodd" d="M67.3194 6.33411C77.588 1.67228 89.2347 -0.0956016 100.436 1.06399C105.965 1.63544 111.421 2.86145 116.613 4.85298L117.068 5.02901C118.35 5.52273 119.731 6.0128 120.705 7.0178C121.839 8.18577 122.157 9.95197 121.346 11.3948C120.717 12.5158 119.585 13.32 118.378 13.7491C118.803 14.0977 119.207 14.4865 119.585 14.9205C120.223 15.6477 120.272 16.6848 119.585 17.4022C118.262 18.7847 116.546 19.7849 114.698 20.2643C114.905 21.2681 114.793 22.3791 114.348 23.3795C113.07 26.2511 109.47 26.5934 106.7 26.4229L106.616 26.4175L106.462 28.1821C106.38 29.1221 105.817 29.8511 104.863 29.9952C104.829 30.0002 104.796 30.0036 104.762 30.0067C106.273 35.4731 107.185 41.1083 108.027 46.7104C108.467 49.6347 108.861 52.5658 109.238 55.4988L109.363 56.4765C109.765 59.6385 110.267 62.8325 110.442 66.018C110.597 68.9086 110.046 71.6685 108.267 74.0011C106.669 76.0924 104.491 77.6592 102.149 78.8221C96.8562 81.4511 91.2858 83.4085 85.4324 84.3168L85.042 84.3769C82.7826 84.722 80.4546 85.013 78.2194 84.3872C76.2556 83.8375 74.196 82.4199 74.6397 80.1426C74.7887 79.3734 75.8637 79.3399 76.232 79.9348L76.317 80.0711C76.7587 80.7725 77.2428 81.4244 78.0136 81.7863C78.9159 82.2121 79.9624 82.3309 80.9485 82.3428C83.7028 82.3746 86.5709 81.6876 89.223 80.9989C94.1756 79.7121 99.2622 77.6139 103.319 74.4351C105.045 73.0845 106.432 71.3954 106.921 69.222C107.525 66.5425 106.969 63.6133 106.695 60.9205C106.129 55.3639 105.457 49.8177 104.747 44.2776L104.605 43.1696C104.007 38.538 103.38 33.9046 103.081 29.2461C102.957 29.0769 102.874 28.8842 102.84 28.673L102.794 28.3697C102.753 28.11 102.746 27.8721 102.775 27.6525C102.777 26.8113 102.8 25.9751 102.849 25.1338C102.857 24.9831 102.864 24.8323 102.869 24.6832C101.995 24.8759 101.114 25.0317 100.23 25.1641C94.0149 26.1008 87.7027 26.3354 81.4374 25.8696C78.3115 25.6365 75.2092 25.2362 72.1165 24.7351C70.5425 24.4804 68.9738 24.1989 67.41 23.8839C66.2799 23.6576 65.1731 23.351 64.0614 23.0628C62.9145 24.7334 62.295 26.7895 62.4155 28.8088C62.5512 31.1129 64.0848 33.2025 63.6545 35.5569C63.2507 37.7603 61.3645 38.4435 59.5024 38.9892L58.7103 39.2182C58.101 39.3962 57.6586 39.568 57.5483 40.3008C57.3591 41.5593 57.5918 42.9753 57.6404 44.2404C57.699 45.7368 57.7758 47.2332 57.8112 48.7297C57.8296 49.5038 57.8596 50.2814 57.8581 51.0555C57.8564 51.6052 57.7743 51.9805 57.5617 52.3356C57.7258 52.5419 57.873 52.7648 58.0037 53.001C58.0456 53.0781 57.9418 53.1601 57.88 53.0966C57.7141 52.924 57.5381 52.7681 57.3524 52.6289C57.2587 52.7447 57.1498 52.862 57.0224 52.9876L57.0125 52.9742C56.614 53.3714 55.9811 53.4099 55.4871 52.9876L55.3574 52.8752C54.9958 52.558 54.7473 52.2937 54.6467 51.7694C54.6417 51.7426 54.6365 51.7158 54.6333 51.689C53.7141 51.6571 52.7799 51.8748 51.9527 52.3324C50.6418 53.058 49.7192 54.0919 49.1735 55.3688C49.391 55.6235 49.6455 55.8514 49.9419 56.0425C49.9837 56.071 49.9469 56.133 49.9017 56.1112C49.5987 55.9687 49.3274 55.7928 49.0846 55.5867C48.8887 56.0894 48.7515 56.629 48.6677 57.2004C48.3731 59.2179 48.8988 61.6829 50.7204 62.8325C51.5091 63.3301 52.4098 63.5999 53.3441 63.6033C53.7993 63.6048 54.193 63.5279 54.635 63.419C54.9347 63.3452 55.2327 63.238 55.5458 63.238C55.8137 63.238 56.0615 63.305 56.2909 63.4391L56.2273 63.4446C56.0727 63.4592 56.1024 63.4657 56.3177 63.4657C56.9874 63.4944 57.3707 64.1747 57.0628 64.7662L57.0224 64.8576C57.0139 64.8761 57.0066 64.8913 57.001 64.9035L56.9766 65.0604C56.9742 65.0753 56.9717 65.0906 56.969 65.1064L56.9597 65.1382C56.958 65.1433 56.9562 65.1483 56.9539 65.1533L57.9584 66.6863C59.1899 68.5617 60.4488 70.4298 61.8814 72.1427C62.886 73.3442 63.9509 74.5222 65.076 75.6131C66.0873 76.5934 67.2995 77.066 68.4448 77.8368C69.0561 78.2457 69.235 79.102 68.6793 79.6533C67.0484 81.2737 64.7395 79.9867 63.4017 78.6696C62.1359 77.4212 61.0426 75.9198 60.1 74.4167C58.4273 71.7439 57.0962 68.9019 56.5136 65.8169C56.2708 66.0398 55.9611 66.1789 55.648 66.2878C55.0201 66.5056 54.3286 66.5961 53.6656 66.6196C52.3948 66.6615 51.1223 66.3531 49.9787 65.8068C45.3258 63.5865 44.6427 56.9373 47.4873 53.0161C47.1038 51.9028 46.8895 50.6949 46.6568 49.6648L46.5509 49.2044C45.3744 44.0611 44.5848 38.6461 46.6703 33.6063C46.9382 32.9562 47.2395 32.3227 47.5962 31.7161C47.8825 31.2285 48.3747 30.709 48.5104 30.1544C48.8117 28.9361 46.9516 27.6559 46.4091 26.689C45.7712 25.5545 45.6808 24.2156 46.5497 23.1782C46.6602 23.0477 46.7806 22.9269 46.9114 22.8215C46.0876 21.3267 46.0491 19.4466 47.1341 17.9719C47.8473 17 48.9356 16.3197 50.1244 16.1136C50.851 15.9879 51.725 16.0348 52.5237 16.2594C56.8968 12.1958 61.8865 8.80076 67.3194 6.33411ZM50.5261 57.1803C51.6933 56.1497 52.9825 55.6101 54.5731 55.7459C56.1721 55.8831 58.0975 56.5452 59.0367 57.9176C59.7786 59.0018 58.2666 60.592 57.1783 59.7776C56.1871 59.0353 55.5256 58.1974 54.2952 57.7986C53.1899 57.4417 51.822 57.2121 50.6651 57.4166C50.5378 57.4383 50.4108 57.2808 50.5261 57.1803Z" fill="#262626"/>
<path fill-rule="evenodd" clip-rule="evenodd" d="M106.167 46.6814C104.57 57.4879 93.4272 58.683 91.4473 47.9548C91.7651 47.8155 91.9936 47.5414 91.9459 47.0092C91.9347 44.6712 92.6599 42.2002 94.7672 40.9C96.9448 39.5584 99.4932 39.4254 102.013 39.4592C106.822 39.3446 106.721 43.3675 106.167 46.6814M89.7028 41.9815C88.1936 41.9179 86.2842 41.9711 84.9322 42.8914C84.5605 41.8897 83.5948 40.8201 82.619 40.2482C86.2459 40.3544 89.9793 39.9971 93.6333 39.7198C92.7586 40.3165 91.9449 41.213 91.416 42.2495C90.9253 41.9876 90.2224 42.012 89.7028 41.9815M83.0505 47.8271C78.8655 62.2443 68.4193 55.9603 67.2804 54.1127C65.2262 51.0552 64.8398 43.6227 66.6291 41.6355C69.1905 39.8385 72.8165 40.301 75.8424 40.2569C81.4012 40.332 85.3493 41.9963 83.0505 47.8271M111.108 41.1961C109.971 41.0473 108.756 41.0173 107.699 41.5184C107.373 40.1337 106.352 38.9761 105.198 38.4667C105.058 38.2914 105.079 38.1973 104.602 38.2236C101.673 37.3425 98.395 37.8087 95.5801 38.7122C91.1345 39.0869 86.4703 39.3823 81.9874 39.8986C77.7878 38.0111 65.1145 37.7344 64.3269 42.3867C63.3362 42.2384 61.649 41.458 60.8165 42.5166C54.7101 41.4805 48.4004 42.9204 42.2676 43.5617C40.7239 43.8463 39.9287 46.9125 41.6811 46.8706C42.6662 46.603 41.6508 44.9613 42.9773 44.8378C48.8945 44.191 54.6823 43.2733 60.6601 43.1659C60.4522 44.199 64.6138 44.2662 64.6753 43.6629C64.6842 43.6675 64.6935 43.6705 64.7026 43.6745C63.6742 47.5102 64.6024 53.0303 66.4609 55.4089C69.0648 58.5233 75.6022 59.4168 78.5009 57.413C82.2402 55.5635 86.1301 46.2797 85.0375 43.1954C87.0205 42.5664 88.981 42.7552 91.0391 43.0756C90.5679 44.4076 89.7545 47.6867 90.9247 47.971C90.7099 54.4812 96.6298 58.5433 102.087 55.8727C106.81 53.6535 108.462 46.6293 107.884 42.3658C108.472 43.5029 113.41 42.2649 111.108 41.1961" fill="#262626"/>
<path fill-rule="evenodd" clip-rule="evenodd" d="M91.8005 65.861C91.2486 66.5844 90.2492 67.1384 89.13 67.4033C88.0635 67.6558 86.8847 67.6455 85.8675 67.257L85.7802 67.2221C85.0196 66.9055 84.2896 66.2662 84.0124 65.599C83.9022 65.3337 83.8649 65.0642 83.9403 64.8126C84.0081 64.5862 84.1672 64.3779 84.4322 64.199C84.5154 64.1428 84.627 64.1387 84.7333 64.1575C84.8652 64.1808 84.9952 64.2427 85.0736 64.3262C85.5088 64.7901 86.1402 65.2423 86.8875 65.2346C87.4641 65.2287 87.935 65.0005 88.3917 64.7426L88.7125 64.5584C89.0221 64.3813 89.3361 64.2149 89.6914 64.1389C90.3273 64.0028 91.0985 64.2515 91.5685 64.6618C91.7735 64.8408 91.9224 65.0511 91.9628 65.2776C91.9968 65.4678 91.9491 65.6663 91.8005 65.861ZM88.4944 53.2107C89.7574 53.9802 91.6819 55.7746 90.3232 57.6824C88.7238 59.3645 86.4211 57.4358 85.2864 56.5636C84.2342 55.8876 83.052 57.6262 84.0282 58.4156C92.2279 64.5006 95.5554 53.4119 89.1332 52.3059C88.4261 52.184 88.1635 52.9726 88.4944 53.2107ZM74.2455 41.3835L74.6083 41.2837L74.9783 41.1836L75.2285 41.1173C76.947 40.6665 78.8426 40.2696 80.5467 40.4634C81.1683 40.5341 81.6727 40.8847 81.7607 41.5374C81.8348 42.0881 81.4797 42.7986 80.8754 42.8965C78.8738 43.2211 76.8247 43.1158 74.814 43.4504C73.8126 43.6169 72.8189 43.8236 71.8214 44.0099C71.0629 44.1517 70.2791 44.2015 69.5141 44.3162L69.6898 44.3407C69.7514 44.3491 69.736 44.4528 69.6753 44.4487C69.4231 44.4234 69.1706 44.4195 68.9177 44.4372L68.8092 44.4461C68.6441 44.4694 68.5468 44.2719 68.694 44.1717C69.6261 43.5378 70.4171 42.8508 71.4608 42.3835C72.3635 41.9795 73.2926 41.6463 74.2455 41.3835ZM89.8907 40.4113C91.212 39.0724 94.0219 39.5869 95.5938 40.1994C96.491 40.5491 97.344 40.9912 98.0545 41.6526L98.1238 41.7176L98.2305 41.8205C98.7101 42.2911 99.2449 42.9388 99.1688 43.6173C99.1573 43.7207 99.1011 43.8389 98.9845 43.8597C98.3549 43.9716 97.7366 43.6386 97.1552 43.4382L96.7701 43.3058C96.1919 43.1084 95.6101 42.9198 95.0139 42.7836C94.2727 42.6146 93.5165 42.5168 92.7555 42.5266C91.9862 42.5366 91.16 42.7542 90.4272 42.4481C89.61 42.1069 89.1863 41.1251 89.8907 40.4113ZM76.8368 51.2094C76.4997 51.5545 76.0544 51.7492 75.4846 51.6334C75.0393 51.5429 74.1915 51.0941 73.5142 50.403C73.0509 49.9302 72.6635 49.3393 72.5581 48.6549C72.5337 48.4959 72.4495 48.394 72.339 48.3299C72.2518 48.2792 72.1367 48.2537 72.0114 48.2664C71.905 48.2772 71.792 48.3159 71.7047 48.3671C71.5386 48.4645 71.4707 48.6028 71.4569 48.706C71.3236 49.7025 71.7077 50.6912 72.3062 51.5249C73.114 52.6499 74.3003 53.4744 74.9975 53.6674C76.1907 53.9978 77.448 53.7347 78.3749 52.9023C79.1162 52.2368 79.4962 51.3696 79.8487 50.478L79.9167 50.3051C79.996 50.1028 80.0746 49.9019 80.158 49.7032C80.3251 49.3051 80.2716 48.9609 80.1096 48.6926C79.9301 48.3954 79.5988 48.1862 79.23 48.122C78.8891 48.0626 78.5243 48.1275 78.2363 48.3363C77.9931 48.5126 77.7969 48.7919 77.7272 49.205C77.6138 49.8767 77.3509 50.6474 76.8873 51.1559L76.8368 51.2094ZM97.2966 47.3216C97.0186 47.1764 96.8011 47.1326 96.4927 47.2252C96.3222 47.2766 96.1536 47.375 96.0216 47.5073C95.8908 47.6384 95.7965 47.8014 95.7598 47.9822C95.6696 48.4286 95.426 48.8464 95.0788 49.1188C94.782 49.3516 94.4074 49.475 93.992 49.4054C93.5436 49.3303 93.1165 49.0421 92.8223 48.7023C92.7404 48.6076 92.6732 48.5021 92.6082 48.3954L92.5694 48.3312C92.4245 48.0914 92.2836 47.8684 92.0837 47.6923C92.0079 47.6253 91.8937 47.5788 91.7831 47.5788C91.7382 47.5788 91.6926 47.5862 91.6491 47.5998C91.2029 48.0487 91.1171 48.3892 91.1315 48.727C91.1465 49.0812 91.2859 49.4399 91.511 49.7745C92.0392 50.5594 93.0419 51.203 93.7186 51.3488C94.6453 51.5484 95.5656 51.3088 96.3034 50.79C97.0627 50.2562 97.6252 49.4274 97.8006 48.4934C97.8428 48.2684 97.8249 48.0256 97.7394 47.8151C97.6559 47.6094 97.5104 47.4332 97.2966 47.3216Z" fill="#262626"/>
</g>
<defs>
<clipPath id="clip0_108_193">
<rect width="137" height="133" fill="white"/>
</clipPath>
</defs>
</svg>
