<svg width="137" height="133" viewBox="0 0 137 133" fill="none" xmlns="http://www.w3.org/2000/svg">
<g clip-path="url(#clip0_108_198)">
<path fill-rule="evenodd" clip-rule="evenodd" d="M132.396 196.735C135.632 196.579 134.331 190.914 134.098 188.834C131.536 181.235 132.139 172.945 131.131 164.981C130.503 157.546 129.697 150.134 129.018 142.705C127.686 127.625 118.118 96.9251 107.199 91.9878C105.823 85.9476 100.142 80.3091 92.9544 80.3091C88.052 74.5012 82.1512 70.4138 74.5828 71.2391C71.4552 71.3815 68.422 74.7014 65.4252 75.3426C63.7472 75.5741 48.8558 74.9781 45.8728 76.7512C43.795 77.8189 41.9192 79.7921 42.5302 82.3041C43.505 85.3476 40.4756 82.0545 34.1563 85.3028C21.2702 93.0485 28.9704 103.411 29.3116 103.732C21.2702 114.929 14.2416 124.014 10.9896 137.7C8.88198 147.862 9.11923 158.352 7.35333 168.565C6.72982 172.106 5.77328 175.527 4.73822 178.966C3.61643 183.467 3.07096 194.684 2.45264 194.785C1.32632 195.065 3.10358 197.379 4.29704 197.381C37.3855 202.874 70.9954 197.609 104.262 196.748C113.637 196.422 123.022 196.347 132.396 196.735Z" fill="#FDFFFC"/>
<path fill-rule="evenodd" clip-rule="evenodd" d="M82.2456 104.72C82.2611 104.568 82.4653 104.569 82.4811 104.72L82.7147 106.977C82.9989 109.734 83.2725 112.485 83.4709 115.254C83.7182 118.708 83.8836 122.16 83.9633 125.621C84.2413 137.676 84.2965 149.737 84.32 161.795C85.9492 161.682 87.5787 161.573 89.209 161.468C90.315 161.396 91.4211 161.328 92.5274 161.26L95.3482 161.089V161.089L96.5095 161.018C97.2942 160.969 98.1858 160.771 98.7345 161.467C98.9541 161.746 99.0643 162.107 98.8595 162.438C98.3872 163.201 97.6617 163.174 96.8412 163.207C96.067 163.238 95.2928 163.269 94.5185 163.299C92.8595 163.363 91.2006 163.424 89.541 163.471C87.7994 163.52 86.0586 163.559 84.3176 163.589C84.3 168.679 84.0896 173.763 83.862 178.848L83.7591 181.136C83.4806 187.324 83.1811 193.517 82.7556 199.696C82.7207 200.202 82.0055 200.201 81.9709 199.696C81.4917 192.737 81.1756 185.763 80.8622 178.795C80.6348 173.742 80.5025 168.689 80.4396 163.634C80.2093 163.636 79.9793 163.639 79.7492 163.64C73.2149 163.668 66.6822 163.697 60.1479 163.635C60.1587 163.648 60.1695 163.661 60.1767 163.678C60.6495 164.795 60.6945 166.221 60.683 167.42C60.6697 168.795 60.4847 170.154 60.1683 171.491C59.0345 176.281 56.1102 180.572 52.7796 184.12L52.6709 184.235C51.8853 185.066 50.984 185.9 50.5016 186.959C50.0089 188.039 49.8379 189.303 49.5947 190.464L49.5664 190.597L48.6157 194.992C48.3136 196.388 48.2279 198.424 47.1239 199.431C46.0938 200.371 44.7293 199.88 44.2445 198.67C43.866 197.726 44.243 196.689 44.4672 195.745L46.2238 188.355C46.5124 187.15 46.8278 185.937 47.4507 184.854C48.0888 183.745 49.0242 182.942 49.9787 182.119C51.7862 180.562 53.4454 178.779 54.8486 176.848C56.2514 174.919 57.4502 172.791 58.2909 170.555C58.7118 169.435 59.0567 168.272 59.2946 167.099C59.5208 165.986 59.5188 164.834 59.7608 163.733C59.7773 163.657 59.8415 163.605 59.915 163.581C59.8975 163.532 59.9242 163.466 59.9928 163.462L65.3368 163.118C70.0872 162.811 74.8373 162.497 79.5833 162.137L80.422 162.077V162.077C80.3569 155.333 80.4121 148.587 80.5338 141.841C80.6453 135.654 80.6477 129.466 80.8315 123.281C80.9229 120.21 81.12 117.148 81.3393 114.084C81.5637 110.951 81.9228 107.844 82.2456 104.72ZM32.0677 140.591C32.0108 140.248 32.4426 140.035 32.6417 140.349C34.9172 143.939 36.0144 147.838 36.4769 152.039C36.8854 155.746 36.765 159.507 36.5616 163.225C36.3446 167.189 36.0914 171.153 35.8354 175.116L35.4421 181.192V181.192L34.4551 196.426C34.3845 197.516 34.1373 198.507 33.1999 199.013C33.0812 199.112 32.9575 199.201 32.8133 199.278C32.3068 199.549 31.6351 199.412 31.3422 198.892L31.4597 198.97C31.5619 199.034 31.4471 198.944 31.115 198.7L30.8333 198.335V198.335C30.6285 198.027 30.4977 197.724 30.4451 197.358C30.3634 196.789 30.4693 196.165 30.5064 195.593L31.1534 185.604V185.604C31.6565 177.838 32.244 170.075 32.6869 162.305C32.8932 158.684 33.0377 155.059 32.9399 151.431C32.8424 147.824 32.6588 144.155 32.0677 140.591ZM51.7534 73.7209L51.8796 73.6997C56.3994 72.9483 61.3142 73.0889 65.4449 75.2695C65.4791 75.2874 65.4635 75.3442 65.4252 75.3426L64.0956 75.2894C59.8866 75.1245 55.6906 75.0268 51.552 76.0165L51.1283 76.1187C49.6379 76.4826 48.0814 76.9279 46.8843 77.9131C45.7401 78.8549 45.1703 80.3075 44.6225 81.6449L44.5492 81.8214C43.9934 83.1423 43.2898 84.395 42.0715 85.2209C40.4934 86.2905 38.5956 86.1595 36.7862 86.3048C33.6003 86.561 30.9955 88.8718 29.6996 91.6995C28.9149 93.4118 28.5802 95.3315 28.5139 97.2039C28.4799 98.1572 28.475 99.1478 28.6019 100.095C28.6425 100.398 29.0165 101.501 29.2072 101.474C29.631 101.415 30.0184 101.637 30.1505 101.976C31.1973 100.963 32.2742 99.9804 33.3858 99.0328C36.1566 96.6712 39.1411 94.5308 42.2841 92.6916C44.6829 91.2877 47.2131 89.8968 49.8333 88.8453C49.6257 88.8409 49.4209 88.8822 49.2228 88.9852C49.1361 89.0306 49.0499 88.9217 49.1183 88.8497C49.9436 87.9806 50.9321 87.857 51.9287 88.0887C52.1413 88.021 52.3541 87.9555 52.5678 87.8933C52.6741 87.8623 52.727 88.009 52.6403 88.0656L52.3955 88.2221V88.2221C53.4826 88.5866 54.55 89.3029 55.395 89.8683C57.8224 91.4919 59.959 93.4768 62.1249 95.4245L62.5187 95.7776C64.4252 97.4812 66.3802 99.1368 68.5463 100.504C69.6801 101.219 70.8711 101.881 72.1203 102.373C73.1917 102.795 74.9361 103.061 75.4379 104.195C75.884 104.737 75.6976 105.429 75.1752 105.794C74.2942 106.764 72.5318 106.137 71.482 105.733C70.2164 105.246 68.9903 104.66 67.821 103.973C65.5507 102.639 63.4575 100.981 61.5076 99.2168C59.4711 97.3742 57.5502 95.4168 55.5695 93.5164C54.7113 92.6929 53.8729 91.8501 53.0134 91.0279L52.5817 90.6187C52.143 90.207 51.518 89.5652 50.8498 89.1768C49.5908 89.9283 48.3125 90.6489 47.065 91.4199C45.3235 92.496 43.6333 93.6497 41.9692 94.8415C38.7655 97.1357 35.7297 99.7053 32.9113 102.459C27.7424 107.51 23.3386 113.278 19.4915 119.386L19.1993 119.851C17.0132 123.347 14.9459 126.955 13.48 130.818C11.8672 135.068 11.0827 139.538 10.6566 144.049C10.2337 148.529 10.091 153.031 9.61839 157.506C9.13367 162.096 8.17864 166.585 7.09235 171.065L6.83327 172.127C5.85034 176.14 4.83583 180.152 4.33056 184.259C4.06083 186.453 3.89859 188.677 3.93526 190.889C3.97209 193.113 4.32135 195.288 4.60314 197.489C4.71113 198.333 3.88201 199.036 3.14012 199.148C2.28689 199.276 1.55388 198.732 1.28867 197.938C0.461889 195.465 0.311703 192.732 0.337655 190.136C0.363774 187.501 0.699809 184.883 1.17264 182.294C2.10255 177.2 3.53761 172.212 4.73809 167.179C5.79609 162.743 6.50617 158.299 6.88892 153.755C7.28623 149.04 7.52415 144.309 8.24896 139.629C8.9644 135.008 10.3105 130.594 12.3407 126.38C14.1891 122.544 16.4933 118.933 18.909 115.433C21.8426 111.183 25.0645 107.138 28.6659 103.453C28.3424 103.439 28.0102 103.335 27.7052 103.144C26.7719 102.562 26.3373 101.422 26.2037 100.382C25.8909 97.9473 25.9664 95.4059 26.5919 93.0259C27.601 89.1865 30.22 85.7751 34.0157 84.3911C34.9926 84.0348 36.0312 83.9048 37.0666 83.8792C38.0491 83.8547 39.1222 83.9829 40.0702 83.6712C41.5791 83.1748 42.2259 81.3962 42.7925 80.0479L42.8186 79.986C43.545 78.2679 44.417 76.7952 45.9906 75.7225C47.6693 74.5777 49.7727 74.057 51.7534 73.7209V73.7209ZM94.6991 80.5156C96.0573 80.0441 97.7554 80.472 99.0836 80.8839C100.563 81.3431 101.931 82.1886 103.103 83.1929C104.34 84.2519 105.362 85.5597 106.084 87.0205L106.153 87.1613C106.813 88.5164 107.564 90.3768 107.232 91.8655C107.222 91.9078 107.211 91.9485 107.199 91.9879C109.894 93.3155 112.382 94.9785 114.549 97.0862C117.073 99.5403 119.21 102.333 121.018 105.35C128.2 117.332 129.464 131.723 130.312 145.389L130.524 148.854C130.984 156.335 131.523 163.8 132.923 171.178L133.025 171.711C134.522 179.436 136.664 187.221 136.447 195.146C136.382 197.52 132.876 197.504 132.774 195.146C132.391 186.269 130.322 177.699 128.92 168.961C126.454 153.587 127.69 137.739 124.195 122.519C122.824 116.547 120.7 110.753 117.667 105.422C116.168 102.788 114.454 100.243 112.446 97.9713C110.718 96.0163 108.922 94.1348 106.903 92.4913C106.258 93.1381 104.969 92.8085 104.632 91.8655C104.401 91.2175 104.468 90.46 104.32 89.7811C104.182 89.1512 103.992 88.5267 103.739 87.9335C103.234 86.7513 102.493 85.616 101.638 84.6591C100.714 83.6249 99.6527 82.7656 98.4648 82.0561C97.2687 81.3417 95.9605 81.1284 94.6991 80.6064C94.6566 80.5888 94.6526 80.5319 94.6991 80.5156ZM99.9759 162.675C99.9779 162.613 100.051 162.583 100.097 162.625C100.573 163.063 100.861 163.693 101.211 164.232C101.615 164.854 102.04 165.464 102.485 166.057C103.376 167.246 104.369 168.367 105.37 169.465C106.3 170.486 107.292 171.464 108.321 172.386C109.436 173.385 110.685 174.277 111.698 175.383C113.811 177.692 114.153 180.86 114.598 183.835L114.647 184.157C114.919 185.922 115.163 187.692 115.382 189.465C115.489 190.327 115.596 191.191 115.683 192.055L115.709 192.329C115.787 193.175 115.808 194.034 115.322 194.773C114.803 195.565 113.621 195.842 112.918 195.083C111.711 193.78 111.937 191.465 111.78 189.789C111.65 188.402 111.503 187.018 111.338 185.635L111.254 184.944C111.06 183.371 110.902 181.767 110.543 180.222C110.226 178.861 109.622 177.833 108.631 176.847C107.633 175.854 106.596 174.927 105.674 173.857C104.697 172.723 103.815 171.506 103.021 170.237C102.342 169.151 101.797 167.969 101.298 166.789L101.216 166.592C100.733 165.441 99.9383 163.943 99.9759 162.675ZM117.408 113.234C117.418 113.073 117.655 113.071 117.659 113.234C117.689 114.615 117.718 115.996 117.746 117.376C117.977 128.504 117.835 139.657 118.95 150.746C119.476 155.974 120.445 161.126 121.566 166.256C122.139 168.881 122.741 171.5 123.313 174.125C123.87 176.684 124.468 179.255 124.91 181.837C125.344 184.375 125.733 186.933 125.908 189.503L125.929 189.839C126.004 191.084 126.363 192.916 125.678 194.019C124.936 195.215 123.514 195.237 122.719 194.095C121.972 193.024 122.158 191.117 122.026 189.839C121.892 188.536 121.75 187.233 121.589 185.933C121.274 183.398 120.86 180.869 120.43 178.352C119.533 173.109 118.232 167.932 117.272 162.697C116.287 157.333 115.588 151.931 115.558 146.47C115.529 140.962 116.112 135.466 116.406 129.97C116.704 124.389 117.044 118.811 117.408 113.234ZM64.8876 78.6248C65.1862 77.6189 66.2396 76.99 67.2673 77.2725C68.2091 77.5316 68.9867 78.6756 68.6185 79.6544C68.2167 80.7225 67.5145 81.6332 66.9224 82.604C66.3756 83.501 65.5779 84.2073 65.0209 85.0884L65.6347 85.7507C65.9419 86.0811 66.2498 86.4095 66.5613 86.7323L67.6319 87.8422C68.4658 88.7048 69.3049 89.5628 70.1676 90.3956C72.7045 92.8446 75.2816 95.2132 78.1228 97.3106C78.7695 97.7878 79.4214 98.2624 80.0914 98.7068L80.3413 98.8725C80.801 99.1737 81.3139 99.4698 81.8692 99.4188C83.2186 99.2948 84.4379 97.8605 85.3652 96.9678L85.4137 96.9213C87.7117 94.733 89.8396 92.3404 91.7 89.7678C92.113 89.1962 92.513 88.6149 92.9024 88.0268C92.003 86.9753 92.2178 84.9227 92.1683 83.6475C92.1333 82.7508 92.1306 81.8539 92.1257 80.9566L92.1233 80.7756C92.1123 80.1948 92.0862 79.6378 92.4628 79.1599C92.4847 79.1322 92.5301 79.1331 92.558 79.1477C93.0739 79.4182 93.2328 79.8711 93.4529 80.3792L93.4759 80.4319C93.7438 81.0417 94.0003 81.6572 94.2598 82.2705C94.5316 82.9127 94.7807 83.5642 95.0332 84.214C95.1507 84.5163 95.2629 84.8198 95.3726 85.1249C95.4394 85.3198 95.5085 85.5137 95.5795 85.7072L95.5963 85.7222C95.69 85.8018 95.7695 85.8859 95.838 85.9727C96.1258 86.1168 96.3546 86.3794 96.4619 86.7651C96.6954 87.6048 96.2121 88.2895 95.7809 88.9559C94.0296 91.6639 92.0331 94.2443 89.814 96.5851C88.7116 97.7481 87.5522 98.8587 86.345 99.9123L86.134 100.095C85.0495 101.028 83.8722 101.911 82.4239 102.13C80.7291 102.385 79.3497 101.541 78.0523 100.57L77.9228 100.472C76.6929 99.5401 75.4877 98.5755 74.32 97.5666C71.9393 95.5095 69.6745 93.3007 67.6645 90.8775C65.7092 88.5204 63.7765 85.8849 62.5714 83.0487C62.4979 82.876 62.6911 82.6951 62.8424 82.8394C63.4311 83.4003 63.9976 83.9916 64.5573 84.5905C64.5729 83.709 64.4103 82.8198 64.5007 81.9327C64.611 80.8544 64.5792 79.6631 64.8876 78.6248Z" fill="#262626"/>
<path fill-rule="evenodd" clip-rule="evenodd" d="M67.3194 5.61493C77.588 0.953099 89.2347 -0.814779 100.436 0.344815C105.965 0.916267 111.421 2.14228 116.613 4.1338L117.068 4.30983C118.35 4.80355 119.731 5.29362 120.705 6.29862C121.839 7.4666 122.157 9.2328 121.346 10.6756C120.717 11.7966 119.585 12.6008 118.378 13.03C118.803 13.3785 119.207 13.7673 119.585 14.2013C120.223 14.9285 120.272 15.9656 119.585 16.683C118.262 18.0655 116.546 19.0657 114.698 19.5451C114.905 20.5489 114.793 21.6599 114.348 22.6603C113.07 25.5319 109.47 25.8742 106.7 25.7037L106.616 25.6984L106.462 27.4629C106.38 28.403 105.817 29.1319 104.863 29.276C104.829 29.281 104.796 29.2844 104.762 29.2876C106.273 34.7539 107.185 40.3892 108.027 45.9912C108.467 48.9155 108.861 51.8466 109.238 54.7796L109.363 55.7573C109.765 58.9194 110.267 62.1133 110.442 65.2988C110.597 68.1894 110.046 70.9493 108.267 73.2819C106.669 75.3732 104.491 76.94 102.149 78.1029C96.8562 80.732 91.2858 82.6894 85.4324 83.5976L85.042 83.6577C82.7826 84.0029 80.4546 84.2938 78.2194 83.668C76.2556 83.1183 74.196 81.7007 74.6397 79.4234C74.7887 78.6542 75.8637 78.6207 76.232 79.2156L76.317 79.3519C76.7587 80.0533 77.2428 80.7052 78.0136 81.0671C78.9159 81.4929 79.9624 81.6117 80.9485 81.6236C83.7028 81.6554 86.5709 80.9684 89.223 80.2797C94.1756 78.9929 99.2622 76.8947 103.319 73.7159C105.045 72.3653 106.432 70.6762 106.921 68.5028C107.525 65.8233 106.969 62.8942 106.695 60.2013C106.129 54.6447 105.457 49.0985 104.747 43.5584L104.605 42.4505C104.007 37.8188 103.38 33.1854 103.081 28.527C102.957 28.3577 102.874 28.165 102.84 27.9539L102.794 27.6506C102.753 27.3908 102.746 27.1529 102.775 26.9334C102.777 26.0921 102.8 25.256 102.849 24.4146C102.857 24.2639 102.864 24.1131 102.869 23.964C101.995 24.1567 101.114 24.3125 100.23 24.4449C94.0149 25.3816 87.7027 25.6162 81.4374 25.1504C78.3115 24.9173 75.2092 24.517 72.1165 24.0159C70.5425 23.7612 68.9738 23.4797 67.41 23.1647C66.2799 22.9385 65.1731 22.6318 64.0614 22.3436C62.9145 24.0143 62.295 26.0704 62.4155 28.0896C62.5512 30.3937 64.0848 32.4833 63.6545 34.8377C63.2507 37.0411 61.3645 37.7243 59.5024 38.27L58.7103 38.499C58.101 38.677 57.6586 38.8488 57.5483 39.5816C57.3591 40.8401 57.5918 42.2561 57.6404 43.5212C57.699 45.0177 57.7758 46.5141 57.8112 48.0105C57.8296 48.7847 57.8596 49.5622 57.8581 50.3364C57.8564 50.886 57.7743 51.2614 57.5617 51.6164C57.7258 51.8227 57.873 52.0456 58.0037 52.2819C58.0456 52.359 57.9418 52.4409 57.88 52.3774C57.7141 52.2048 57.5381 52.0489 57.3524 51.9097C57.2587 52.0255 57.1498 52.1428 57.0224 52.2685L57.0125 52.2551C56.614 52.6522 55.9811 52.6907 55.4871 52.2685L55.3574 52.156C54.9958 51.8388 54.7473 51.5745 54.6467 51.0502C54.6417 51.0234 54.6365 50.9966 54.6333 50.9698C53.7141 50.9379 52.7799 51.1556 51.9527 51.6133C50.6418 52.3388 49.7192 53.3728 49.1735 54.6497C49.391 54.9044 49.6455 55.1323 49.9419 55.3233C49.9837 55.3518 49.9469 55.4138 49.9017 55.392C49.5987 55.2496 49.3274 55.0736 49.0846 54.8675C48.8887 55.3702 48.7515 55.9098 48.6677 56.4812C48.3731 58.4988 48.8988 60.9637 50.7204 62.1133C51.5091 62.611 52.4098 62.8808 53.3441 62.8841C53.7993 62.8856 54.193 62.8087 54.635 62.6998C54.9347 62.626 55.2327 62.5188 55.5458 62.5188C55.8137 62.5188 56.0615 62.5858 56.2909 62.7199L56.2273 62.7255C56.0727 62.74 56.1024 62.7465 56.3177 62.7465C56.9874 62.7752 57.3707 63.4555 57.0628 64.0471L57.0224 64.1384C57.0139 64.1569 57.0066 64.1722 57.001 64.1843L56.9766 64.3412C56.9742 64.3561 56.9717 64.3715 56.969 64.3872L56.9597 64.419C56.958 64.4241 56.9562 64.4291 56.9539 64.4341L57.9584 65.9671C59.1899 67.8425 60.4488 69.7106 61.8814 71.4235C62.886 72.625 63.9509 73.8031 65.076 74.8939C66.0873 75.8742 67.2995 76.3468 68.4448 77.1176C69.0561 77.5265 69.235 78.3828 68.6793 78.9341C67.0484 80.5545 64.7395 79.2676 63.4017 77.9504C62.1359 76.702 61.0426 75.2006 60.1 73.6975C58.4273 71.0247 57.0962 68.1827 56.5136 65.0977C56.2708 65.3206 55.9611 65.4597 55.648 65.5686C55.0201 65.7864 54.3286 65.8769 53.6656 65.9004C52.3948 65.9423 51.1223 65.634 49.9787 65.0877C45.3258 62.8674 44.6427 56.2181 47.4873 52.2969C47.1038 51.1837 46.8895 49.9757 46.6568 48.9457L46.5509 48.4852C45.3744 43.342 44.5848 37.9269 46.6703 32.8872C46.9382 32.237 47.2395 31.6036 47.5962 30.997C47.8825 30.5093 48.3747 29.9899 48.5104 29.4352C48.8117 28.217 46.9516 26.9367 46.4091 25.9698C45.7712 24.8354 45.6808 23.4965 46.5497 22.459C46.6602 22.3285 46.7806 22.2077 46.9114 22.1023C46.0876 20.6075 46.0491 18.7274 47.1341 17.2528C47.8473 16.2808 48.9356 15.6005 50.1244 15.3944C50.851 15.2687 51.725 15.3156 52.5237 15.5402C56.8968 11.4766 61.8865 8.08158 67.3194 5.61493ZM50.5261 56.4611C51.6933 55.4305 52.9825 54.891 54.5731 55.0267C56.1721 55.1639 58.0975 55.826 59.0367 57.1984C59.7786 58.2826 58.2666 59.8729 57.1783 59.0585C56.1871 58.3161 55.5256 57.4783 54.2952 57.0794C53.1899 56.7225 51.822 56.4929 50.6651 56.6974C50.5378 56.7192 50.4108 56.5617 50.5261 56.4611Z" fill="#262626"/>
<path fill-rule="evenodd" clip-rule="evenodd" d="M106.167 45.9622C104.57 56.7687 93.4272 57.9639 91.4473 47.2356C91.7651 47.0963 91.9936 46.8222 91.9459 46.29C91.9347 43.952 92.6599 41.481 94.7672 40.1808C96.9448 38.8393 99.4932 38.7062 102.013 38.7401C106.822 38.6254 106.721 42.6483 106.167 45.9622M89.7028 41.2624C88.1936 41.1987 86.2842 41.252 84.9322 42.1723C84.5605 41.1705 83.5948 40.1009 82.619 39.529C86.2459 39.6352 89.9793 39.278 93.6333 39.0006C92.7586 39.5974 91.9449 40.4939 91.416 41.5303C90.9253 41.2684 90.2224 41.2928 89.7028 41.2624M83.0505 47.1079C78.8655 61.5251 68.4193 55.2412 67.2804 53.3935C65.2262 50.336 64.8398 42.9035 66.6291 40.9163C69.1905 39.1193 72.8165 39.5818 75.8424 39.5377C81.4012 39.6128 85.3493 41.2771 83.0505 47.1079M111.108 40.4769C109.971 40.3281 108.756 40.2981 107.699 40.7992C107.373 39.4145 106.352 38.257 105.198 37.7475C105.058 37.5723 105.079 37.4781 104.602 37.5044C101.673 36.6233 98.3951 37.0895 95.5803 37.993C91.1346 38.3677 86.4705 38.6632 81.9875 39.1794C77.788 37.2919 65.1146 37.0153 64.327 41.6675C63.3363 41.5192 61.6491 40.7389 60.8166 41.7974C54.7102 40.7613 48.4006 42.2013 42.2677 42.8426C40.724 43.1271 39.9288 46.1933 41.6812 46.1514C42.6664 45.8838 41.6509 44.2421 42.9774 44.1186C48.8946 43.4718 54.6824 42.5542 60.6602 42.4467C60.4523 43.4798 64.614 43.547 64.6754 42.9438C64.6843 42.9483 64.6937 42.9513 64.7027 42.9553C63.6743 46.791 64.6026 52.3112 66.4611 54.6897C69.065 57.8042 75.6023 58.6976 78.5011 56.6938C82.2403 54.8443 86.1302 45.5606 85.0376 42.4762C87.0207 41.8472 88.9811 42.036 91.0392 42.3564C90.568 43.6885 89.7546 46.9675 90.9248 47.2519C90.71 53.762 96.6299 57.8241 102.087 55.1535C106.811 52.9344 108.462 45.9101 107.884 41.6466C108.472 42.7837 113.41 41.5457 111.108 40.4769" fill="#262626"/>
<path fill-rule="evenodd" clip-rule="evenodd" d="M88.4944 52.4916C89.7574 53.2611 91.6819 55.0555 90.3231 56.9633C88.7238 58.6454 86.4211 56.7167 85.2863 55.8444C84.2341 55.1684 83.052 56.9071 84.0282 57.6964C92.2278 63.7814 95.5554 52.6928 89.1332 51.5868C88.4261 51.4649 88.1634 52.2535 88.4944 52.4916ZM77.0829 37.8158L77.3969 37.7607L77.5579 37.7333C78.4985 37.5775 79.6136 37.4732 80.2633 38.2133C80.6278 38.6284 80.7532 39.3999 80.2633 39.7973C79.4016 40.4964 78.4489 40.2255 77.4163 40.2846C76.5652 40.3336 75.7474 40.4748 74.9276 40.7096C73.1293 41.2248 71.6639 42.1654 70.128 43.1981C69.9264 43.3336 69.7207 43.0752 69.8169 42.8863C70.7035 41.1455 72.4218 39.7156 74.1428 38.844C75.0614 38.3788 76.0666 37.9928 77.0829 37.8158ZM85.4019 61.864C88.1503 62.064 94.1063 60.7489 96.5794 62.7215C105.9 74.388 68.9478 77.3874 72.9386 64.4804C75.4804 60.307 81.327 61.9843 85.4019 61.864ZM84.9307 68.9069C84.251 68.8514 83.4261 69.3911 83.2265 69.808C83.027 70.2252 83.1041 71.1065 83.1101 71.2592C84.2985 71.3793 85.4972 71.3975 86.6889 71.3193C86.3793 70.2927 86.3693 69.0623 84.9307 68.9069ZM90.4178 70.629C90.2268 69.3549 89.3175 69.0531 88.5816 69.2444C87.8288 69.4399 87.3869 70.3085 87.4347 71.0819C87.4379 71.1352 87.4071 71.1804 87.3869 71.2234C88.4102 71.1021 89.4239 70.9026 90.4178 70.629ZM81.9889 69.1376C81.5604 68.4841 80.5365 68.1687 79.8807 68.2839C78.8097 68.5099 78.6829 69.8739 78.6829 70.1519C79.6702 70.5291 80.7185 70.7796 81.7207 70.9791C81.9219 71.019 82.1236 71.0547 82.3256 71.0884L82.3388 70.9228C82.3632 70.5679 82.3813 69.7358 81.9889 69.1376ZM94.1033 69.0298C93.0053 67.3269 90.6449 68.5461 90.8399 70.4064C91.0497 70.3402 91.2584 70.2709 91.4662 70.1983C92.3289 69.8969 93.2752 69.5386 94.1033 69.0298ZM85.4586 63.1626C83.9813 63.0293 82.7696 63.0743 81.8062 63.2533L81.7769 63.5759C81.6703 64.6943 81.5328 65.7939 82.1188 66.2439C82.5946 66.6094 84.174 66.5745 85.2331 66.31C85.4947 66.2439 85.8347 63.9243 85.4586 63.1626ZM87.7428 63.0293C87.506 64.1316 87.3947 65.47 87.8701 65.8675C88.372 66.2872 89.988 66.2303 90.4106 65.9507C90.7804 65.706 90.771 64.5804 90.6337 63.3167C89.8153 63.1234 88.3903 63.0293 87.7428 63.0293ZM81.1529 63.2644L80.6691 63.2687L80.3954 63.2724C79.703 63.2847 78.9561 63.3247 78.2501 63.4791C76.8474 66.5175 81.9698 67.042 81.1787 63.3767L81.1529 63.2644ZM91.2853 63.3376L91.2764 63.5098C91.2344 64.3632 91.2622 65.4871 91.734 65.7906C92.4281 66.2371 93.7315 66.1509 94.4376 64.0857C94.2039 63.4696 91.7257 63.3827 91.2853 63.3376ZM77.6911 45.221C77.9876 45.221 78.2713 45.3219 78.5296 45.5086C78.7839 45.6923 79.0141 45.9605 79.2058 46.295C79.5685 46.9281 79.7953 47.8021 79.7953 48.7685C79.7953 49.7349 79.5685 50.6089 79.2058 51.2419C79.0141 51.5764 78.7839 51.8446 78.5296 52.0284C78.2713 52.2151 77.9876 52.316 77.6911 52.316C77.3945 52.316 77.1108 52.2151 76.8525 52.0284C76.5982 51.8446 76.3681 51.5764 76.1763 51.2419C75.8136 50.6089 75.5868 49.7349 75.5868 48.7685C75.5868 47.8021 75.8136 46.9281 76.1763 46.295C76.3681 45.9605 76.5982 45.6923 76.8525 45.5086C77.1108 45.3219 77.3945 45.221 77.6911 45.221ZM96.4642 45.221C96.7607 45.221 97.0444 45.3219 97.3027 45.5086C97.557 45.6923 97.7872 45.9605 97.9789 46.295C98.3416 46.9281 98.5684 47.8021 98.5684 48.7685C98.5684 49.7349 98.3416 50.6089 97.9789 51.2419C97.7872 51.5764 97.557 51.8446 97.3027 52.0284C97.0444 52.2151 96.7607 52.316 96.4642 52.316C96.1676 52.316 95.8839 52.2151 95.6256 52.0284C95.3713 51.8446 95.1412 51.5764 94.9495 51.2419C94.5867 50.6089 94.3599 49.7349 94.3599 48.7685C94.3599 47.8021 94.5867 46.9281 94.9495 46.295C95.1412 45.9605 95.3713 45.6923 95.6256 45.5086C95.8839 45.3219 96.1676 45.221 96.4642 45.221ZM93.9099 37.036L94.1503 37.0853L94.3097 37.1192C96.9021 37.6781 100.189 38.78 101.402 41.303C101.45 41.6671 101.4 41.7452 101.359 41.7962L101.346 41.8131C101.312 41.8567 101.286 41.9167 101.128 41.9662C101.084 41.9558 101.04 41.9448 100.996 41.933C100.428 41.7839 99.9788 41.5785 99.5439 41.3653L99.0724 41.1325C98.5254 40.8636 97.9735 40.6045 97.3887 40.4133C96.1406 40.0052 94.8568 39.7178 93.5531 39.5643C93.2706 39.531 92.9985 39.4354 92.7838 39.2716C92.5801 39.1161 92.4244 38.9008 92.3535 38.6147C92.2615 38.2443 92.2879 37.9639 92.4862 37.6298C92.6352 37.3789 92.8485 37.205 93.0934 37.1051C93.3431 37.0033 93.6274 36.9793 93.9099 37.036Z" fill="#262626"/>
</g>
<defs>
<clipPath id="clip0_108_198">
<rect width="137" height="133" fill="white"/>
</clipPath>
</defs>
</svg>
