<svg width="157" height="118" viewBox="0 0 157 118" fill="none" xmlns="http://www.w3.org/2000/svg">
<g opacity="0.67" filter="url(#filter0_f_105_143)">
<path fill-rule="evenodd" clip-rule="evenodd" d="M131 26L97.495 92.0227H66.0277L80.0476 64.6603H79.4164C67.8494 79.7984 50.5903 89.7621 26 92.0227V65.0398C26 65.0398 41.7309 64.1021 50.9779 54.3002H26.0055V26H54.0786V49.2765H54.7099L66.1827 26H87.412V49.1314H88.0432L99.9479 26H131Z" fill="white"/>
</g>
<path fill-rule="evenodd" clip-rule="evenodd" d="M131 26L97.495 92.0227H66.0277L80.0476 64.6603H79.4164C67.8494 79.7984 50.5903 89.7621 26 92.0227V65.0398C26 65.0398 41.7309 64.1021 50.9779 54.3002H26.0055V26H54.0786V49.2765H54.7099L66.1827 26H87.412V49.1314H88.0432L99.9479 26H131Z" fill="white"/>
<defs>
<filter id="filter0_f_105_143" x="0.545454" y="0.545454" width="155.909" height="116.932" filterUnits="userSpaceOnUse" color-interpolation-filters="sRGB">
<feFlood flood-opacity="0" result="BackgroundImageFix"/>
<feBlend mode="normal" in="SourceGraphic" in2="BackgroundImageFix" result="shape"/>
<feGaussianBlur stdDeviation="12.7273" result="effect1_foregroundBlur_105_143"/>
</filter>
</defs>
</svg>
