<svg width="252" height="244" viewBox="0 0 252 244" fill="none" xmlns="http://www.w3.org/2000/svg">
<g clip-path="url(#clip0_119_1075)">
<path fill-rule="evenodd" clip-rule="evenodd" d="M243.532 362.476C249.484 362.189 247.09 351.769 246.663 347.942C241.95 333.966 243.058 318.717 241.205 304.067C240.05 290.391 238.567 276.758 237.319 263.093C234.868 235.354 217.268 178.884 197.183 169.802C194.653 158.692 184.203 148.32 170.982 148.32C161.964 137.637 151.11 130.119 137.189 131.637C131.436 131.899 125.856 138.006 120.344 139.185C117.257 139.611 89.866 138.514 84.3791 141.776C80.5571 143.74 77.1068 147.369 78.2306 151.99C80.0237 157.588 74.4515 151.531 62.8275 157.506C39.1247 171.753 53.2885 190.814 53.9162 191.404C39.1247 212.001 26.1962 228.711 20.2144 253.887C16.3376 272.578 16.774 291.873 13.5257 310.66C12.3788 317.174 10.6194 323.465 8.71546 329.791C6.65201 338.07 5.64868 358.704 4.51132 358.889C2.43956 359.404 5.70868 363.661 7.90394 363.664C68.7675 373.769 130.59 364.083 191.781 362.501C209.025 361.9 226.288 361.762 243.532 362.476Z" fill="#FDFFFC"/>
<path fill-rule="evenodd" clip-rule="evenodd" d="M151.284 193.222C151.312 192.943 151.688 192.944 151.717 193.222L152.147 197.374C152.67 202.444 153.173 207.505 153.538 212.599C153.993 218.951 154.297 225.302 154.444 231.669C154.955 253.842 155.056 276.027 155.1 298.206C158.096 297.998 161.094 297.798 164.092 297.605C166.127 297.473 168.162 297.347 170.196 297.223L175.385 296.908V296.908L177.521 296.777C178.965 296.687 180.605 296.324 181.614 297.604C182.018 298.116 182.221 298.782 181.844 299.39C180.975 300.793 179.641 300.743 178.131 300.804C176.707 300.862 175.283 300.918 173.859 300.973C170.807 301.092 167.756 301.204 164.703 301.289C161.5 301.379 158.298 301.452 155.095 301.507C155.063 310.87 154.676 320.221 154.257 329.574L154.068 333.783C153.556 345.165 153.005 356.557 152.222 367.923C152.158 368.854 150.842 368.852 150.779 367.923C149.897 355.123 149.316 342.295 148.739 329.477C148.321 320.183 148.078 310.887 147.962 301.59C147.538 301.593 147.115 301.599 146.692 301.6C134.673 301.652 122.656 301.705 110.637 301.592C110.657 301.616 110.677 301.64 110.69 301.671C111.56 303.726 111.642 306.348 111.621 308.554C111.597 311.083 111.257 313.582 110.675 316.041C108.589 324.853 103.21 332.746 97.0837 339.271L96.8837 339.483C95.4386 341.011 93.7808 342.547 92.8935 344.493C91.9872 346.481 91.6726 348.805 91.2254 350.941L91.1732 351.187L89.4245 359.27C88.8689 361.838 88.7112 365.583 86.6804 367.435C84.7857 369.164 82.2757 368.261 81.3841 366.035C80.6878 364.298 81.3814 362.391 81.7937 360.655L85.0248 347.062C85.5557 344.845 86.1358 342.614 87.2816 340.622C88.4553 338.583 90.1759 337.104 91.9317 335.591C95.2563 332.727 98.3084 329.447 100.89 325.896C103.47 322.347 105.675 318.434 107.221 314.32C107.995 312.26 108.63 310.12 109.068 307.963C109.484 305.916 109.48 303.796 109.925 301.771C109.955 301.631 110.073 301.535 110.209 301.493C110.177 301.403 110.225 301.28 110.352 301.272L120.182 300.64C128.919 300.076 137.657 299.498 146.387 298.836L147.93 298.725V298.725C147.81 286.32 147.911 273.913 148.135 261.503C148.34 250.124 148.345 238.741 148.683 227.363C148.851 221.716 149.213 216.082 149.617 210.446C150.03 204.683 150.69 198.968 151.284 193.222ZM58.9859 259.204C58.8812 258.572 59.6755 258.181 60.0416 258.759C64.2274 265.362 66.2455 272.534 67.0962 280.261C67.8476 287.081 67.6262 293.999 67.252 300.836C66.8529 308.129 66.3872 315.42 65.9163 322.709L65.1928 333.886V333.886L63.3773 361.908C63.2474 363.912 62.7928 365.735 61.0684 366.666C60.8501 366.849 60.6225 367.012 60.3573 367.154C59.4257 367.653 58.1901 367.401 57.6514 366.444L57.8674 366.586C58.0555 366.705 57.8443 366.539 57.2335 366.09L56.7152 365.419V365.419C56.3385 364.852 56.098 364.295 56.0013 363.622C55.851 362.575 56.0457 361.428 56.114 360.376L57.304 342.002V342.002C58.2295 327.717 59.3102 313.437 60.1248 299.145C60.5042 292.484 60.77 285.816 60.5902 279.144C60.4109 272.508 60.0731 265.76 58.9859 259.204ZM95.1959 136.202L95.4281 136.163C103.742 134.781 112.782 135.039 120.38 139.05C120.443 139.083 120.415 139.188 120.344 139.185L117.898 139.087C110.156 138.784 102.438 138.604 94.8254 140.425L94.0461 140.612C91.3046 141.282 88.4417 142.101 86.2396 143.913C84.1349 145.645 83.0869 148.318 82.0792 150.778L81.9444 151.102C80.922 153.532 79.6279 155.836 77.3869 157.355C74.4842 159.323 70.9933 159.082 67.665 159.349C61.8048 159.82 57.0136 164.071 54.6299 169.272C53.1864 172.422 52.5707 175.953 52.4488 179.397C52.3863 181.151 52.3773 182.973 52.6108 184.714C52.6853 185.271 53.3733 187.3 53.7241 187.252C54.5036 187.144 55.2163 187.55 55.4593 188.174C57.3847 186.312 59.3656 184.504 61.4103 182.761C66.507 178.417 71.9967 174.48 77.778 171.097C82.1904 168.515 86.8445 165.956 91.664 164.022C91.2821 164.014 90.9055 164.09 90.5411 164.279C90.3816 164.363 90.223 164.163 90.349 164.03C91.867 162.432 93.6853 162.204 95.5184 162.63C95.9095 162.506 96.3009 162.385 96.6939 162.271C96.8895 162.214 96.9868 162.484 96.8273 162.588L96.377 162.876V162.876C98.3767 163.546 100.34 164.864 101.894 165.904C106.359 168.89 110.29 172.541 114.273 176.124L114.998 176.773C118.505 179.907 122.101 182.952 126.085 185.466C128.171 186.782 130.361 187.999 132.659 188.905C134.63 189.682 137.839 190.171 138.762 192.256C139.582 193.253 139.239 194.526 138.278 195.197C136.658 196.982 133.416 195.829 131.485 195.086C129.157 194.189 126.902 193.112 124.751 191.849C120.575 189.395 116.725 186.345 113.138 183.099C109.392 179.71 105.859 176.11 102.215 172.614C100.637 171.099 99.0945 169.549 97.5135 168.037L96.7195 167.284C95.9126 166.527 94.7629 165.346 93.5338 164.632C91.2181 166.014 88.8667 167.34 86.5719 168.758C83.3687 170.737 80.2597 172.859 77.1987 175.052C71.3059 179.272 65.7216 183.998 60.5375 189.064C51.0296 198.355 42.9292 208.964 35.8529 220.198L35.3155 221.054C31.2943 227.484 27.4916 234.122 24.7953 241.226C21.8285 249.045 20.3857 257.266 19.6019 265.565C18.8239 273.805 18.5615 282.086 17.6921 290.318C16.8005 298.761 15.0438 307.018 13.0457 315.259L12.5691 317.212C10.7611 324.593 8.89499 331.973 7.9656 339.528C7.46945 343.563 7.17102 347.654 7.23847 351.722C7.30623 355.814 7.94866 359.815 8.46699 363.864C8.66563 365.415 7.14053 366.709 5.77589 366.915C4.20644 367.151 2.85812 366.149 2.37029 364.689C0.849501 360.141 0.573247 355.113 0.620983 350.338C0.669027 345.491 1.28714 340.676 2.15686 335.913C3.86736 326.543 6.50703 317.367 8.71522 308.11C10.6613 299.95 11.9674 291.776 12.6715 283.417C13.4023 274.745 13.8399 266.044 15.1732 257.434C16.4892 248.934 18.9653 240.815 22.6995 233.064C26.0996 226.008 30.3379 219.366 34.7814 212.928C40.1775 205.11 46.1039 197.671 52.7284 190.893C52.1334 190.867 51.5224 190.674 50.9613 190.324C49.2446 189.252 48.4451 187.156 48.1993 185.242C47.624 180.764 47.7629 176.09 48.9135 171.712C50.7697 164.65 55.5871 158.375 62.5689 155.829C64.3659 155.174 66.2763 154.934 68.1808 154.887C69.988 154.842 71.9619 155.078 73.7056 154.505C76.4812 153.592 77.6709 150.32 78.713 147.84L78.761 147.726C80.0974 144.566 81.7013 141.857 84.5957 139.884C87.6836 137.778 91.5526 136.82 95.1959 136.202V136.202ZM174.191 148.7C176.689 147.833 179.813 148.62 182.256 149.378C184.978 150.222 187.493 151.778 189.65 153.625C191.925 155.573 193.805 157.978 195.133 160.666L195.26 160.924C196.473 163.417 197.855 166.839 197.243 169.577C197.226 169.655 197.206 169.73 197.183 169.802C202.14 172.245 206.718 175.304 210.704 179.18C215.346 183.695 219.276 188.831 222.602 194.381C235.813 216.422 238.138 242.893 239.698 268.029L240.087 274.402C240.934 288.164 241.926 301.894 244.501 315.466L244.689 316.446C247.442 330.657 251.383 344.976 250.983 359.553C250.864 363.921 244.414 363.891 244.227 359.553C243.523 343.225 239.716 327.46 237.138 311.387C232.602 283.11 234.874 253.957 228.447 225.963C225.925 214.977 222.017 204.32 216.438 194.514C213.682 189.669 210.528 184.988 206.834 180.809C203.656 177.212 200.353 173.752 196.639 170.728C195.453 171.918 193.081 171.312 192.462 169.577C192.036 168.386 192.16 166.992 191.887 165.743C191.634 164.585 191.284 163.436 190.818 162.345C189.89 160.17 188.528 158.082 186.955 156.322C185.256 154.419 183.303 152.839 181.118 151.534C178.918 150.22 176.511 149.827 174.191 148.867C174.113 148.835 174.105 148.73 174.191 148.7ZM183.897 299.825C183.901 299.711 184.036 299.657 184.119 299.733C184.995 300.54 185.525 301.698 186.169 302.69C186.913 303.834 187.693 304.955 188.512 306.047C190.152 308.234 191.978 310.295 193.819 312.315C195.531 314.193 197.355 315.993 199.248 317.689C201.298 319.527 203.596 321.166 205.459 323.201C209.346 327.447 209.974 333.275 210.794 338.747L210.884 339.339C211.384 342.587 211.832 345.843 212.236 349.104C212.433 350.69 212.629 352.278 212.789 353.868L212.838 354.372C212.981 355.928 213.019 357.508 212.126 358.868C211.17 360.323 208.996 360.833 207.703 359.438C205.482 357.041 205.899 352.783 205.61 349.699C205.371 347.149 205.1 344.602 204.797 342.059L204.643 340.788C204.286 337.894 203.996 334.944 203.334 332.101C202.751 329.597 201.64 327.708 199.818 325.894C197.982 324.067 196.074 322.362 194.379 320.394C192.581 318.308 190.96 316.07 189.499 313.735C188.249 311.738 187.247 309.564 186.33 307.393L186.178 307.031C185.291 304.914 183.828 302.158 183.897 299.825ZM215.961 208.883C215.981 208.588 216.417 208.583 216.423 208.883C216.479 211.423 216.532 213.963 216.584 216.503C217.008 236.97 216.747 257.486 218.799 277.883C219.766 287.5 221.548 296.976 223.61 306.412C224.665 311.24 225.772 316.057 226.824 320.887C227.849 325.593 228.948 330.322 229.761 335.072C230.56 339.741 231.275 344.446 231.597 349.174L231.636 349.791C231.775 352.082 232.435 355.451 231.174 357.481C229.809 359.681 227.194 359.72 225.731 357.62C224.357 355.649 224.699 352.143 224.456 349.791C224.209 347.395 223.949 344.998 223.652 342.607C223.074 337.945 222.313 333.292 221.52 328.661C219.871 319.017 217.478 309.495 215.711 299.866C213.901 290 212.614 280.063 212.56 270.018C212.506 259.887 213.578 249.776 214.119 239.668C214.668 229.401 215.293 219.142 215.961 208.883ZM119.355 145.222C119.904 143.372 121.842 142.215 123.733 142.735C125.465 143.211 126.895 145.316 126.218 147.116C125.479 149.081 124.187 150.756 123.098 152.542C122.092 154.192 120.625 155.491 119.601 157.111L120.73 158.33C121.295 158.938 121.861 159.542 122.434 160.135L124.403 162.177C125.937 163.764 127.48 165.342 129.067 166.874C133.734 171.378 138.474 175.735 143.7 179.593C144.89 180.471 146.089 181.344 147.321 182.161L147.781 182.466C148.627 183.02 149.57 183.565 150.592 183.471C153.074 183.243 155.316 180.605 157.022 178.963L157.111 178.877C161.338 174.852 165.252 170.451 168.674 165.719C169.434 164.668 170.17 163.598 170.886 162.516C169.232 160.582 169.627 156.807 169.536 154.461C169.471 152.812 169.466 151.162 169.458 149.511L169.453 149.179C169.433 148.11 169.385 147.086 170.078 146.206C170.118 146.156 170.201 146.157 170.253 146.184C171.202 146.682 171.494 147.515 171.899 148.449L171.941 148.546C172.434 149.668 172.906 150.8 173.383 151.928C173.883 153.109 174.341 154.308 174.806 155.503C175.022 156.059 175.228 156.617 175.43 157.179C175.553 157.537 175.68 157.894 175.811 158.25L175.841 158.277C176.014 158.424 176.16 158.578 176.286 158.738C176.815 159.003 177.236 159.486 177.434 160.196C177.863 161.74 176.974 163 176.181 164.226C172.96 169.207 169.287 173.953 165.205 178.259C163.178 180.398 161.045 182.441 158.824 184.379L158.436 184.715C156.441 186.431 154.276 188.056 151.612 188.457C148.494 188.927 145.957 187.375 143.571 185.588L143.333 185.408C141.07 183.694 138.853 181.92 136.706 180.064C132.326 176.28 128.16 172.217 124.463 167.76C120.867 163.424 117.312 158.577 115.095 153.36C114.96 153.042 115.315 152.709 115.593 152.975C116.676 154.006 117.718 155.094 118.748 156.196C118.776 154.574 118.477 152.939 118.644 151.307C118.847 149.323 118.788 147.132 119.355 145.222Z" fill="black"/>
<path fill-rule="evenodd" clip-rule="evenodd" d="M123.828 10.9267C142.717 2.35167 164.14 -0.900197 184.743 1.23278C194.913 2.28392 204.949 4.53906 214.499 8.2023L215.336 8.5261C217.694 9.43426 220.235 10.3357 222.027 12.1843C224.112 14.3327 224.697 17.5815 223.206 20.2354C222.049 22.2974 219.967 23.7767 217.746 24.566C218.528 25.2072 219.271 25.9223 219.967 26.7206C221.14 28.0583 221.229 29.966 219.967 31.2855C217.534 33.8285 214.377 35.6683 210.977 36.5502C211.359 38.3965 211.152 40.4401 210.333 42.2802C207.982 47.5624 201.36 48.1919 196.265 47.8783L196.111 47.8685L195.827 51.1142C195.676 52.8434 194.642 54.1842 192.886 54.4493C192.825 54.4585 192.763 54.4647 192.701 54.4705C195.479 64.5254 197.158 74.891 198.707 85.1956C199.516 90.5745 200.241 95.966 200.934 101.361L201.165 103.159C201.904 108.976 202.828 114.851 203.148 120.71C203.434 126.027 202.421 131.104 199.147 135.394C196.209 139.241 192.203 142.123 187.894 144.262C178.159 149.098 167.912 152.699 157.146 154.369L156.428 154.48C152.271 155.115 147.989 155.65 143.878 154.499C140.266 153.488 136.477 150.88 137.293 146.691C137.568 145.276 139.545 145.215 140.222 146.309L140.379 146.56C141.191 147.85 142.082 149.049 143.499 149.715C145.159 150.498 147.084 150.716 148.898 150.738C153.964 150.797 159.24 149.533 164.118 148.266C173.228 145.899 182.584 142.04 190.047 136.193C193.222 133.708 195.772 130.601 196.671 126.604C197.783 121.675 196.761 116.287 196.255 111.334C195.216 101.113 193.979 90.9111 192.674 80.7205L192.412 78.6826C191.313 70.163 190.158 61.6404 189.609 53.0715C189.381 52.7602 189.227 52.4057 189.166 52.0173L189.08 51.4594C189.006 50.9816 188.993 50.544 189.046 50.1402C189.049 48.5928 189.092 47.0548 189.181 45.5071C189.196 45.23 189.209 44.9526 189.218 44.6783C187.611 45.0327 185.991 45.3194 184.365 45.5629C172.932 47.2859 161.322 47.7175 149.797 46.8606C144.047 46.4318 138.341 45.6954 132.652 44.7738C129.757 44.3053 126.871 43.7875 123.995 43.208C121.916 42.7919 119.88 42.2278 117.835 41.6977C115.726 44.7707 114.586 48.5528 114.808 52.267C115.058 56.5052 117.879 60.3489 117.087 64.6795C116.344 68.7325 112.875 69.9892 109.449 70.9929L107.993 71.4142C106.872 71.7417 106.058 72.0577 105.855 73.4056C105.507 75.7205 105.935 78.325 106.025 80.6522C106.132 83.4047 106.274 86.1572 106.339 88.9098C106.373 90.3338 106.428 91.764 106.425 93.188C106.422 94.199 106.271 94.8895 105.88 95.5426C106.182 95.9221 106.452 96.332 106.693 96.7666C106.77 96.9084 106.579 97.0591 106.465 96.9423C106.16 96.6248 105.836 96.3382 105.495 96.082C105.322 96.295 105.122 96.5108 104.888 96.742L104.87 96.7173C104.137 97.4478 102.973 97.5187 102.064 96.742L101.825 96.5352C101.16 95.9516 100.703 95.4656 100.518 94.5011C100.509 94.4518 100.499 94.4025 100.493 94.3532C98.8025 94.2946 97.084 94.695 95.5626 95.5368C93.1512 96.8714 91.4542 98.7732 90.4505 101.122C90.8506 101.59 91.3187 102.01 91.8638 102.361C91.9408 102.413 91.8731 102.528 91.7899 102.487C91.2325 102.225 90.7335 101.902 90.287 101.523C89.9266 102.447 89.6741 103.44 89.5201 104.491C88.9781 108.202 89.9451 112.736 93.2959 114.851C94.7465 115.766 96.4034 116.262 98.1219 116.269C98.9593 116.271 99.6833 116.13 100.496 115.93C101.048 115.794 101.596 115.597 102.172 115.597C102.665 115.597 103.12 115.72 103.542 115.966L103.425 115.977C103.141 116.003 103.196 116.015 103.592 116.015C104.823 116.068 105.528 117.32 104.962 118.408L104.888 118.576C104.872 118.61 104.859 118.638 104.848 118.66L104.804 118.949C104.799 118.976 104.795 119.004 104.79 119.033L104.772 119.092C104.769 119.101 104.766 119.11 104.762 119.12L106.609 121.94C108.875 125.389 111.19 128.825 113.826 131.976C115.673 134.186 117.632 136.353 119.702 138.36C121.562 140.163 123.792 141.032 125.898 142.45C127.023 143.202 127.352 144.777 126.33 145.791C123.33 148.772 119.083 146.405 116.622 143.982C114.294 141.685 112.283 138.924 110.549 136.159C107.472 131.243 105.024 126.015 103.952 120.34C103.505 120.75 102.936 121.006 102.36 121.206C101.205 121.607 99.9328 121.774 98.7132 121.817C96.3757 121.894 94.035 121.327 91.9316 120.322C83.3729 116.238 82.1164 104.007 87.3489 96.7944C86.6433 94.7466 86.2493 92.5247 85.8212 90.6299L85.6264 89.783C83.4623 80.3224 82.0099 70.3619 85.846 61.0917C86.3387 59.8958 86.8931 58.7306 87.5491 57.6148C88.0757 56.7179 88.9812 55.7623 89.2306 54.7421C89.785 52.5012 86.3634 50.1463 85.3655 48.3678C84.1921 46.2811 84.0258 43.8183 85.6242 41.91C85.8275 41.6699 86.0489 41.4477 86.2894 41.2538C84.7742 38.5044 84.7034 35.046 86.6991 32.3335C88.011 30.5458 90.0129 29.2943 92.1995 28.9152C93.5361 28.684 95.1438 28.7703 96.6128 29.1834C104.657 21.7087 113.835 15.4639 123.828 10.9267ZM92.9385 104.454C95.0854 102.558 97.4568 101.566 100.383 101.816C103.324 102.068 106.865 103.286 108.593 105.81C109.958 107.804 107.177 110.73 105.175 109.232C103.351 107.866 102.135 106.325 99.8714 105.591C97.8384 104.935 95.3222 104.513 93.1941 104.889C92.9601 104.929 92.7263 104.639 92.9385 104.454Z" fill="black"/>
<path fill-rule="evenodd" clip-rule="evenodd" d="M182.568 73.0291C189.797 73.0291 193.922 74.585 195.434 74.7062L195.48 74.7094C196.108 74.7497 196.672 74.8023 197.264 75.0313C199.44 75.8701 199.795 78.1542 198.525 79.5937C198.436 82.5724 198.827 86.0528 198.156 89.0411C197.327 101.639 191.407 103.765 188.043 104.541C186.353 104.93 184.351 105.085 182.557 104.674C179.495 104.56 176.469 103.601 173.88 101.931C170.274 99.6029 167.595 96.025 166.726 91.7789C166.314 89.7549 166.122 87.6483 166.346 85.591L166.379 85.3075C165.207 84.7464 163.848 84.6402 162.448 84.5907C161.779 84.5668 161.12 84.5455 160.48 84.574C159.854 84.6439 159.235 84.7371 158.615 84.864C157.937 85.0686 157.297 85.4062 156.706 85.941L156.666 86.7216C156.555 88.6715 156.299 90.6273 155.904 92.5403C155.322 95.363 154.385 98.0588 152.391 100.061C151.716 101.07 150.88 101.971 149.866 102.751C146.183 105.589 141.178 106.631 136.585 106.239C127.261 105.442 121.871 98.034 120.629 94.8675L120.555 94.6756C119.657 92.3215 118.942 89.2671 116.107 88.7613L115.504 88.6528C114.21 88.4098 113.016 88.0714 112.258 86.808C111.925 86.2564 111.754 85.6396 111.712 85.0107C111.27 85.0447 110.828 85.0772 110.387 85.1088C106.874 85.8525 85.7996 86.483 84.1174 86.483C84.1174 86.483 80.884 87.8451 79.5188 86.7897C78.5726 86.0559 78.2613 85.0778 78.7822 83.9698C79.5681 82.3027 83.1941 81.2999 84.8042 80.9824C84.8042 80.9824 110.786 81.1984 112.657 80.8435C113.814 79.6494 115.883 79.8128 117.613 79.624C119.044 78.6024 121.047 77.9181 122.629 77.46C122.952 77.3377 123.271 77.2195 123.581 77.1081C126.482 76.0743 129.496 75.5268 132.557 75.2328C135.713 74.9326 138.878 75.0684 142.016 75.4987C143.338 75.6782 144.648 75.9103 145.949 76.2139C148.278 76.5212 150.593 77.0273 152.923 77.6278L153.389 77.7491C155.843 78.3928 158.364 78.9496 160.904 78.5132C162.971 78.1603 164.96 77.3639 166.866 76.5027L167.114 76.39C171.306 74.4745 177.852 73.0291 182.568 73.0291ZM145.697 80.0329C144.15 79.6925 143.49 82.0791 145.041 82.4205C146.14 82.6622 147.071 83.2167 147.7 84.1562L147.767 84.2583C148.611 85.6028 150.745 84.3617 149.895 83.0085C148.939 81.4857 147.453 80.4192 145.697 80.0329ZM190.996 78.5532C190.451 78.1688 189.626 78.4541 189.309 78.9973C188.961 79.5955 189.189 80.2614 189.7 80.6527L189.752 80.6909C190.22 81.0213 190.676 81.6136 190.734 82.2204L190.739 82.2963C190.8 83.8844 193.266 83.8925 193.204 82.2963C193.144 80.7349 192.241 79.4303 190.996 78.5532Z" fill="black"/>
<path fill-rule="evenodd" clip-rule="evenodd" d="M161.488 133.114L162.144 132.939C164.494 132.297 166.933 131.278 169.178 132.675C169.988 133.179 170.11 134.251 169.47 134.945C167.652 136.914 164.968 136.532 162.51 136.552L162.389 136.553C159.915 136.587 157.46 136.464 155.012 136.108C154.69 136.061 154.626 135.524 154.919 135.395C157.051 134.458 159.243 133.72 161.488 133.114V133.114ZM165.475 97.1189C167.799 98.5344 171.339 101.835 168.839 105.344C165.897 108.438 161.662 104.891 159.574 103.286C157.639 102.043 155.465 105.241 157.26 106.693C172.343 117.886 178.464 97.489 166.65 95.4546C165.35 95.2305 164.867 96.681 165.475 97.1189ZM181.628 78.5043C185.376 78.3893 185.379 84.3574 181.628 84.3414C180.508 84.3365 179.388 84.3362 178.268 84.3337C178.919 86.7116 178.547 89.5472 177.372 91.5446C176.597 92.863 174.741 93.1026 173.658 92.0245C171.786 90.1631 171.417 87.441 172.079 84.9727L171.943 84.6498V84.6498C171.898 84.544 171.867 84.437 171.841 84.3294C168.221 84.3325 164.601 84.3412 160.982 84.3471L155.552 84.3528C152.027 84.3541 148.5 84.3827 144.975 84.3497C145.018 84.4154 145.062 84.4808 145.097 84.5557C145.317 85.0199 145.41 85.6058 145.479 86.1075C145.598 86.9685 145.583 87.8958 145.448 88.7534C145.349 89.3801 145.168 90.1264 144.82 90.7169L144.818 90.7293V90.7293C144.654 91.4299 144.447 92.1006 143.906 92.6061C143.744 92.7575 143.585 92.8654 143.418 92.9419C143.102 93.2734 142.695 93.4927 142.161 93.4996C141.877 93.5029 141.566 93.4199 141.265 93.3021C140.801 93.341 140.322 93.1306 139.912 92.9444C139.583 92.7948 139.281 92.5962 139.038 92.3372C138.924 92.31 138.809 92.2653 138.694 92.1941C137.989 91.7593 137.719 90.8878 137.683 90.1008C137.68 90.053 137.682 90.0027 137.68 89.9543C137.654 89.8476 137.631 89.7403 137.613 89.6323C137.379 88.2338 137.663 86.6589 137.962 85.2999C138.037 84.9597 138.099 84.5647 138.191 84.1826C137.487 84.1551 136.784 84.128 136.081 84.099C134.318 84.0269 132.167 84.2634 130.537 83.5168C130.418 83.4628 130.45 83.3043 130.537 83.2423C132.042 82.1639 134.381 81.9894 136.194 81.6342L136.348 81.6033C138.509 81.1589 140.67 80.7851 142.853 80.466C147.056 79.8517 151.313 79.5211 155.552 79.283C164.232 78.7957 172.939 78.7705 181.628 78.5043Z" fill="black"/>
</g>
<defs>
<clipPath id="clip0_119_1075">
<rect width="252" height="242.803" fill="white" transform="translate(0 0.598511)"/>
</clipPath>
</defs>
</svg>
